<svg width="193" height="58" viewBox="0 0 193 58" fill="none" xmlns="http://www.w3.org/2000/svg">
<path d="M0 25.9581L2.16443 25.5103C3.06006 25.3237 3.17201 25.2864 3.17201 24.7639V6.21702C3.17201 5.61994 2.9481 5.5453 2.20175 5.39603L0 4.9109V3.90332H10.5609C15.4869 3.90332 19.6665 5.84384 19.6665 10.21C19.6665 14.5762 16.681 17.5989 11.158 17.5989C9.62798 17.5989 8.17259 17.487 7.09037 17.3004V24.7639C7.09037 25.3237 7.16501 25.4357 7.986 25.5476L10.8595 25.9954V27.0403H0V25.9581ZM8.95626 16.3301C13.5463 16.3301 15.8227 14.3896 15.8227 10.322C15.8227 7.07533 13.9942 5.17212 10.0012 5.17212H9.47871C8.76967 5.17212 7.53819 5.3214 7.09037 5.47067V16.3301H8.95626Z" fill="#FAFAFA"/>
<path d="M21.0098 23.085C21.0098 19.8383 24.7789 18.6442 28.1748 17.7485L31.4587 16.8902V14.9124C31.4587 12.0016 29.9287 10.7328 27.5777 10.7328C26.6074 10.7328 25.4879 11.0687 24.6669 11.5911L25.152 12.4121C25.4133 12.8599 25.5252 13.3824 25.5252 13.7555C25.5252 14.7631 24.9281 15.808 23.5847 15.808C22.3905 15.808 21.7561 15.0243 21.7561 13.7929C21.7561 12.3748 22.9503 11.4045 23.9206 10.8448L25.0028 10.173C26.2716 9.38936 27.615 9.09082 28.8092 9.09082C32.541 9.09082 34.78 10.5835 34.78 14.4646V22.4133C34.78 23.8687 34.8173 24.5031 35.0412 25.2867C35.7503 25.5853 36.8325 25.6599 37.8028 25.6599V26.4063C36.6459 27.1153 35.1532 27.4885 34.3322 27.4885C32.317 27.4885 31.6826 26.3689 31.4961 24.5404C30.2646 26.4063 28.324 27.4885 25.973 27.4885C22.8757 27.4885 21.0098 25.8465 21.0098 23.085ZM31.4587 23.3462V18.0844L28.2121 19.0173C26.3835 19.5398 24.2937 20.3981 24.2937 22.5998C24.2937 24.5777 25.5252 25.436 27.4284 25.436C29.3316 25.436 30.8243 24.2791 31.4587 23.3462Z" fill="#FAFAFA"/>
<path d="M39.7061 26.1824L41.0868 25.8465C41.7958 25.6599 42.281 25.6226 42.281 25.1001V12.8599C42.281 12.1136 42.2063 11.8523 40.751 11.2553L39.7434 10.8448V10.0984L44.5574 9.09082H45.6769V13.1585C46.4979 10.8074 48.4384 9.09082 50.4536 9.09082C51.5731 9.09082 52.6926 9.91181 52.6926 10.8821C52.6926 12.5987 50.9014 13.4943 50.9014 13.4943C50.7148 13.0838 50.3043 12.1509 49.1474 12.1509C47.7294 12.1509 46.0501 13.2331 45.6769 14.2034V24.9509C45.6769 25.436 46.1247 25.6226 46.8711 25.7345L49.5579 26.1824V27.0407H39.7061V26.1824Z" fill="#FAFAFA"/>
<path d="M54.1855 26.1826L55.6036 25.8467C56.1634 25.7348 56.7978 25.5855 56.7978 24.9884V12.8601C56.7978 12.1138 56.7232 11.8526 55.2678 11.2555L54.2229 10.845V10.0986L59.0369 9.09104H60.1564V24.9884C60.1564 25.5855 60.343 25.6228 61.3132 25.8467L62.7313 26.1826V27.0409H54.1855V26.1826ZM56.3873 2.97093C56.3873 1.73944 57.3576 0.657227 58.5517 0.657227C59.7459 0.657227 60.7162 1.73944 60.7162 2.97093C60.7162 4.31437 59.7086 5.32195 58.5517 5.32195C57.3949 5.32195 56.3873 4.31437 56.3873 2.97093Z" fill="#FAFAFA"/>
<path d="M66.0151 20.9206H66.9854C67.4705 22.7864 68.1049 24.0179 68.6647 24.8762C69.5976 25.7345 70.6425 26.2197 71.7994 26.2197C73.8145 26.2197 75.2699 25.2121 75.2699 23.3089C75.2699 21.2564 74.1131 20.6966 73.0309 20.2861L70.0828 19.1666C68.1049 18.4203 66.351 16.8902 66.351 14.4273C66.351 11.0313 69.4111 9.09082 72.695 9.09082C74.2997 9.09082 75.6804 9.57595 76.4641 10.0611L76.9492 9.09082H77.8449V14.7631H76.8746C76.688 13.3824 76.2402 12.4494 75.8297 11.6657C75.3446 11.0313 74.1131 10.2104 72.8443 10.2104C71.0904 10.2104 69.5603 11.4045 69.5603 13.2331C69.5603 14.8751 70.0828 15.7334 71.5009 16.2931L74.9714 17.6366C76.8373 18.3456 78.6659 19.8383 78.6659 22.152C78.6659 25.7345 75.4938 27.4885 72.2845 27.4885C70.232 27.4885 68.6647 27.1153 67.6198 26.4436L67.1347 27.4885H66.2017L66.0151 20.9206Z" fill="#FAFAFA"/>
<path d="M87.5548 22.6227C87.5548 19.9283 90.1074 18.5102 91.2941 17.943L89.9357 16.413C89.1147 15.3905 88.6594 14.4277 88.6594 13.3231C88.6594 10.0914 91.3836 9.0166 93.451 9.0166C96.4588 9.0166 97.8993 10.8302 97.8993 12.7857C97.8993 15.1666 95.8021 16.6966 94.0407 17.637L98.6382 22.5182C99.2875 21.2718 99.489 20.0776 99.489 18.4356C99.489 18.0923 99.4592 18.0699 98.7203 17.8982L97.7874 17.6743V16.9354H102.78V17.6743L101.303 17.9878C100.989 18.0699 100.847 18.1595 100.847 18.6371C100.847 20.7642 100.138 22.4659 99.4592 23.4287L101.101 25.1603C101.668 25.8096 102.631 26.2947 103.31 26.5186V27.056C100.109 27.0859 99.5413 27.056 98.2053 25.6678L97.9217 25.3543C96.6156 26.5186 95.0035 27.3396 92.8465 27.3396C89.2714 27.3396 87.5474 25.2125 87.5474 22.6301L87.5548 22.6227ZM97.1082 24.4064L92.0852 18.7939C91.0104 19.585 90.1298 20.6374 90.1298 21.9957C90.1298 24.4662 91.6598 25.623 93.7346 25.623C95.1826 25.623 96.2872 25.1155 97.1082 24.4064ZM95.6901 12.7782C95.6901 11.1586 95.0408 10.0242 93.3615 10.0242C92.0553 10.0242 91.0328 10.987 91.0328 13.032C91.0328 13.8828 91.4881 14.7635 92.1972 15.5845L93.3615 16.8608C94.6974 15.9801 95.6901 14.8755 95.6901 12.7782Z" fill="#FAFAFA"/>
<path d="M0.111816 45.2894C0.111816 38.199 5.63484 33.1611 12.9864 33.1611C15.3375 33.1611 17.4646 33.497 19.2931 34.318L20.0022 33.385H20.7859L21.2337 41.4084H20.2261C19.9275 39.7664 19.2185 37.1541 18.4722 36.1466C17.5019 35.2509 15.6733 34.3553 13.173 34.3553C6.64242 34.3553 4.47799 39.8037 4.47799 45.0655C4.47799 51.5588 7.83659 56.0369 12.5759 56.0369C14.6657 56.0369 16.7182 55.1786 17.8004 54.4696C18.5841 53.6486 19.8156 50.5885 20.2261 49.0212H21.271L19.9649 55.9623C18.4722 56.634 15.5987 57.343 12.5013 57.343C4.40336 57.343 0.111816 51.6334 0.111816 45.2894Z" fill="#FAFAFA"/>
<path d="M24.9658 48.1255C24.9658 42.789 28.6976 38.9453 33.7728 38.9453C38.848 38.9453 42.5425 42.5278 42.5425 48.0882C42.5425 53.6485 38.848 57.343 33.7728 57.343C28.6976 57.343 24.9658 53.8351 24.9658 48.1255ZM38.848 48.0508C38.848 44.0205 37.0568 40.2888 33.7728 40.2888C30.7501 40.2888 28.6976 42.9756 28.6976 48.0882C28.6976 52.1931 30.4888 56.1115 33.7728 56.1115C36.7956 56.1115 38.848 53.4992 38.848 48.0508Z" fill="#FAFAFA"/>
<path d="M45.3784 56.0368L46.7592 55.701C47.4309 55.5517 47.9533 55.4771 47.9533 54.9546V42.7144C47.9533 41.9681 47.8787 41.7068 46.4233 41.1097C46.4233 41.1097 45.677 40.7366 45.4157 40.6992V39.9529L50.2297 38.9453H51.3493V42.789C52.3195 40.7366 54.3347 38.9453 57.1335 38.9453C60.0816 38.9453 61.8356 40.2514 62.5446 42.9756H62.7312C63.8134 40.8858 65.7539 39.0946 68.4408 39.0946C72.3218 39.0946 74.1504 41.5576 74.1504 45.2147V54.9546C74.1504 55.4771 74.5236 55.5144 75.3073 55.701L76.688 56.0368V56.8952H68.2542V56.0368L69.635 55.701C70.1574 55.5517 70.8291 55.4771 70.8291 54.9546V46.2223C70.8291 43.6474 70.2694 41.2217 66.9854 41.2217C64.8956 41.2217 63.3283 43.1622 62.8058 44.3564L62.7685 45.1401V54.9546C62.7685 55.4771 62.9551 55.4771 63.9253 55.701L65.3434 56.0368V56.8952H56.7977V56.0368L58.2157 55.701C59.2233 55.4771 59.4099 55.4771 59.4099 54.9546V46.073C59.4099 43.4981 59.074 41.0724 55.7154 41.0724C54.0735 41.0724 52.5807 41.6322 51.3493 43.9459V54.9173C51.3493 55.3651 51.3493 55.5144 52.1329 55.6637L53.8122 55.9622C53.8122 55.9622 53.8122 56.9698 53.8122 56.8952H45.3784V56.0368Z" fill="#FAFAFA"/>
<path d="M80.8303 52.8643V41.5944H78.7778V40.3629C79.4122 40.1016 80.3825 39.8031 81.1288 39.2433C81.6513 38.4597 82.6589 35.8474 82.9574 34.8398H84.1516V39.8777H89.4134V41.5944H84.1516V52.006C84.1516 54.4317 84.9726 55.29 87.2116 55.29C88.5924 55.29 89.5253 54.6556 90.1224 54.0958L90.4956 54.5436C89.488 56.2229 87.7341 57.3425 85.4577 57.3425C82.6589 57.3425 80.8303 55.7751 80.8303 52.8643Z" fill="#FAFAFA"/>
<path d="M91.9512 48.1628C91.9885 42.9756 95.3098 38.9453 100.422 38.9453C104.117 38.9453 106.916 41.1844 106.916 44.9162C106.916 45.4013 106.729 46.4462 106.692 46.9313L95.3471 46.6701V47.3791C95.3471 52.3797 97.6981 54.88 101.691 54.88C103.632 54.88 105.311 53.9471 106.393 52.529L106.766 52.9022C105.423 55.589 103.37 57.343 99.7879 57.343C94.9366 57.343 91.9885 53.3873 91.9512 48.1628ZM103.37 45.252C103.482 45.0281 103.557 44.5803 103.557 44.2444C103.557 41.6322 102.288 40.2514 100.236 40.2514C97.3996 40.2514 95.7576 42.8264 95.4964 45.5879L103.37 45.252Z" fill="#FAFAFA"/>
<path d="M110.796 50.775H111.767C112.252 52.6409 112.886 53.8724 113.446 54.7307C114.379 55.589 115.424 56.0742 116.581 56.0742C118.596 56.0742 120.051 55.0666 120.051 53.1634C120.051 51.1109 118.894 50.5511 117.812 50.1406L114.864 49.0211C112.886 48.2748 111.132 46.7447 111.132 44.2818C111.132 40.8858 114.192 38.9453 117.476 38.9453C119.081 38.9453 120.462 39.4304 121.245 39.9156L121.73 38.9453H122.626V44.6176H121.656C121.469 43.2369 121.021 42.3039 120.611 41.5202C120.126 40.8858 118.894 40.0648 117.626 40.0648C115.872 40.0648 114.342 41.259 114.342 43.0876C114.342 44.7296 114.864 45.5879 116.282 46.1476L119.753 47.4911C121.619 48.2001 123.447 49.6928 123.447 52.0065C123.447 55.589 120.275 57.343 117.066 57.343C115.013 57.343 113.446 56.9698 112.401 56.2981L111.916 57.343H110.983L110.796 50.775Z" fill="#FAFAFA"/>
<path d="M127.253 50.775H128.224C128.709 52.6409 129.343 53.8724 129.903 54.7307C130.836 55.589 131.881 56.0742 133.038 56.0742C135.053 56.0742 136.508 55.0666 136.508 53.1634C136.508 51.1109 135.351 50.5511 134.269 50.1406L131.321 49.0211C129.343 48.2748 127.589 46.7447 127.589 44.2818C127.589 40.8858 130.649 38.9453 133.933 38.9453C135.538 38.9453 136.919 39.4304 137.702 39.9156L138.188 38.9453H139.083V44.6176H138.113C137.926 43.2369 137.478 42.3039 137.068 41.5202C136.583 40.8858 135.351 40.0648 134.083 40.0648C132.329 40.0648 130.799 41.259 130.799 43.0876C130.799 44.7296 131.321 45.5879 132.739 46.1476L136.21 47.4911C138.076 48.2001 139.904 49.6928 139.904 52.0065C139.904 55.589 136.732 57.343 133.523 57.343C131.47 57.343 129.903 56.9698 128.858 56.2981L128.373 57.343H127.44L127.253 50.775Z" fill="#FAFAFA"/>
<path d="M143.188 48.1628C143.226 42.9756 146.547 38.9453 151.66 38.9453C155.354 38.9453 158.153 41.1844 158.153 44.9162C158.153 45.4013 157.966 46.4462 157.929 46.9313L146.584 46.6701V47.3791C146.584 52.3797 148.935 54.88 152.928 54.88C154.869 54.88 156.548 53.9471 157.63 52.529L158.004 52.9022C156.66 55.589 154.608 57.343 151.025 57.343C146.174 57.343 143.226 53.3873 143.188 48.1628ZM154.608 45.252C154.72 45.0281 154.794 44.5803 154.794 44.2444C154.794 41.6322 153.525 40.2514 151.473 40.2514C148.637 40.2514 146.995 42.8264 146.734 45.5879L154.608 45.252Z" fill="#FAFAFA"/>
<path d="M168.243 52.2449H168.982C169.348 53.663 169.833 54.5959 170.258 55.2527C170.967 55.902 171.758 56.2752 172.639 56.2752C174.169 56.2752 175.274 55.5065 175.274 54.066C175.274 52.5061 174.393 52.0807 173.572 51.7672L171.333 50.9164C169.833 50.3492 168.497 49.1848 168.497 47.3115C168.497 44.7291 170.826 43.2588 173.318 43.2588C174.535 43.2588 175.587 43.6245 176.184 43.9977L176.55 43.2588H177.229V47.5727H176.49C176.349 46.5204 176.005 45.8113 175.699 45.2217C175.334 44.7366 174.393 44.1171 173.43 44.1171C172.094 44.1171 170.938 45.0277 170.938 46.4159C170.938 47.6623 171.333 48.3116 172.415 48.7445L175.05 49.767C176.468 50.3044 177.856 51.4388 177.856 53.2002C177.856 55.9244 175.445 57.2529 173.005 57.2529C171.445 57.2529 170.251 56.9693 169.46 56.4618L169.094 57.2529H168.385L168.243 52.2598V52.2449Z" fill="#FAFAFA"/>
<path d="M180.245 53.8954C180.245 51.425 183.111 50.5219 185.686 49.8427L188.178 49.1934V47.6932C188.178 45.484 187.014 44.5212 185.23 44.5212C184.491 44.5212 183.641 44.7749 183.021 45.1705L183.387 45.7974C183.588 46.1408 183.67 46.5363 183.67 46.8199C183.67 47.5887 183.215 48.3798 182.193 48.3798C181.282 48.3798 180.804 47.7827 180.804 46.8498C180.804 45.7751 181.715 45.0362 182.446 44.6107L183.267 44.1032C184.23 43.5061 185.253 43.2822 186.163 43.2822C188.999 43.2822 190.701 44.4167 190.701 47.3648V53.4028C190.701 54.5074 190.731 54.9925 190.903 55.5822C191.44 55.8061 192.261 55.8658 193 55.8658V56.433C192.119 56.9704 190.985 57.254 190.365 57.254C188.835 57.254 188.35 56.4032 188.208 55.0149C187.275 56.433 185.798 57.254 184.014 57.254C181.663 57.254 180.245 56.0076 180.245 53.9103V53.8954ZM188.186 54.0969V50.0964L185.715 50.8055C184.327 51.2011 182.737 51.8578 182.737 53.5297C182.737 55.0299 183.67 55.6867 185.118 55.6867C186.566 55.6867 187.701 54.806 188.178 54.0969H188.186Z" fill="#FAFAFA"/>
</svg>
