<svg width="90" height="91" viewBox="0 0 90 91" fill="none" xmlns="http://www.w3.org/2000/svg">
<path d="M45.0231 0.663086C44.7479 0.667954 44.48 0.758012 44.2559 0.918657L37.0535 5.81589L28.5723 4.02689C28.0242 3.91979 27.4689 4.15589 27.1644 4.62322L22.3904 11.9082L13.9092 13.4855C13.3441 13.5828 12.9008 14.0258 12.8009 14.5929L11.2226 23.0682L3.93248 27.8388C3.46482 28.1406 3.22855 28.698 3.33572 29.2432L5.12598 37.7185L0.222869 44.9183C-0.0742896 45.371 -0.0742896 45.9576 0.222869 46.4079L5.12355 53.6053L3.33329 62.0805C3.22612 62.6281 3.46238 63.1855 3.93004 63.4873L11.2202 68.258L12.7985 76.7332C12.8984 77.2979 13.3417 77.7409 13.9068 77.8407L22.388 79.418L27.162 86.7029C27.4664 87.1703 28.0218 87.4064 28.5698 87.2993L37.051 85.5103L44.2535 90.4075C44.4775 90.5682 44.7455 90.6582 45.0207 90.6631C45.2959 90.6582 45.5639 90.5682 45.788 90.4075L52.9904 85.5103L61.4302 87.2993C61.9782 87.4064 62.5336 87.1703 62.838 86.7029L67.612 79.418L76.0932 77.8407C76.6583 77.7433 77.1016 77.3004 77.2015 76.7332L78.7798 68.258L86.07 63.4873C86.5376 63.1855 86.7739 62.6281 86.6667 62.0829L84.8765 53.6077L89.7771 46.4103C90.0743 45.9576 90.0743 45.371 89.7771 44.9183L84.8765 37.7209L86.6667 29.2457C86.7739 28.698 86.5376 28.1431 86.07 27.8413L78.7798 23.0706L77.2015 14.5954C77.1016 14.0307 76.6583 13.5877 76.0932 13.4879L67.612 11.9107L62.838 4.62566C62.5336 4.15833 61.9782 3.92223 61.4302 4.02932L52.9904 5.81832L45.7904 0.918657C45.5663 0.758012 45.2984 0.667954 45.0231 0.663086ZM45.0231 3.68856L51.887 8.37403C52.1964 8.59066 52.5836 8.66611 52.9539 8.58823L61.0526 6.92823L65.6148 13.87C65.8194 14.184 66.1409 14.3982 66.5111 14.4664L74.6951 15.9998L76.2296 24.1781C76.2978 24.5456 76.5122 24.8693 76.8264 25.0738L83.7731 29.6327L82.1119 37.7696C82.034 38.1371 82.1119 38.5241 82.3262 38.8333L87.015 45.6923L82.3262 52.5075C82.1119 52.8166 82.034 53.2037 82.1119 53.5736L83.7731 61.7105L76.8264 66.2694C76.5122 66.4739 76.2978 66.7952 76.2296 67.1627L74.6951 75.341L66.5111 76.8744C66.1433 76.9426 65.8194 77.1568 65.6148 77.4707L61.0526 84.4125L52.9539 82.7525C52.5836 82.6722 52.1988 82.7501 51.887 82.9667L45.0231 87.6522L38.1593 82.9667C37.8475 82.7501 37.4627 82.6747 37.0924 82.7525L28.9498 84.4125L24.3877 77.4707C24.1831 77.1568 23.8616 76.9426 23.4913 76.8744L15.3073 75.341L13.7728 67.1627C13.7046 66.7976 13.4903 66.4739 13.176 66.2694L6.22936 61.7105L7.89053 53.5736C7.96847 53.2061 7.89053 52.8191 7.67618 52.51L2.98742 45.6947L7.67618 38.8357C7.89053 38.5266 7.96847 38.1396 7.89053 37.7696L6.22936 29.6327L13.176 25.0738C13.4903 24.8693 13.7046 24.548 13.7728 24.1805L15.3073 16.0022L23.4913 14.4688C23.8591 14.4006 24.1831 14.1865 24.3877 13.8725L28.9498 6.93067L37.0924 8.59066C37.4627 8.67098 37.8475 8.59309 38.1593 8.37647L45.0231 3.691V3.68856ZM45.0231 14.3374C27.7125 14.3374 13.651 28.3889 13.651 45.6874C13.651 62.9859 27.7125 77.0375 45.0231 77.0375C62.3338 77.0375 76.3953 62.9859 76.3953 45.6874C76.3953 28.3889 62.3338 14.3374 45.0231 14.3374ZM45.0231 17.0635C60.8602 17.0635 73.6673 29.8639 73.6673 45.6874C73.6673 61.5109 60.8578 74.3114 45.0231 74.3114C29.1885 74.3114 16.379 61.5109 16.379 45.6874C16.379 29.8639 29.1885 17.0635 45.0231 17.0635ZM59.2161 32.057L41.484 50.9692L32.1917 42.7058L26.7357 48.7957L39.0118 59.7L41.9955 62.3409L44.7235 59.4445L65.1836 37.6357L59.2161 32.0545V32.057Z" fill="#B89435"/>
</svg>
