<?xml version="1.0" encoding="UTF-8"?>
<svg id="Calque_3" data-name="Calque 3" xmlns="http://www.w3.org/2000/svg" xmlns:xlink="http://www.w3.org/1999/xlink" viewBox="0 0 771.78 468.2">
  <defs>
    <style>
      .cls-1 {
        fill: #fdc300;
      }

      .cls-1, .cls-2, .cls-3, .cls-4 {
        stroke-width: 0px;
      }

      .cls-5 {
        clip-path: url(#clippath-2);
      }

      .cls-2 {
        fill: none;
      }

      .cls-6 {
        clip-path: url(#clippath-1);
      }

      .cls-7 {
        clip-path: url(#clippath-4);
      }

      .cls-3 {
        fill: #ffc226;
      }

      .cls-4 {
        fill: #fff;
      }

      .cls-8 {
        clip-path: url(#clippath);
      }

      .cls-9 {
        clip-path: url(#clippath-3);
      }

      .cls-10 {
        clip-path: url(#clippath-5);
      }
    </style>
    <clipPath id="clippath">
      <rect class="cls-2" x="18.4" y="390.65" width="742.96" height="77.55"/>
    </clipPath>
    <clipPath id="clippath-1">
      <rect class="cls-2" x="18.4" y="390.65" width="742.96" height="77.55"/>
    </clipPath>
    <clipPath id="clippath-2">
      <rect class="cls-2" x="18.4" y="390.65" width="742.96" height="77.55"/>
    </clipPath>
    <clipPath id="clippath-3">
      <rect class="cls-2" x="18.4" y="390.65" width="742.96" height="77.55"/>
    </clipPath>
    <clipPath id="clippath-4">
      <rect class="cls-2" x="18.4" y="390.65" width="742.96" height="77.55"/>
    </clipPath>
    <clipPath id="clippath-5">
      <rect class="cls-2" x="18.4" y="390.65" width="742.96" height="77.55"/>
    </clipPath>
  </defs>
  <g>
    <path class="cls-1" d="M598.11,285.24v31.96l20.15,7.63v10.69l-72.16-28.7v-11.5l72.16-28.7v10.79l-20.15,7.84ZM588.85,313.64v-24.83l-32.37,12.52,32.37,12.32Z"/>
    <path class="cls-1" d="M618.27,207.48l-58.83,38.98h58.83v9.97h-72.16v-13.33l55.37-36.03h-55.37v-9.97h72.16v10.38Z"/>
    <path class="cls-1" d="M565.65,141.73c-5.19.81-12.32,5.19-12.32,15.27,0,8.14,5.29,13.94,12.01,13.94,5.19,0,9.16-3.15,10.48-9.26l2.34-10.79c2.65-12.01,10.18-18.73,20.25-18.73,11.2,0,21.37,9.57,21.37,24.94,0,17.4-11.2,25.65-21.48,26.97l-3.05-9.57c8.04-.71,15.47-6.41,15.47-17.3,0-9.97-5.19-14.86-11.5-14.86-5.19,0-9.67,3.56-11.2,10.79l-2.24,10.28c-2.24,10.28-8.96,17.61-19.75,17.61s-21.48-10.48-21.48-23.82c0-16.29,10.08-22.8,17.91-24.43l3.15,8.96Z"/>
  </g>
  <g>
    <g class="cls-8">
      <path class="cls-4" d="M38.05,436.78c6.1,0,9.78-3.28,9.78-8.52,0-5.33-3.68-8.69-9.78-8.69h-10.02v17.21s10.01,0,10.01,0ZM28.03,445.07v21.68s-9.63,0-9.63,0l.03-55.48h21.08c10.9.01,18.12,7.21,18.12,16.92,0,9.78-7.23,16.9-18.13,16.9h-11.47Z"/>
    </g>
    <path class="cls-4" d="M74.86,444.15l8.67-22.68,8.64,22.7h-17.32ZM78.16,411.29l-22.14,55.48h10.18s5.29-13.92,5.29-13.92h24.06s5.37,13.94,5.37,13.94h10.5l-22.1-55.49h-11.15Z"/>
    <g class="cls-6">
      <path class="cls-4" d="M139.1,436.59c5.93,0,9.78-3.36,9.78-8.45,0-5.16-3.84-8.53-9.78-8.53h-10.34s0,16.98,0,16.98h10.34ZM135.81,444.88h-7.06s0,21.9,0,21.9h-9.7l.02-55.48h21.81c10.99.01,17.8,7.44,17.79,16.83,0,7.91-4.89,13.94-12.83,15.81l12.82,22.86h-10.9l-11.94-21.92Z"/>
    </g>
    <rect class="cls-4" x="168.94" y="411.32" width="9.78" height="55.48"/>
    <g class="cls-5">
      <path class="cls-4" d="M221.05,427c-.55-3.44-3.52-8.53-11.14-8.53-5.77,0-9.78,3.76-9.8,7.98,0,3.53,2.26,6.18,6.66,7.12l8.18,1.64c10.02,1.97,15.38,8.15,15.38,15.97,0,8.62-7.15,16.83-20.13,16.82-14.43,0-21.08-9.09-21.96-17.07l8.98-2.5c.56,5.79,4.79,11.12,12.98,11.12,6.82,0,10.36-3.36,10.36-7.66,0-3.61-2.73-6.5-7.62-7.52l-8.01-1.65c-8.66-1.72-14.43-7.29-14.43-15.58,0-9.31,8.75-16.98,19.33-16.98,13.39.01,18.6,7.99,19.88,14.18l-8.67,2.66Z"/>
      <path class="cls-4" d="M330.51,439.17c0-18.08,13.87-28.95,28.62-28.94,14.43,0,23.01,8.31,25.57,18l-9.05,2.97c-1.69-6.73-6.97-12.13-16.52-12.13-9.38,0-18.77,6.63-18.77,20.1,0,12.98,9.12,19.88,18.83,19.89,9.54,0,15-5.95,16.92-12.21l8.82,2.83c-2.57,9.39-11.23,18.38-25.75,18.38-15.32,0-28.69-10.81-28.69-28.89"/>
      <path class="cls-4" d="M419.51,459.17c9.62,0,19.08-6.65,19.09-20.03,0-13.39-9.44-20.03-19.07-20.04-9.55,0-19.01,6.64-19.01,20.03,0,13.38,9.44,20.03,18.99,20.04M419.53,410.25c14.91,0,28.94,10.73,28.93,28.89-.01,18.23-14.05,28.94-28.96,28.93-14.92,0-28.86-10.73-28.85-28.96,0-18.16,13.96-28.87,28.87-28.87"/>
    </g>
    <polygon class="cls-4" points="458.64 466.93 468.01 466.93 468.03 426.23 485.58 466.94 493.92 466.94 511.64 426.1 511.64 466.95 521.18 466.96 521.2 411.46 508.13 411.46 489.91 453.79 471.49 411.44 458.67 411.44 458.64 466.93"/>
    <polygon class="cls-4" points="529.07 420.31 547.5 420.32 547.48 466.96 557.1 466.97 557.13 420.33 575.65 420.33 575.65 411.49 529.07 411.46 529.07 420.31"/>
    <polygon class="cls-4" points="583.49 466.97 618.61 466.99 618.61 458.23 593.12 458.22 593.12 443.5 616.21 443.51 616.22 434.98 593.13 434.97 593.14 420.26 618.63 420.27 618.63 411.5 583.52 411.49 583.49 466.97"/>
    <g class="cls-9">
      <path class="cls-4" d="M658.88,427.18c-.55-3.44-3.52-8.53-11.14-8.53-5.77,0-9.79,3.76-9.8,7.98,0,3.53,2.26,6.18,6.66,7.12l8.18,1.64c10.02,1.97,15.38,8.15,15.38,15.97,0,8.62-7.15,16.83-20.13,16.82-14.43,0-21.08-9.09-21.96-17.07l8.98-2.5c.56,5.79,4.79,11.12,12.98,11.12,6.82,0,10.36-3.36,10.36-7.66,0-3.61-2.73-6.5-7.62-7.52l-8.01-1.65c-8.66-1.72-14.43-7.29-14.43-15.58,0-9.31,8.75-16.99,19.33-16.98,13.39.01,18.6,7.99,19.88,14.18l-8.67,2.66Z"/>
      <path class="cls-4" d="M706.91,427.19c-.55-3.44-3.52-8.53-11.14-8.53-5.77,0-9.78,3.75-9.8,7.98,0,3.52,2.26,6.18,6.66,7.13l8.18,1.64c10.02,1.97,15.38,8.15,15.38,15.97,0,8.62-7.15,16.83-20.13,16.82-14.43,0-21.08-9.09-21.96-17.07l8.98-2.5c.56,5.79,4.79,11.11,12.98,11.12,6.82,0,10.36-3.37,10.36-7.66,0-3.61-2.73-6.5-7.62-7.51l-8.01-1.65c-8.66-1.72-14.43-7.29-14.43-15.58,0-9.31,8.75-16.99,19.33-16.98,13.39.01,18.6,7.99,19.88,14.18l-8.67,2.65Z"/>
    </g>
    <polygon class="cls-4" points="726.23 467.04 761.34 467.06 761.35 458.29 735.86 458.27 735.86 443.57 758.95 443.57 758.96 435.04 735.87 435.04 735.87 420.32 761.36 420.33 761.36 411.57 726.25 411.56 726.23 467.04"/>
    <g class="cls-7">
      <path class="cls-3" d="M270.47,402.44c1.57-1.46,5.71-4.35,10.22.17,2.13,2.12,2.9,4.17,2.37,6.26-.41,1.61-1.43,2.82-1.64,3.06l-8.49,8.48-10.21-10.22,7.74-7.74ZM264.3,425.29l12,11.99-.02.02,6.85,6.85,6.78-6.78-10.18-10.19,8.5-8.5c4.44-4.44,7.91-14.21-.75-22.86-8.63-8.62-18.88-4.88-23.7-.26l-14.61,14.61,15.12,15.13h.01Z"/>
    </g>
    <polygon class="cls-3" points="295.51 456.55 305.88 466.93 319.45 466.93 302.29 449.76 295.51 456.55"/>
    <g class="cls-10">
      <path class="cls-3" d="M309.57,423.34l-32,32c-4.94,4.93-10.22,2.6-10.8,2.31l-.41-.19c-1.95-.78-3.7-2.87-4.67-5.6-1.18-3.3-.37-6.28,2.45-9.1l6.06-6.07-6.78-6.78-6.06,6.07c-5.48,5.47-7.15,12.26-4.71,19.1,1.88,5.27,5.51,9.36,9.93,11.19,1.06.52,3.93,1.72,7.95,1.72,3.62,0,8.95-1.02,13.82-5.88l25.22-25.22v-13.56Z"/>
    </g>
  </g>
  <g>
    <path class="cls-1" d="M93.85,322.78c0-47.56,40.19-86.11,89.77-86.11s89.76,38.55,89.76,86.11c0,9.85-1.73,19.31-4.9,28.12h87.18c1.7-9.45,2.6-19.3,2.6-29.52,0-94.35-64.56-155.37-156.07-155.37-48.95,0-92.94,17.74-117.06,54.63,7.8-89.39,70.23-146.85,156.78-146.85,37.6,0,61.72,9.22,78.75,18.44l24.12-69.52C324.92,9.93,289.45,0,246.88,0,104.28,0,0,100.74,0,267.45c0,29.59,4.21,57.8,12.38,83.44h86.37c-3.17-8.81-4.9-18.27-4.9-28.12Z"/>
    <path class="cls-1" d="M480.91,240.5c0-48.55,6.95-87.67,22.44-115.79,8.34-15.9,19.43-28.65,33.77-37.21.86-.53,1.74-1.03,2.62-1.53.31-.17.61-.35.92-.51,11.97-6.51,26.32-10.25,43.83-10.25,33.34,0,54.63,13.48,70.94,34.05,17.17,22.15,26.96,54.29,30.44,94.97,1.14,12.07,1.7,24.6,1.7,37.46,0,23.13-1.8,45.12-5.71,65.08-3.16,16.65-7.71,31.41-13.76,44.13h88.66c10.99-34.14,15.03-71.55,15.03-110.4,0-61.01-9.93-118.47-41.15-165.3C700.84,30.51,653.3,0,584.49,0s-117.06,30.51-146.85,75.2c-31.21,46.82-41.15,104.29-41.15,165.3,0,38.85,4.04,76.26,15.02,110.4h89.32c-13.37-27.65-19.93-64.87-19.93-110.4Z"/>
  </g>
</svg>