<?xml version="1.0" encoding="UTF-8"?><svg id="Calque_1" xmlns="http://www.w3.org/2000/svg" viewBox="0 0 439.37 56.69"><path d="m12.6,37.3v12.41s-5.51,0-5.51,0v-31.75s12.08,0,12.08,0c6.24,0,10.37,4.12,10.37,9.68,0,5.6-4.14,9.67-10.38,9.67h-6.56Zm5.74-4.75c3.49,0,5.6-1.88,5.6-4.88,0-3.05-2.1-4.97-5.6-4.97h-5.73v9.85s5.73,0,5.73,0Z" fill="#1d1d1b"/><path d="m51.24,41.76h-13.77s-3.03,7.96-3.03,7.96h-5.83s12.67-31.75,12.67-31.75h6.38l12.65,31.76h-6.01l-3.07-7.97Zm-11.84-4.98h9.91s-4.95-12.98-4.95-12.98l-4.96,12.98Z" fill="#1d1d1b"/><path d="m74.28,37.19h-4.04s0,12.54,0,12.54h-5.55v-31.75s12.49,0,12.49,0c6.29,0,10.18,4.26,10.18,9.63,0,4.52-2.8,7.97-7.35,9.04l7.34,13.08h-6.24l-6.83-12.54Zm1.88-4.75c3.4,0,5.6-1.92,5.6-4.84,0-2.95-2.2-4.88-5.6-4.88h-5.92s0,9.72,0,9.72h5.92Z" fill="#1d1d1b"/><path d="m93.23,49.74v-31.75h5.61v31.75h-5.61Z" fill="#1d1d1b"/><path d="m123.07,26.96c-.32-1.97-2.01-4.88-6.37-4.88-3.3,0-5.6,2.15-5.6,4.57,0,2.02,1.29,3.54,3.81,4.07l4.68.94c5.74,1.12,8.81,4.66,8.81,9.14,0,4.93-4.09,9.63-11.52,9.62-8.26,0-12.07-5.2-12.57-9.77l5.14-1.43c.32,3.31,2.74,6.36,7.43,6.36,3.9,0,5.92-1.92,5.92-4.38,0-2.06-1.56-3.72-4.36-4.3l-4.58-.94c-4.96-.99-8.26-4.17-8.26-8.92,0-5.33,5.01-9.72,11.06-9.72,7.66,0,10.65,4.57,11.38,8.11l-4.96,1.52Z" fill="#1d1d1b"/><path d="m185.71,33.93c0-10.35,7.94-16.57,16.38-16.56,8.26,0,13.17,4.75,14.63,10.3l-5.18,1.7c-.96-3.85-3.99-6.94-9.45-6.94-5.37,0-10.74,3.8-10.74,11.5,0,7.43,5.22,11.38,10.77,11.38,5.46,0,8.58-3.4,9.69-6.99l5.05,1.62c-1.47,5.37-6.43,10.52-14.73,10.52-8.76,0-16.42-6.19-16.42-16.53Z" fill="#1d1d1b"/><path d="m236.65,17.38c8.53,0,16.56,6.15,16.56,16.54,0,10.44-8.04,16.56-16.57,16.56-8.54,0-16.51-6.14-16.51-16.58,0-10.39,7.99-16.52,16.52-16.52Zm-.01,27.99c5.51,0,10.92-3.8,10.93-11.46,0-7.66-5.41-11.47-10.91-11.47-5.46,0-10.88,3.8-10.88,11.46,0,7.66,5.4,11.47,10.87,11.47Z" fill="#1d1d1b"/><path d="m289.36,49.82v-23.38s-10.14,23.37-10.14,23.37h-4.77l-10.04-23.29v23.29s-5.37,0-5.37,0v-31.75s7.35,0,7.35,0l10.54,24.23,10.43-24.23h7.48s-.01,31.76-.01,31.76h-5.46Z" fill="#1d1d1b"/><path d="m315.4,23.14v26.69s-5.52,0-5.52,0v-26.69s-10.54,0-10.54,0v-5.06h26.66v5.07h-10.6Z" fill="#1d1d1b"/><path d="m330.49,49.84v-31.75s20.11,0,20.11,0v5.02h-14.59s0,8.42,0,8.42h13.22s0,4.89,0,4.89h-13.22s0,8.42,0,8.42h14.59s0,5.02,0,5.02h-20.1Z" fill="#1d1d1b"/><path d="m373.63,27.06c-.32-1.97-2.01-4.88-6.37-4.88-3.3,0-5.6,2.15-5.6,4.57,0,2.02,1.29,3.54,3.81,4.07l4.68.94c5.74,1.12,8.81,4.66,8.81,9.14,0,4.93-4.09,9.63-11.52,9.62-8.26,0-12.07-5.2-12.57-9.77l5.14-1.43c.32,3.31,2.74,6.36,7.43,6.36,3.9,0,5.92-1.92,5.92-4.38,0-2.06-1.56-3.72-4.36-4.3l-4.58-.94c-4.96-.99-8.26-4.17-8.26-8.92,0-5.33,5.01-9.72,11.06-9.72,7.66,0,10.65,4.57,11.38,8.11l-4.96,1.52Z" fill="#1d1d1b"/><path d="m401.12,27.07c-.32-1.97-2.01-4.88-6.37-4.88-3.3,0-5.6,2.15-5.6,4.56,0,2.02,1.29,3.54,3.81,4.08l4.68.94c5.74,1.12,8.81,4.66,8.81,9.14,0,4.93-4.09,9.63-11.52,9.62-8.26,0-12.07-5.2-12.57-9.77l5.14-1.43c.32,3.31,2.74,6.36,7.43,6.36,3.9,0,5.92-1.92,5.92-4.39,0-2.06-1.56-3.72-4.36-4.3l-4.58-.94c-4.96-.99-8.26-4.17-8.26-8.92,0-5.33,5.01-9.72,11.06-9.72,7.66,0,10.65,4.57,11.38,8.11l-4.96,1.52Z" fill="#1d1d1b"/><path d="m412.17,49.88v-31.75s20.11,0,20.11,0v5.02h-14.59s0,8.41,0,8.41h13.22s0,4.89,0,4.89h-13.22s0,8.42,0,8.42h14.59s0,5.02,0,5.02h-20.1Z" fill="#1d1d1b"/><path d="m147.81,25.98l6.86,6.86h-.01s3.92,3.93,3.92,3.93l3.88-3.88-5.83-5.83,4.87-4.86c2.54-2.54,4.53-8.13-.43-13.08-4.94-4.93-10.8-2.79-13.56-.15l-8.36,8.37,8.65,8.66h0Zm3.53-13.08c.9-.84,3.27-2.49,5.85.09,1.22,1.22,1.66,2.39,1.36,3.58-.24.92-.82,1.61-.93,1.75l-4.86,4.86-5.85-5.85,4.43-4.43Z" fill="#1d1d1b"/><polygon points="179.38 49.81 169.56 39.99 165.68 43.87 171.61 49.81 179.38 49.81" fill="#1d1d1b"/><path d="m173.72,24.87l-18.32,18.32c-2.83,2.82-5.85,1.49-6.18,1.33l-.23-.11c-1.12-.45-2.12-1.64-2.67-3.2-.68-1.89-.22-3.59,1.4-5.21l3.47-3.47-3.88-3.88-3.47,3.47c-3.14,3.13-4.09,7.02-2.69,10.93,1.08,3.02,3.16,5.35,5.68,6.4.6.3,2.25.99,4.55.99,2.07,0,5.12-.58,7.91-3.37l14.43-14.43v-7.76Z" fill="#1d1d1b"/></svg>