<?xml version="1.0" encoding="UTF-8"?><svg xmlns="http://www.w3.org/2000/svg" viewBox="0 0 439.37 76.54"><g id="Calque_1"><path d="m89.53,66.53c0-2.31,1.76-3.6,3.52-3.6,1.62,0,2.75.86,3.11,2.2l-.91.31c-.27-1.04-1.05-1.63-2.2-1.63-1.29,0-2.52.92-2.52,2.72,0,1.8,1.23,2.73,2.52,2.73,1.21,0,1.97-.71,2.26-1.66l.87.31c-.38,1.3-1.5,2.22-3.13,2.22-1.83,0-3.51-1.3-3.51-3.61Z" fill="#1d1d1b"/><path d="m105.82,62.94c1.78,0,3.55,1.29,3.55,3.6,0,2.31-1.78,3.61-3.56,3.6-1.78,0-3.55-1.3-3.55-3.61,0-2.31,1.78-3.6,3.56-3.6Zm0,6.33c1.32,0,2.56-.92,2.56-2.73,0-1.8-1.24-2.72-2.55-2.72s-2.56.92-2.56,2.72c0,1.8,1.24,2.73,2.55,2.73Z" fill="#1d1d1b"/><path d="m120.87,70l-3.82-5.63v5.63s-.98,0-.98,0v-6.91s1.31,0,1.31,0l3.53,5.3v-5.3s.98,0,.98,0v6.91s-1.02,0-1.02,0Z" fill="#1d1d1b"/><path d="m132.67,64.97c-.08-.5-.51-1.18-1.5-1.18-.8,0-1.37.51-1.37,1.15,0,.5.31.88.91,1.01l1.06.22c1.18.25,1.84.97,1.84,1.94,0,1.07-.94,2.05-2.45,2.05-1.71,0-2.52-1.07-2.64-2.06l.94-.29c.07.77.63,1.48,1.7,1.48.98,0,1.46-.5,1.46-1.1,0-.5-.35-.93-1.06-1.07l-1.01-.21c-1.01-.22-1.73-.86-1.73-1.89s1.03-2.06,2.34-2.06c1.6,0,2.23.97,2.39,1.72l-.88.3Z" fill="#1d1d1b"/><path d="m142.81,63.99v6.02h-.98v-6.02s-2.37,0-2.37,0v-.89s5.71,0,5.71,0v.89s-2.37,0-2.37,0Z" fill="#1d1d1b"/><path d="m153.57,67.19h-1.06s0,2.82,0,2.82h-.99v-6.91s2.67,0,2.67,0c1.34,0,2.16.92,2.16,2.06,0,.99-.65,1.76-1.72,1.96l1.69,2.89h-1.14l-1.62-2.83Zm.44-.86c.8,0,1.34-.46,1.34-1.17s-.54-1.2-1.34-1.2h-1.5s0,2.37,0,2.37h1.5Z" fill="#1d1d1b"/><path d="m162.96,67.66v-4.55h.97v4.52c0,1.05.59,1.65,1.57,1.65,1,0,1.57-.59,1.57-1.65v-4.52h.98v4.55c0,1.63-1.11,2.5-2.55,2.5-1.44,0-2.55-.88-2.54-2.5Z" fill="#1d1d1b"/><path d="m174.65,66.56c0-2.31,1.76-3.6,3.52-3.6,1.62,0,2.75.86,3.11,2.2l-.91.31c-.27-1.04-1.05-1.63-2.2-1.63-1.29,0-2.52.92-2.52,2.72,0,1.8,1.23,2.73,2.52,2.73,1.21,0,1.97-.71,2.26-1.66l.87.31c-.38,1.3-1.5,2.22-3.13,2.22-1.83,0-3.51-1.3-3.51-3.61Z" fill="#1d1d1b"/><path d="m190.43,64.01v6.02h-.98v-6.02s-2.37,0-2.37,0v-.89s5.71,0,5.71,0v.89h-2.37Z" fill="#1d1d1b"/><path d="m199.14,70.03v-6.91h1v6.91h-1Z" fill="#1d1d1b"/><path d="m210.4,62.98c1.78,0,3.55,1.29,3.55,3.6,0,2.31-1.78,3.61-3.56,3.6-1.78,0-3.55-1.3-3.55-3.61,0-2.31,1.78-3.6,3.56-3.6Zm0,6.33c1.32,0,2.56-.92,2.56-2.73,0-1.8-1.24-2.72-2.55-2.72-1.32,0-2.56.92-2.56,2.72,0,1.8,1.24,2.73,2.55,2.73Z" fill="#1d1d1b"/><path d="m225.45,70.05l-3.82-5.63v5.63s-.98,0-.98,0v-6.91s1.31,0,1.31,0l3.53,5.3v-5.3h.98v6.91h-1.02Z" fill="#1d1d1b"/><path d="m248.15,70.06v-5.38s-2.42,5.38-2.42,5.38h-.9l-2.39-5.38v5.38h-.97v-6.91h1.33l2.49,5.62,2.52-5.62h1.31s0,6.91,0,6.91h-.97Z" fill="#1d1d1b"/><path d="m256.26,70.06v-6.91s4.31,0,4.31,0v.89h-3.33v2.12h3.02v.9h-3.02v2.12s3.32,0,3.32,0v.89h-4.3Zm2.38-7.4h-.94l1.01-1.16h1.3l-1.37,1.16Z" fill="#1d1d1b"/><path d="m269.96,64.04v6.02h-.98v-6.02s-2.37,0-2.37,0v-.89s5.71,0,5.71,0v.89s-2.37,0-2.37,0Z" fill="#1d1d1b"/><path d="m282.16,68.14h-3.13s-.75,1.93-.75,1.93h-1.05l2.82-6.91h1.13l2.81,6.91h-1.06l-.77-1.93Zm-2.79-.89h2.44s-1.23-3.1-1.23-3.1l-1.21,3.1Z" fill="#1d1d1b"/><path d="m290.34,70.07v-6.91h.98v6.01s3.34,0,3.34,0v.9h-4.32Z" fill="#1d1d1b"/><path d="m301.16,70.08v-6.91h.98v6.01s3.34,0,3.34,0v.9h-4.32Z" fill="#1d1d1b"/><path d="m311.98,70.08v-6.91h1v6.91h-1Z" fill="#1d1d1b"/><path d="m323.25,63.03c1.78,0,3.55,1.29,3.55,3.6,0,1.09-.4,1.95-1,2.55l.83.91-.67.57-.86-.93c-.56.33-1.21.5-1.86.5-1.78,0-3.55-1.3-3.55-3.61,0-2.31,1.78-3.6,3.56-3.6Zm0,6.33c.44,0,.86-.1,1.24-.3l-1.23-1.35.68-.57,1.24,1.37c.38-.45.63-1.07.63-1.87,0-1.8-1.24-2.72-2.55-2.72s-2.56.92-2.56,2.72c0,1.8,1.24,2.73,2.55,2.73Z" fill="#1d1d1b"/><path d="m333.4,67.73v-4.55s.97,0,.97,0v4.52c0,1.05.58,1.65,1.57,1.65s1.57-.6,1.57-1.65v-4.52h.98v4.55c0,1.63-1.11,2.5-2.55,2.5s-2.55-.88-2.54-2.51Z" fill="#1d1d1b"/><path d="m345.53,70.1v-6.91s4.31,0,4.31,0v.89s-3.33,0-3.33,0v2.12h3.02v.9h-3.02s0,2.11,0,2.11h3.33v.89h-4.3Z" fill="#1d1d1b"/><path d="m12.6,37.02v12.41s-5.51,0-5.51,0v-31.75s12.08,0,12.08,0c6.24,0,10.37,4.12,10.37,9.68,0,5.6-4.14,9.67-10.38,9.67h-6.56Zm5.74-4.75c3.49,0,5.6-1.88,5.6-4.88,0-3.05-2.1-4.97-5.6-4.97h-5.73v9.85s5.73,0,5.73,0Z" fill="#1d1d1b"/><path d="m51.24,41.47h-13.77s-3.03,7.96-3.03,7.96h-5.83s12.67-31.75,12.67-31.75h6.38l12.65,31.76h-6.01l-3.07-7.97Zm-11.84-4.98h9.91s-4.95-12.98-4.95-12.98l-4.96,12.98Z" fill="#1d1d1b"/><path d="m74.28,36.91h-4.04s0,12.54,0,12.54h-5.55v-31.75s12.49,0,12.49,0c6.29,0,10.18,4.26,10.18,9.63,0,4.52-2.8,7.97-7.35,9.04l7.34,13.08h-6.24l-6.83-12.54Zm1.88-4.75c3.4,0,5.6-1.92,5.6-4.84,0-2.95-2.2-4.88-5.6-4.88h-5.92s0,9.72,0,9.72h5.92Z" fill="#1d1d1b"/><path d="m93.23,49.46v-31.75h5.61v31.75h-5.61Z" fill="#1d1d1b"/><path d="m123.07,26.68c-.32-1.97-2.01-4.88-6.37-4.88-3.3,0-5.6,2.15-5.6,4.57,0,2.02,1.29,3.54,3.81,4.07l4.68.94c5.74,1.12,8.81,4.66,8.81,9.14,0,4.93-4.09,9.63-11.52,9.62-8.26,0-12.07-5.2-12.57-9.77l5.14-1.43c.32,3.31,2.74,6.36,7.43,6.36,3.9,0,5.92-1.92,5.92-4.38,0-2.06-1.56-3.72-4.36-4.3l-4.58-.94c-4.96-.99-8.26-4.17-8.26-8.92,0-5.33,5.01-9.72,11.06-9.72,7.66,0,10.65,4.57,11.38,8.11l-4.96,1.52Z" fill="#1d1d1b"/><path d="m185.71,33.65c0-10.35,7.94-16.57,16.38-16.56,8.26,0,13.17,4.75,14.63,10.3l-5.18,1.7c-.96-3.85-3.99-6.94-9.45-6.94-5.37,0-10.74,3.8-10.74,11.5,0,7.43,5.22,11.38,10.77,11.38,5.46,0,8.58-3.4,9.69-6.99l5.05,1.62c-1.47,5.37-6.43,10.52-14.73,10.52-8.76,0-16.42-6.19-16.42-16.53Z" fill="#1d1d1b"/><path d="m236.65,17.09c8.53,0,16.56,6.15,16.56,16.54,0,10.44-8.04,16.56-16.57,16.56-8.54,0-16.51-6.14-16.51-16.58,0-10.39,7.99-16.52,16.52-16.52Zm-.01,27.99c5.51,0,10.92-3.8,10.93-11.46,0-7.66-5.41-11.47-10.91-11.47-5.46,0-10.88,3.8-10.88,11.46,0,7.66,5.4,11.47,10.87,11.47Z" fill="#1d1d1b"/><path d="m289.36,49.54v-23.38s-10.14,23.37-10.14,23.37h-4.77l-10.04-23.29v23.29s-5.37,0-5.37,0v-31.75s7.35,0,7.35,0l10.54,24.23,10.43-24.23h7.48s-.01,31.76-.01,31.76h-5.46Z" fill="#1d1d1b"/><path d="m315.4,22.86v26.69s-5.52,0-5.52,0v-26.69s-10.54,0-10.54,0v-5.06h26.66v5.07h-10.6Z" fill="#1d1d1b"/><path d="m330.49,49.56v-31.75s20.11,0,20.11,0v5.02h-14.59s0,8.42,0,8.42h13.22s0,4.89,0,4.89h-13.22s0,8.42,0,8.42h14.59s0,5.02,0,5.02h-20.1Z" fill="#1d1d1b"/><path d="m373.63,26.78c-.32-1.97-2.01-4.88-6.37-4.88-3.3,0-5.6,2.15-5.6,4.57,0,2.02,1.29,3.54,3.81,4.07l4.68.94c5.74,1.12,8.81,4.66,8.81,9.14,0,4.93-4.09,9.63-11.52,9.62-8.26,0-12.07-5.2-12.57-9.77l5.14-1.43c.32,3.31,2.74,6.36,7.43,6.36,3.9,0,5.92-1.92,5.92-4.38,0-2.06-1.56-3.72-4.36-4.3l-4.58-.94c-4.96-.99-8.26-4.17-8.26-8.92,0-5.33,5.01-9.72,11.06-9.72,7.66,0,10.65,4.57,11.38,8.11l-4.96,1.52Z" fill="#1d1d1b"/><path d="m401.12,26.79c-.32-1.97-2.01-4.88-6.37-4.88-3.3,0-5.6,2.15-5.6,4.56,0,2.02,1.29,3.54,3.81,4.08l4.68.94c5.74,1.12,8.81,4.66,8.81,9.14,0,4.93-4.09,9.63-11.52,9.62-8.26,0-12.07-5.2-12.57-9.77l5.14-1.43c.32,3.31,2.74,6.36,7.43,6.36,3.9,0,5.92-1.92,5.92-4.39,0-2.06-1.56-3.72-4.36-4.3l-4.58-.94c-4.96-.99-8.26-4.17-8.26-8.92,0-5.33,5.01-9.72,11.06-9.72,7.66,0,10.65,4.57,11.38,8.11l-4.96,1.52Z" fill="#1d1d1b"/><path d="m412.17,49.59v-31.75s20.11,0,20.11,0v5.02h-14.59s0,8.41,0,8.41h13.22s0,4.89,0,4.89h-13.22s0,8.42,0,8.42h14.59s0,5.02,0,5.02h-20.1Z" fill="#1d1d1b"/></g><g id="Calque_2"><polygon points="179.38 49.53 169.56 39.7 165.68 43.59 171.61 49.53 179.38 49.53" fill="#fdc303"/><path d="m173.72,24.58l-18.32,18.32c-2.83,2.82-5.85,1.49-6.18,1.33l-.23-.11c-1.12-.45-2.12-1.64-2.67-3.2-.68-1.89-.22-3.59,1.4-5.21l3.47-3.47-3.88-3.88-3.47,3.47c-3.14,3.13-4.09,7.02-2.69,10.93,1.08,3.02,3.16,5.35,5.68,6.4.6.3,2.25.99,4.55.99,2.07,0,5.12-.58,7.91-3.37l14.43-14.43v-7.76Z" fill="#fdc303"/><path d="m161.51,21.92c2.54-2.54,4.53-8.13-.43-13.08-4.94-4.93-10.8-2.79-13.56-.15l-6.01,6.02v4.7l6.3,6.3h0s6.86,6.86,6.86,6.86h-.01s3.92,3.93,3.92,3.93l3.88-3.88-5.83-5.83,4.86-4.86Zm-8.75.98l-5.85-5.85,4.43-4.43c.9-.84,3.27-2.49,5.85.09,1.22,1.22,1.66,2.39,1.36,3.58-.24.92-.82,1.61-.93,1.75l-4.86,4.86Z" fill="#fdc303"/></g></svg>