<svg width="106" height="91" viewBox="0 0 106 91" fill="none" xmlns="http://www.w3.org/2000/svg">
<path fill-rule="evenodd" clip-rule="evenodd" d="M50.8479 23.8193C55.1122 22.8084 59.3575 25.4132 60.3748 29.6372C61.3922 33.8676 58.781 38.0832 54.523 39.0942C50.2587 40.103 46.0198 37.5046 45.0025 33.2827C43.9873 29.0522 46.5815 24.8261 50.8479 23.8172V23.8193ZM50.2651 21.3947C44.7015 22.713 41.2468 28.3126 42.5863 33.8549C43.9195 39.4036 49.5381 42.8392 55.108 41.5209C60.6715 40.2026 64.1347 34.6115 62.7931 29.0692C61.46 23.5163 55.8286 20.0764 50.2651 21.3947Z" fill="#B89435" stroke="#B89435" stroke-width="0.5"/>
<path fill-rule="evenodd" clip-rule="evenodd" d="M33.969 22.1642C36.01 22.2405 37.3643 24.1205 36.8408 26.0937C34.7044 34.156 37.6928 41.4384 44.4729 45.8617C50.3099 49.6746 56.2655 49.6746 62.0982 45.8617C68.8699 41.4342 71.8625 34.1581 69.7282 26.0937C69.2068 24.1226 70.5612 22.2405 72.6001 22.1642C74.0837 22.1091 75.366 23.0989 75.7453 24.5465C78.3417 34.6223 74.8933 45.2831 66.9539 51.7178C66.7483 51.8915 66.6021 52.1183 66.5342 52.3769L62.5179 68.3066C62.147 69.7691 61.0873 71.0195 59.3641 71.755C55.4411 73.4166 50.916 73.5671 47.207 71.755C45.5242 70.9305 44.4263 69.7712 44.0533 68.3066L40.0369 52.3769C39.9691 52.1162 39.8165 51.8831 39.6088 51.7178C31.6694 45.2831 28.2274 34.6244 30.8322 24.5465C31.2031 23.0989 32.4896 22.1091 33.969 22.1642ZM34.0665 19.6717C31.4087 19.5742 29.0667 21.3758 28.4054 23.9233C25.6311 34.6944 29.3359 45.9719 37.6441 53.0742L41.6435 68.9213C42.2263 71.2336 43.9176 73.0351 46.0858 73.9825C50.7422 76.0151 56.1638 76.0977 60.4832 73.9825C62.6111 72.9376 64.3427 71.2336 64.9256 68.9213L68.9228 53.0742C77.2353 45.9719 80.9359 34.6944 78.1615 23.9233C77.5087 21.3758 75.1604 19.5742 72.5068 19.6717C68.9292 19.8095 66.4092 23.2833 67.3142 26.7189C69.2238 33.9081 66.7737 39.8298 60.7354 43.772C55.5025 47.197 51.0771 47.197 45.8315 43.772C39.7932 39.8298 37.3452 33.9081 39.2506 26.7189C40.1662 23.2833 37.6377 19.8074 34.0665 19.6717Z" fill="#B89435" stroke="#B89435" stroke-width="0.5"/>
<path d="M38.9578 84.1602C37.5017 86.4958 35.5052 88.0409 33.1272 88.3164C30.8255 88.5835 28.155 87.5195 25.4633 85.417C27.9006 84.2852 30.1409 83.0962 32.5994 82.8207C35.0516 82.5409 36.796 83.0432 38.9578 84.1602ZM18.414 72.3104C20.9531 72.5668 22.8097 73.7262 24.9313 76.1805C22.7144 77.8146 20.2876 78.5098 17.9816 77.8824C15.7414 77.2784 13.6559 75.3009 11.937 72.3485C13.9505 72.2341 15.8728 72.0518 18.4161 72.3104H18.414ZM4.35361 54.8801C6.87999 55.7935 9.31311 56.5375 10.8794 57.5378C12.5686 58.623 13.8169 60.4224 14.8088 63.5062C12.1299 64.1399 9.62467 63.822 7.74684 62.3447C5.92836 60.9099 4.77962 58.2733 4.35573 54.8801H4.35361ZM3.59061 35.9237C5.60408 37.7104 7.58364 39.2958 8.66032 40.8133C9.82814 42.441 10.322 44.5796 10.0952 47.8138C7.3717 47.4005 5.16536 46.1797 3.96999 44.1112C2.81701 42.0998 2.72588 39.228 3.59061 35.9259V35.9237ZM10.6039 17.7559C11.6551 20.2356 12.7699 22.5161 13.0984 24.3495C13.4566 26.3205 12.9882 28.4654 11.4029 31.2864C9.11812 29.754 7.63875 27.7067 7.44588 25.3244C7.25937 23.0163 8.40599 20.3797 10.6039 17.7559ZM22.583 3.98371C22.9199 6.64785 23.1679 9.14456 22.9878 10.997C22.797 12.9956 21.9726 14.9328 19.6793 17.2196C17.8926 15.1256 17.0279 12.7561 17.4857 10.4056C17.9329 8.13146 19.7514 5.90605 22.583 3.98159V3.98371ZM22.9115 0.808782C18.5306 3.17196 15.894 6.42743 15.2073 9.95631C14.5799 13.1228 15.5718 16.374 17.899 18.9957C16.9219 20.3776 16.036 21.7976 15.2412 23.2685C14.635 20.6786 13.3782 18.2391 12.0811 15.0599C11.7441 14.2418 10.6929 14.0235 10.0613 14.6148C6.42643 18.0208 4.83472 21.9291 5.12297 25.5088C5.41121 29.0801 7.63663 32.219 11.1803 34.0819C10.7988 35.7648 10.5212 37.4625 10.3432 39.1792C8.67516 36.9686 6.40947 35.2773 3.77712 32.8527C3.09042 32.2147 2.07309 32.522 1.76365 33.3062C-0.0484766 37.9393 0.15499 42.1592 1.94804 45.2705C3.67327 48.2674 6.85879 50.1134 10.6717 50.3932C10.9472 52.0697 11.3266 53.7313 11.8056 55.3802C9.43604 53.9687 6.73587 53.1824 3.39138 51.9616C2.3465 51.5822 1.66615 52.2647 1.68735 53.1358C1.79756 58.108 3.4804 61.9484 6.3035 64.1717C9.02487 66.3229 12.6767 66.8507 16.3306 65.685C17.2292 67.1622 18.2105 68.5738 19.283 69.9302C16.4535 69.4682 13.5901 70.0065 9.9002 70.0468C8.93161 70.0532 8.44414 71.0239 8.78749 71.7911C10.8264 76.331 13.9038 79.188 17.367 80.1311C20.7051 81.0361 24.2637 80.0951 27.1546 77.609C28.5301 78.6327 29.9565 79.5737 31.4401 80.4321C28.6234 81.051 26.1309 82.5685 22.7186 84.0309C21.839 84.4103 21.6885 85.4128 22.3329 86.0656C25.8363 89.6008 29.8272 91.0463 33.39 90.633C36.8299 90.2366 39.7992 88.0367 41.5647 84.6371C42.8003 84.9741 44.0445 85.2687 45.3204 85.4933C46.9905 85.8218 47.4313 83.2891 45.7485 83.0348C32.0314 80.6228 20.5483 71.2697 15.4171 58.3199C10.3474 45.5524 12.1892 30.7544 20.2304 20.0004C22.2693 17.2769 25.0818 15.3461 25.5057 11.2237C25.8088 8.33917 25.0987 5.50335 24.73 1.78585C24.6346 0.840573 23.6448 0.414565 22.9093 0.810901L22.9115 0.808782Z" fill="#B89435" stroke="#B89435" stroke-width="0.5"/>
<path d="M67.0425 84.1602C68.4986 86.4958 70.4909 88.0409 72.8668 88.3164C75.1748 88.5835 77.839 87.5195 80.5307 85.417C78.0933 84.2852 75.8552 83.0962 73.4009 82.8207C70.9487 82.5409 69.198 83.0432 67.0404 84.1602H67.0425ZM87.5884 72.3104C85.0366 72.5668 83.1842 73.7262 81.0626 76.1805C83.2796 77.8146 85.7106 78.5098 88.0208 77.8824C90.2526 77.2784 92.3402 75.3009 94.0654 72.3485C92.0541 72.2341 90.1296 72.0518 87.5905 72.3104H87.5884ZM101.64 54.8779C99.1118 55.7914 96.6872 56.5353 95.1146 57.5357C93.4254 58.6209 92.1813 60.4203 91.1851 63.5041C93.8726 64.1378 96.3735 63.8199 98.2535 62.3426C100.07 60.9078 101.223 58.2712 101.64 54.8779ZM102.403 35.9216C100.398 37.7083 98.4209 39.2937 97.3358 40.8112C96.1679 42.4389 95.6783 44.5774 95.9051 47.8117C98.6265 47.3984 100.837 46.1776 102.026 44.109C103.188 42.0977 103.27 39.2258 102.401 35.9237L102.403 35.9216ZM95.3986 17.7537C94.3473 20.2335 93.2367 22.514 92.8976 24.3473C92.5394 26.3184 93.0078 28.4633 94.5932 31.2843C96.8801 29.7519 98.3594 27.7045 98.5565 25.3223C98.7431 23.0142 97.5901 20.3776 95.3986 17.7537ZM83.4195 3.98371C83.0825 6.64785 82.8345 9.14456 83.0125 10.997C83.1991 12.9956 84.0235 14.9328 86.3168 17.2196C88.1034 15.1256 88.9682 12.7561 88.5083 10.4056C88.0632 8.13146 86.2447 5.90605 83.4195 3.98159V3.98371ZM83.091 0.808782C87.4655 3.17196 90.1021 6.42743 90.7973 9.95631C91.414 13.1228 90.4264 16.374 88.1056 18.9957C89.0805 20.3776 89.9664 21.7976 90.7549 23.2685C91.361 20.6786 92.6179 18.2391 93.9234 15.0599C94.252 14.2418 95.3117 14.0235 95.9433 14.6148C99.5696 18.0208 101.17 21.9291 100.873 25.5088C100.585 29.0801 98.3679 32.219 94.8221 34.0819C95.2015 35.7648 95.4812 37.4625 95.6593 39.1792C97.3294 36.9686 99.5887 35.2773 102.221 32.8527C102.914 32.2147 103.934 32.522 104.241 33.3062C106.049 37.9393 105.843 42.1592 104.05 45.2705C102.327 48.2674 99.1458 50.1134 95.335 50.3932C95.0616 52.0697 94.6822 53.7313 94.2011 55.3802C96.5643 53.9687 99.2729 53.1824 102.617 51.9616C103.658 51.5822 104.341 52.2647 104.319 53.1358C104.203 58.108 102.52 61.9484 99.7032 64.1717C96.9818 66.3229 93.33 66.8507 89.6761 65.685C88.7753 67.1622 87.7877 68.5738 86.7237 69.9302C89.5532 69.4682 92.4102 70.0065 96.1044 70.0468C97.0729 70.0532 97.5625 71.0239 97.2086 71.7911C95.1697 76.331 92.1007 79.188 88.6291 80.1311C85.2994 81.0361 81.7409 80.0951 78.8415 77.609C77.4744 78.6327 76.0459 79.5737 74.556 80.4321C77.3791 81.051 79.863 82.5685 83.2838 84.0309C84.1634 84.4103 84.3075 85.4128 83.6632 86.0656C80.1661 89.6008 76.1752 91.0463 72.6061 90.633C69.1662 90.2366 66.199 88.0367 64.4398 84.6371C63.2021 84.9741 61.9537 85.2687 60.6821 85.4933C59.0141 85.8218 58.5669 83.2891 60.2582 83.0348C73.9752 80.6228 85.452 71.2697 90.5896 58.3199C95.6529 45.5524 93.8175 30.7544 85.7742 20.0004C83.7353 17.2769 80.9206 15.3461 80.4946 11.2237C80.2 8.33917 80.8995 5.50335 81.2767 1.78585C81.3636 0.840573 82.3513 0.414565 83.0952 0.810901L83.091 0.808782Z" fill="#B89435" stroke="#B89435" stroke-width="0.5"/>
</svg>
