<?xml version="1.0" encoding="UTF-8"?><svg id="Calque_1" xmlns="http://www.w3.org/2000/svg" viewBox="0 0 800 800"><path d="m583.5,322.07v-71.78h7.54c4.92,0,8.88-3.97,8.88-8.88s-3.97-8.88-8.88-8.88h-14.04c-.08-.08-.16-.16-.24-.24-4.05-3.73-9.44-5.79-15.15-5.79-1.43,0-2.78.16-4.12.4,0-11.42-9.84-20.7-21.89-20.7-3.17,0-6.19.63-8.88,1.82-.63-.71-1.27-1.51-1.98-2.22-4.12-3.73-9.44-5.79-15.15-5.79-8.88,0-16.58,5.08-19.99,12.37-1.98-.56-3.97-.87-6.03-.87-12.06,0-21.89,9.28-21.89,20.7v.32h-98.83c-.16,0-.32.08-.48.08-6.27-5.79-13.4-10.07-21.1-12.77v-10.87c0-4.92-3.97-8.88-8.88-8.88s-8.88,3.97-8.88,8.88v7.61c-.48,0-.95-.08-1.51-.08h-71.7v-7.54c0-4.92-3.97-8.88-8.88-8.88s-8.88,3.97-8.88,8.88v14.04c-.08.08-.16.16-.24.24-3.73,4.05-5.79,9.44-5.79,15.15,0,1.43.16,2.78.4,4.12-5.55,0-10.95,2.46-14.91,6.74-3.73,4.12-5.79,9.52-5.79,15.15,0,3.17.71,6.11,1.82,8.88-.79.63-1.51,1.27-2.22,1.98-3.73,4.12-5.79,9.52-5.79,15.15,0,8.88,5.08,16.58,12.37,19.99-.56,1.9-.87,3.97-.87,6.03,0,12.06,9.28,21.89,20.7,21.89h.32v98.83c0,.16.08.32.08.48-5.79,6.27-10.07,13.4-12.77,21.1h-10.87c-4.92,0-8.88,3.97-8.88,8.88s3.97,8.88,8.88,8.88h7.61c0,.48-.08.95-.08,1.51h0v71.7h-7.54c-4.92,0-8.88,3.97-8.88,8.88s3.97,8.88,8.88,8.88h14.04c.08.08.16.16.24.24,4.05,3.73,9.44,5.79,15.15,5.79,1.43,0,2.78-.16,4.12-.4,0,11.42,9.84,20.7,21.89,20.7,3.17,0,6.19-.63,8.88-1.82.63.71,1.27,1.51,1.98,2.22,4.12,3.73,9.44,5.79,15.15,5.79,8.88,0,16.58-5.08,19.99-12.37,1.98.56,3.97.87,6.03.87,12.06,0,21.89-9.28,21.89-20.7v-.32h98.83c.16,0,.32-.08.48-.08,6.27,5.79,13.4,10.07,21.1,12.77v10.87c0,4.92,3.97,8.88,8.88,8.88s8.88-3.97,8.88-8.88v-7.61c.48,0,.95.08,1.51.08h71.7v7.54c0,4.92,3.97,8.88,8.88,8.88s8.88-3.97,8.88-8.88v-14.04c.08-.08.16-.16.24-.24,3.73-4.05,5.79-9.44,5.79-15.15,0-1.43-.16-2.78-.4-4.12,11.42,0,20.7-9.84,20.7-21.89,0-3.17-.63-6.19-1.82-8.88.71-.63,1.51-1.27,2.22-1.98,3.73-4.12,5.79-9.44,5.79-15.15,0-8.88-5.08-16.58-12.37-19.99.56-1.9.87-3.97.87-6.03,0-12.06-9.28-21.89-20.78-21.89h-.24v-98.83c0-.16-.08-.32-.08-.48,5.79-6.27,10.07-13.4,12.77-21.1h10.87c4.92,0,8.88-3.97,8.88-8.88s-3.97-8.88-8.88-8.88h-7.61c0-.48.08-.95.08-1.43h0Zm-103.99-89.79c0-1.43,1.67-2.93,4.12-2.93,1.27,0,2.38.4,3.17,1.11.4.4.87,1.03.87,1.82v49.1c0,4.92,3.97,8.88,8.88,8.88s8.88-3.97,8.88-8.88v-60.6c0-1.43,1.67-2.93,4.12-2.93,1.27,0,2.38.4,3.17,1.11.4.4.95,1.03.95,1.82v6.19c0,.4.08.71.08,1.11v53.3c0,4.92,3.97,8.88,8.88,8.88s8.88-3.97,8.88-8.88v-54.81c.32-1.27,1.82-2.54,4.05-2.54,2.46,0,4.12,1.59,4.12,2.93v58.3c0,4.92,3.97,8.88,8.88,8.88s8.88-3.97,8.88-8.88v-38.07c0-1.43,1.67-2.93,4.12-2.93,1.27,0,2.38.4,3.25,1.19.4.4.87.95.87,1.74v74.8c0,2.78-.32,5.55-.87,8.25-.08.24-.08.48-.16.79-1.98,8.49-6.66,16.34-13.8,22.68-.08.08-.24.16-.32.32h-80.82c-8.8-8.57-13.88-20.54-13.88-33.95v-38.79c0-1.43,1.9-2.93,4.36-2.93.48,0,.95.08,1.43.16v28.55c0,4.92,3.97,8.88,8.88,8.88s8.88-3.97,8.88-8.88l.08-74.8h0Zm-47.51,226.37h-73.53c-3.33-10.31-9.2-19.43-17.13-26.73v-73.53c10.31-3.33,19.43-9.2,26.73-17.13h73.53c3.33,10.31,9.2,19.43,17.13,26.73v73.53c-10.31,3.33-19.43,9.12-26.73,17.13Zm29.74-208.37v10.31c-.48,0-.95-.08-1.43-.08-12.21,0-22.13,9.28-22.13,20.7v38.79c0,1.19.16,2.3.16,3.49h-65.52c-.32-.32-.63-.71-1.03-.95v-72.26h89.95Zm-232.4,66.07c0-1.27.4-2.38,1.11-3.17.4-.4.95-.87,1.74-.87h49.18c4.92,0,8.88-3.97,8.88-8.88s-3.97-8.88-8.88-8.88h-60.6c-1.43,0-2.93-1.67-2.93-4.12,0-1.67.71-2.78,1.19-3.25.32-.32.95-.87,1.74-.87h6.19c.32,0,.56-.08.87-.08h53.54c4.92,0,8.88-3.97,8.88-8.88s-3.97-8.88-8.88-8.88h-54.81c-1.27-.24-2.54-1.82-2.54-3.97,0-1.67.71-2.78,1.11-3.17.32-.4,1.03-.95,1.9-.95h58.22c4.92,0,8.88-3.97,8.88-8.88s-3.97-8.88-8.88-8.88h-34.82v-8.33h71.7c2.78,0,5.55.32,8.25.87.24.08.48.08.79.16,8.49,1.98,16.34,6.66,22.68,13.8.08.08.16.24.32.32v80.75c-8.57,8.8-20.54,13.88-33.95,13.88h-38.79c-1.43,0-2.93-1.9-2.93-4.36,0-.48.08-.95.16-1.43h28.55c4.92,0,8.88-3.97,8.88-8.88s-3.97-8.88-8.88-8.88h-74.8c-1.51,0-3.09-1.67-3.09-4.12h0Zm31.41,21.89c0,.48-.08.95-.08,1.43,0,12.21,9.28,22.13,20.7,22.13h38.79c1.19,0,2.3-.16,3.49-.16v65.52c-.32.32-.63.63-.95,1.03h-72.26v-89.95h10.31Zm59.81,229.39c0,1.43-1.67,2.93-4.12,2.93-1.27,0-2.38-.4-3.17-1.11-.4-.4-.87-1.03-.87-1.82v-49.1c0-4.92-3.97-8.88-8.88-8.88s-8.88,3.97-8.88,8.88v60.6c0,1.43-1.67,2.93-4.12,2.93-1.27,0-2.38-.4-3.17-1.11-.4-.4-.95-1.03-.95-1.82v-6.19c0-.4-.08-.71-.08-1.11v-53.3c0-4.92-3.97-8.88-8.88-8.88s-8.88,3.97-8.88,8.88v54.81c-.32,1.27-1.82,2.54-4.05,2.54-2.46,0-4.12-1.59-4.12-2.93v-58.3c0-4.92-3.97-8.88-8.88-8.88s-8.88,3.97-8.88,8.88v37.91c0,1.43-1.67,2.93-4.12,2.93-1.27,0-2.38-.4-3.25-1.19-.4-.4-.87-.95-.87-1.75v-74.8c0-2.78.32-5.55.87-8.25.08-.24.08-.48.16-.79,1.98-8.49,6.66-16.34,13.8-22.68.08-.08.24-.16.32-.32h80.75c8.8,8.57,13.88,20.54,13.88,33.95v38.79c0,1.43-1.9,2.93-4.36,2.93-.48,0-.95-.08-1.43-.16v-28.55c0-4.92-3.97-8.88-8.88-8.88s-8.88,3.97-8.88,8.88v74.96h0Zm17.77-18.01v-10.31c.48,0,.95.08,1.43.08,12.21,0,22.13-9.28,22.13-20.7v-38.79c0-1.19-.16-2.3-.16-3.49h65.52c.32.32.63.71,1.03.95v72.18l-89.95.08Zm232.32-66.07c0,1.67-.71,2.78-1.11,3.17-.32.32-.95.95-1.9.95h-49.1c-4.92,0-8.88,3.97-8.88,8.88s3.97,8.88,8.88,8.88h60.6c1.43,0,2.93,1.67,2.93,4.12,0,1.27-.4,2.38-1.11,3.17-.4.4-1.03.95-1.82.95h-6.19c-.4,0-.71.08-1.11.08h-53.3c-4.92,0-8.88,3.97-8.88,8.88s3.97,8.88,8.88,8.88h54.81c1.27.32,2.54,1.82,2.54,4.05,0,2.46-1.59,4.12-2.93,4.12h-58.3c-4.92,0-8.88,3.97-8.88,8.88s3.97,8.88,8.88,8.88h37.91c1.43,0,2.93,1.67,2.93,4.12,0,1.27-.4,2.38-1.19,3.25-.4.4-.95.87-1.75.87h-74.8c-2.78,0-5.55-.32-8.25-.87-.24-.08-.48-.08-.79-.16-8.49-1.98-16.34-6.66-22.68-13.8-.08-.08-.16-.24-.32-.32v-80.9c8.57-8.8,20.54-13.88,33.95-13.88h38.79c1.43,0,2.93,1.9,2.93,4.36,0,.48-.08.95-.16,1.43h-28.55c-4.92,0-8.88,3.97-8.88,8.88s3.97,8.88,8.88,8.88h74.8c1.82.08,3.17,1.98,3.17,4.2h0Zm-31.33-21.89c0-.48.08-.95.08-1.43,0-12.21-9.28-22.13-20.7-22.13h-38.79c-1.19,0-2.3.16-3.49.16v-65.44c.32-.32.63-.71.95-1.11h72.26v89.87l-10.31.08Z" fill="#a88d44" stroke="#fff" stroke-miterlimit="10" stroke-width="2"/></svg>