<?xml version="1.0" encoding="UTF-8"?><svg id="Calque_1" xmlns="http://www.w3.org/2000/svg" viewBox="0 0 800 800"><path d="m400.16,200c-1.19,0-2.38.43-3.46,1.19l-32.02,21.74-37.64-8c-2.38-.43-4.87.54-6.27,2.7l-21.2,32.34-37.64,7.03h0c-2.49.43-4.43,2.38-4.87,4.98l-7.03,37.64-32.34,21.2c-2.06,1.3-3.14,3.79-2.6,6.27l8,37.64-21.74,32.02c-1.3,2.06-1.3,4.65,0,6.6l21.74,32.02-8,37.64h0c-.43,2.38.54,4.87,2.6,6.27l32.34,21.2,7.03,37.64c.43,2.49,2.38,4.43,4.87,4.98l37.64,7.03,21.2,32.34h0c1.3,2.06,3.79,3.14,6.27,2.6l37.64-8,32.02,21.74h0c.97.76,2.16,1.08,3.46,1.19,1.19,0,2.38-.43,3.35-1.19l32.02-21.74,37.43,8h0c2.38.43,4.87-.54,6.27-2.6l21.2-32.34,37.64-7.03h0c2.49-.43,4.43-2.38,4.87-4.98l7.03-37.64,32.34-21.2c2.06-1.3,3.14-3.79,2.6-6.27l-8-37.64,21.74-32.02h0c1.3-2.06,1.3-4.65,0-6.6l-21.74-32.02,8-37.64c.43-2.38-.54-4.87-2.6-6.27l-32.34-21.2-7.03-37.64c-.43-2.49-2.38-4.43-4.87-4.98l-37.64-7.03-21.2-32.34h0c-1.3-2.06-3.79-3.14-6.27-2.7l-37.43,8-32.02-21.74c-.97-.76-2.16-1.19-3.35-1.19h0Zm0,13.41l30.5,20.77h0c1.41.97,3.14,1.3,4.76.97l35.91-7.36,20.23,30.83c.87,1.41,2.38,2.38,4,2.6l36.34,6.81,6.81,36.34h0c.32,1.62,1.3,3.03,2.6,4l30.83,20.23-7.36,36.13h0c-.32,1.62,0,3.35.97,4.76l20.77,30.5-20.77,30.29c-.97,1.41-1.3,3.14-.97,4.76l7.36,36.13-30.83,20.23h0c-1.41.87-2.38,2.38-2.6,4l-6.81,36.34-36.34,6.81h0c-1.62.32-3.03,1.3-4,2.7l-20.23,30.83-35.91-7.36c-1.62-.32-3.35,0-4.76.97l-30.5,20.77-30.5-20.77h0c-1.41-.97-3.14-1.3-4.76-.97l-36.13,7.36-20.23-30.83c-.87-1.41-2.38-2.38-4-2.7l-36.34-6.81-6.81-36.34h0c-.32-1.62-1.3-3.03-2.6-4l-30.83-20.23,7.36-36.13h0c.32-1.62,0-3.35-.97-4.76l-20.77-30.29,20.77-30.5c.97-1.41,1.3-3.14.97-4.76l-7.36-36.13,30.83-20.23h0c1.41-.87,2.38-2.38,2.6-4l6.81-36.34,36.34-6.81h0c1.62-.32,3.03-1.3,4-2.6l20.23-30.83,36.13,7.36c1.62.32,3.35,0,4.76-.97l30.5-20.77Zm0,47.38c-76.91,0-139.32,62.41-139.32,139.32s62.41,139.32,139.32,139.32,139.32-62.41,139.32-139.32c0-76.91-62.41-139.32-139.32-139.32h0Zm0,12.11c70.31,0,127.2,56.9,127.2,127.2s-56.9,127.2-127.2,127.2-127.2-56.9-127.2-127.2,56.9-127.2,127.2-127.2Zm63.06,66.63l-78.75,84.05-41.21-36.67-24.23,27.04,54.52,48.46,13.2,11.79,12.11-12.87,90.86-96.92-26.5-24.88Z" fill="#a88d44"/></svg>