<?xml version="1.0" encoding="UTF-8"?><svg id="Calque_1" xmlns="http://www.w3.org/2000/svg" viewBox="0 0 800 800"><path d="m595,590h-18.39V205c0-2.77-2.23-5-5-5h-171.61c-2.77,0-5,2.23-5,5v120.54h-166.61c-2.77,0-5,2.23-5,5v259.46h-18.39c-2.77,0-5,2.23-5,5s2.23,5,5,5h390c2.77,0,5-2.23,5-5,0-2.77-2.23-5-5-5h0Zm-190-380h161.61v380h-115.71v-259.46c0-2.77-2.23-5-5-5h-40.89v-115.54Zm-171.61,125.54h207.5v254.46h-207.5v-254.46Z" fill="#fdc300" stroke="#fdc300" stroke-miterlimit="10" stroke-width="7"/><path d="m525.8,302.23c2.77,0,5-2.23,5-5v-42.59c0-2.77-2.23-5-5-5s-5,2.23-5,5v42.59c0,2.77,2.23,5,5,5Z" fill="#fdc300" stroke="#fdc300" stroke-miterlimit="10" stroke-width="7"/><path d="m485.8,302.23c2.77,0,5-2.23,5-5v-42.59c0-2.77-2.23-5-5-5s-5,2.23-5,5v42.59c0,2.77,2.23,5,5,5Z" fill="#fdc300" stroke="#fdc300" stroke-miterlimit="10" stroke-width="7"/><path d="m525.8,378.12c2.77,0,5-2.23,5-5v-42.59c0-2.77-2.23-5-5-5s-5,2.23-5,5v42.59c0,2.77,2.23,5,5,5Z" fill="#fdc300" stroke="#fdc300" stroke-miterlimit="10" stroke-width="7"/><path d="m485.8,378.12c2.77,0,5-2.23,5-5v-42.59c0-2.77-2.23-5-5-5s-5,2.23-5,5v42.59c0,2.77,2.23,5,5,5Z" fill="#fdc300" stroke="#fdc300" stroke-miterlimit="10" stroke-width="7"/><path d="m525.8,453.93c2.77,0,5-2.23,5-5v-42.59c0-2.77-2.23-5-5-5s-5,2.23-5,5v42.59c0,2.77,2.23,5,5,5h0Z" fill="#fdc300" stroke="#fdc300" stroke-miterlimit="10" stroke-width="7"/><path d="m485.8,453.93c2.77,0,5-2.23,5-5v-42.59c0-2.77-2.23-5-5-5s-5,2.23-5,5v42.59c0,2.77,2.23,5,5,5h0Z" fill="#fdc300" stroke="#fdc300" stroke-miterlimit="10" stroke-width="7"/><path d="m525.8,529.82c2.77,0,5-2.23,5-5v-42.59c0-2.77-2.23-5-5-5s-5,2.23-5,5v42.59c0,2.77,2.23,5,5,5h0Z" fill="#fdc300" stroke="#fdc300" stroke-miterlimit="10" stroke-width="7"/><path d="m485.8,529.82c2.77,0,5-2.23,5-5v-42.59c0-2.77-2.23-5-5-5s-5,2.23-5,5v42.59c0,2.77,2.23,5,5,5h0Z" fill="#fdc300" stroke="#fdc300" stroke-miterlimit="10" stroke-width="7"/><path d="m450.89,297.23v-42.59c0-2.77-2.23-5-5-5s-5,2.23-5,5v42.59c0,2.77,2.23,5,5,5s5-2.23,5-5Z" fill="#fdc300" stroke="#fdc300" stroke-miterlimit="10" stroke-width="7"/><path d="m269.11,367.86c-2.77,0-5,2.23-5,5v38.48c0,2.77,2.23,5,5,5s5-2.23,5-5v-38.48c0-2.77-2.23-5-5-5h0Z" fill="#fdc300" stroke="#fdc300" stroke-miterlimit="10" stroke-width="7"/><path d="m314.46,367.86c-2.77,0-5,2.23-5,5v38.48c0,2.77,2.23,5,5,5s5-2.23,5-5v-38.48c0-2.77-2.23-5-5-5h0Z" fill="#fdc300" stroke="#fdc300" stroke-miterlimit="10" stroke-width="7"/><path d="m359.82,367.86c-2.77,0-5,2.23-5,5v38.48c0,2.77,2.23,5,5,5s5-2.23,5-5v-38.48c0-2.77-2.23-5-5-5h0Z" fill="#fdc300" stroke="#fdc300" stroke-miterlimit="10" stroke-width="7"/><path d="m405.18,367.86c-2.77,0-5,2.23-5,5v38.48c0,2.77,2.23,5,5,5s5-2.23,5-5v-38.48c-.09-2.77-2.32-5-5-5h0Z" fill="#fdc300" stroke="#fdc300" stroke-miterlimit="10" stroke-width="7"/><path d="m269.11,435.98c-2.77,0-5,2.23-5,5v38.48c0,2.77,2.23,5,5,5s5-2.23,5-5v-38.48c0-2.77-2.23-5-5-5Z" fill="#fdc300" stroke="#fdc300" stroke-miterlimit="10" stroke-width="7"/><path d="m314.46,435.98c-2.77,0-5,2.23-5,5v38.48c0,2.77,2.23,5,5,5s5-2.23,5-5v-38.48c0-2.77-2.23-5-5-5h0Z" fill="#fdc300" stroke="#fdc300" stroke-miterlimit="10" stroke-width="7"/><path d="m359.82,435.98c-2.77,0-5,2.23-5,5v38.48c0,2.77,2.23,5,5,5s5-2.23,5-5v-38.48c0-2.77-2.23-5-5-5Z" fill="#fdc300" stroke="#fdc300" stroke-miterlimit="10" stroke-width="7"/><path d="m405.18,435.98c-2.77,0-5,2.23-5,5v38.48c0,2.77,2.23,5,5,5s5-2.23,5-5v-38.48c-.09-2.77-2.32-5-5-5Z" fill="#fdc300" stroke="#fdc300" stroke-miterlimit="10" stroke-width="7"/><path d="m269.11,504.11c-2.77,0-5,2.23-5,5v38.48c0,2.77,2.23,5,5,5s5-2.23,5-5v-38.48c0-2.77-2.23-5-5-5Z" fill="#fdc300" stroke="#fdc300" stroke-miterlimit="10" stroke-width="7"/><path d="m314.46,504.11c-2.77,0-5,2.23-5,5v38.48c0,2.77,2.23,5,5,5s5-2.23,5-5v-38.48c0-2.77-2.23-5-5-5h0Z" fill="#fdc300" stroke="#fdc300" stroke-miterlimit="10" stroke-width="7"/><path d="m359.82,504.11c-2.77,0-5,2.23-5,5v38.48c0,2.77,2.23,5,5,5s5-2.23,5-5v-38.48c0-2.77-2.23-5-5-5Z" fill="#fdc300" stroke="#fdc300" stroke-miterlimit="10" stroke-width="7"/><path d="m405.18,504.11c-2.77,0-5,2.23-5,5v38.48c0,2.77,2.23,5,5,5s5-2.23,5-5v-38.48c-.09-2.77-2.32-5-5-5Z" fill="#fdc300" stroke="#fdc300" stroke-miterlimit="10" stroke-width="7"/></svg>