<?xml version="1.0" encoding="UTF-8"?><svg id="Calque_1" xmlns="http://www.w3.org/2000/svg" viewBox="0 0 800 800"><path d="m494.45,368.98c-7.44-36.2-36.65-64.97-72.85-72.85-28.77-5.93-58.51.97-80.81,19.3-22.31,18.32-35.23,45.14-35.23,73.82s10.89,52.05,31.25,69.93c10.44,9.91,14.87,34.7,17.88,51.07.53,3.01.97,5.93,1.5,8.41.97,6.46,6.9,11.42,13.9,11.42h60.46c6.9,0,12.92-4.96,13.9-12.39,2.48-20.36,9.91-47.09,20.8-57.98,1.95-1.5,3.45-3.45,4.96-4.96l7.97-7.97h-1.5c17.26-22.22,23.19-50.01,17.79-77.8h0Zm-39.21,79.31l4.96,5.49-4.96-5.49c-18.32,17.88-24.25,57-25.76,66.39h-58.95c-.53-1.95-.97-4.43-1.5-7.44-3.45-19.3-8.41-45.59-22.84-58.95-16.82-14.87-26.29-36.2-26.29-58.95,0-24.25,10.89-47.09,29.74-62.49s44.08-21.33,68.42-16.38c30.27,6.46,55.06,30.71,60.99,60.99,6.46,28.77-2.48,57.53-23.81,76.83h0Z" fill="#a88d44"/><path d="m435.41,561.85h-69.4c-3.98,0-7.44,3.45-7.44,7.44s3.45,7.44,7.44,7.44h69.4c3.98,0,7.44-3.45,7.44-7.44s-3.45-7.44-7.44-7.44Z" fill="#a88d44"/><path d="m435.41,538.57h-69.4c-3.98,0-7.44,3.45-7.44,7.44s3.45,7.44,7.44,7.44h69.4c3.98,0,7.44-3.45,7.44-7.44s-3.45-7.44-7.44-7.44Z" fill="#a88d44"/><path d="m413.63,585.13h-25.76c-3.98,0-7.44,3.45-7.44,7.44s3.45,7.44,7.44,7.44h25.76c3.98,0,7.44-3.45,7.44-7.44,0-3.98-3.45-7.44-7.44-7.44h0Z" fill="#a88d44"/><path d="m401.24,275.33c3.98,0,7.44-3.45,7.44-7.44v-60.46c0-3.98-3.45-7.44-7.44-7.44s-7.44,3.45-7.44,7.44v60.46c0,3.98,3.45,7.44,7.44,7.44h0Z" fill="#a88d44"/><path d="m561.81,381.9h-38.15c-3.98,0-7.44,3.45-7.44,7.44s3.45,7.44,7.44,7.44h38.15c3.98,0,7.44-3.45,7.44-7.44,0-3.98-3.45-7.44-7.44-7.44Z" fill="#a88d44"/><path d="m277.85,381.9h-39.65c-3.98,0-7.44,3.45-7.44,7.44s3.45,7.44,7.44,7.44h39.65c3.98,0,7.44-3.45,7.44-7.44,0-3.98-3.54-7.44-7.44-7.44Z" fill="#a88d44"/><path d="m567.82,294.62c-1.95-3.45-6.46-4.96-10.44-2.48l-52.05,30.27c-3.45,1.95-4.96,6.46-2.48,10.44,1.5,2.48,3.98,3.45,6.46,3.45,1.5,0,2.48-.53,3.98-.97l52.05-30.27c3.45-1.95,4.43-6.46,2.48-10.44h0Z" fill="#a88d44"/><path d="m460.72,290.73c.97.53,1.95.97,3.45.97,3.01,0,5.49-1.5,6.46-3.98l19.83-40.63c1.95-3.45.53-7.97-3.45-9.91-3.45-1.95-7.97-.53-9.91,3.45l-19.83,40.63c-1.5,3.45,0,7.97,3.45,9.47h0Z" fill="#a88d44"/><path d="m333.79,287.72c1.5,2.48,3.98,3.98,6.46,3.98.97,0,2.48-.53,3.45-.97,3.45-1.95,4.96-6.46,3.01-9.91l-21.77-39.12c-1.95-3.45-6.46-4.96-9.91-3.01-3.45,1.95-4.96,6.46-3.01,9.91l21.77,39.12Z" fill="#a88d44"/><path d="m299.09,322.42l-52.58-30.27c-3.45-1.95-7.97-.97-9.91,3.01-1.95,3.45-.97,7.97,3.01,9.91l52.58,30.27c.97.53,2.48.97,3.45.97,2.48,0,4.96-1.5,6.46-3.98,1.95-3.45.97-7.97-3.01-9.91h0Z" fill="#a88d44"/></svg>