<?xml version="1.0" encoding="utf-8"?>
<!-- Generator: Adobe Illustrator 27.3.1, SVG Export Plug-In . SVG Version: 6.00 Build 0)  -->
<svg version="1.1" id="Calque_1" xmlns="http://www.w3.org/2000/svg" xmlns:xlink="http://www.w3.org/1999/xlink" x="0px" y="0px"
	 viewBox="0 0 399.8 400" style="enable-background:new 0 0 399.8 400;" xml:space="preserve">
<style type="text/css">
	.st0{fill:#A88D44;}
</style>
<g>
	<path class="st0" d="M199.9,0c-20.2,0-36.6,16.4-36.6,36.6s16.4,36.6,36.6,36.6s36.6-16.4,36.6-36.6S220.1,0,199.9,0L199.9,0z
		 M199.9,59.9c-12.9,0-23.2-10.4-23.2-23.2s10.4-23.2,23.2-23.2s23.2,10.4,23.2,23.2S212.7,59.9,199.9,59.9z"/>
	<path class="st0" d="M179.4,87.2c-25.9,0-47,21-47,47v6.2c0,5.5,4.4,9.9,9.9,9.9h115.2c5.5,0,9.9-4.4,9.9-9.9v-6.2
		c0-25.9-21-47-47-47H179.4L179.4,87.2z M253.9,134.3v2.6h-108v-2.6c0-18.5,15.1-33.5,33.5-33.5h41
		C238.8,100.7,253.9,115.8,253.9,134.3L253.9,134.3z"/>
	<path class="st0" d="M67.5,249.6c-20.2,0-36.6,16.4-36.6,36.6s16.4,36.6,36.6,36.6s36.6-16.4,36.6-36.6S87.7,249.6,67.5,249.6
		L67.5,249.6z M67.5,309.5c-12.9,0-23.2-10.4-23.2-23.2S54.7,263,67.5,263s23.2,10.4,23.2,23.2S80.3,309.5,67.5,309.5z"/>
	<path class="st0" d="M88,336.9H47c-25.9,0-47,21-47,47v6.2c0,5.5,4.4,9.9,9.9,9.9h115.2c5.5,0,9.9-4.4,9.9-9.9v-6.2
		C134.9,358,113.9,336.9,88,336.9L88,336.9L88,336.9z M121.5,386.5H13.4v-2.6c0-18.5,15.1-33.5,33.6-33.5h41
		c18.5,0,33.5,15.1,33.5,33.5V386.5L121.5,386.5z"/>
	<path class="st0" d="M369,286.3c0-20.2-16.4-36.6-36.6-36.6s-36.6,16.4-36.6,36.6s16.4,36.6,36.6,36.6S369,306.5,369,286.3
		L369,286.3z M309,286.3c0-12.9,10.4-23.2,23.2-23.2s23.2,10.4,23.2,23.2s-10.4,23.2-23.2,23.2C319.5,309.5,309,299.1,309,286.3
		L309,286.3L309,286.3z"/>
	<path class="st0" d="M352.8,336.9h-41c-25.9,0-47,21-47,47v6.2c0,5.5,4.4,9.9,9.9,9.9h115.2c5.5,0,9.9-4.4,9.9-9.9v-6.2
		C399.8,358,378.7,336.9,352.8,336.9L352.8,336.9L352.8,336.9z M386.4,386.5H278.3v-2.6c0-18.5,15.1-33.5,33.5-33.5h41
		c18.5,0,33.5,15.1,33.5,33.5V386.5L386.4,386.5z"/>
	<path class="st0" d="M269.9,294l4.8-8.2c2.1-3.6,2.6-7.8,1.6-11.8c-1.1-4-3.6-7.4-7.3-9.4l-3.1-1.8c-1.5-0.9-2.3-2.5-2.1-4.1
		c0.6-3.5,0.9-7,0.9-10.5s-0.3-7-0.9-10.5c-0.2-1.6,0.6-3.2,2.1-4.1l3.1-1.8c3.6-2.1,6.2-5.5,7.3-9.4c1.1-4,0.6-8.2-1.6-11.8
		l-4.8-8.2c-2.1-3.6-5.5-6.2-9.4-7.3c-4-1.1-8.2-0.6-11.8,1.6l-3.1,1.8c-1.5,0.9-3.3,0.7-4.6-0.3c-5.5-4.4-11.6-8-18.2-10.5
		c-1.5-0.6-2.5-2.1-2.5-3.8v-3.9c0-8.6-7-15.5-15.5-15.5h-9.5c-8.6,0-15.5,7-15.5,15.5v3.6c0,1.8-1,3.2-2.5,3.8
		c-6.6,2.5-12.7,6-18.2,10.5c-1.3,1-3.1,1.2-4.6,0.3l-3.1-1.8c-3.6-2.1-7.8-2.6-11.8-1.6c-4,1.1-7.4,3.6-9.4,7.3l-4.8,8.2
		c-2.1,3.6-2.6,7.8-1.6,11.8c1.1,4,3.6,7.4,7.3,9.4l3.1,1.8c1.5,0.9,2.3,2.5,2.1,4.1c-0.6,3.5-0.9,7-0.9,10.5s0.3,7.1,0.9,10.5
		c0.2,1.6-0.6,3.2-2.1,4.1l-3.1,1.8c-3.6,2.1-6.2,5.5-7.3,9.4c-1.1,4-0.6,8.2,1.6,11.8l4.8,8.2c4.3,7.5,13.8,10,21.3,5.7l3.1-1.8
		c1.4-0.9,3.3-0.7,4.6,0.3c5.5,4.4,11.6,8,18.2,10.5c1.5,0.6,2.5,2.1,2.5,3.8v3.6c0,8.6,7,15.5,15.5,15.5h9.5
		c8.6,0,15.5-7,15.5-15.5v-3.6c0-1.8,1-3.2,2.5-3.8c6.6-2.5,12.7-6,18.2-10.5c1.3-1,3.1-1.2,4.6-0.3l3.1,1.8
		C256,304,265.6,301.4,269.9,294L269.9,294z M250.6,239.9c0.5,2.8,0.7,5.5,0.7,8.2s-0.2,5.5-0.7,8.2c-1.2,7.1,2.2,14.4,8.6,18
		l3.1,1.8c0.6,0.4,0.9,1,1,1.3c0.1,0.3,0.2,1-0.2,1.6l-4.8,8.2c-0.6,1-1.9,1.4-2.9,0.8l-3.1-1.8c-6.3-3.6-14.3-3-19.8,1.6
		c-4.3,3.6-9.1,6.4-14.4,8.3c-6.7,2.5-11.3,9.1-11.3,16.4v3.6c0,1.2-1,2.1-2.1,2.1h-9.5c-1.2,0-2.1-1-2.1-2.1v-3.6
		c0-7.3-4.5-13.9-11.3-16.4c-5.2-2-10.1-4.8-14.4-8.3c-3.2-2.6-7.1-3.9-11-3.9c-3,0-6.1,0.8-8.8,2.4l-3.1,1.8
		c-1,0.6-2.3,0.2-2.9-0.8l-4.8-8.2c-0.4-0.6-0.3-1.3-0.2-1.6s0.3-1,1-1.3l3.1-1.8c6.3-3.6,9.8-10.9,8.6-18c-0.5-2.7-0.7-5.5-0.7-8.2
		s0.2-5.5,0.7-8.2c1.2-7.1-2.2-14.4-8.6-18l-3.1-1.8c-0.6-0.4-0.9-1-1-1.3c-0.1-0.3-0.2-1,0.2-1.6l4.8-8.2c0.4-0.6,1-0.9,1.3-1
		c0.3-0.1,1-0.2,1.6,0.2l3.1,1.8c6.3,3.6,14.3,3,19.8-1.6c4.4-3.6,9.2-6.4,14.4-8.3c6.7-2.5,11.3-9.1,11.3-16.4v-3.7
		c0-1.2,1-2.1,2.1-2.1h9.6c1.2,0,2.1,1,2.1,2.1v3.6c0,7.3,4.5,13.9,11.3,16.4c5.2,2,10.1,4.8,14.4,8.3c5.5,4.6,13.6,5.2,19.8,1.6
		l3.1-1.8c0.6-0.4,1.3-0.3,1.6-0.2s1,0.3,1.3,1l4.8,8.2c0.4,0.6,0.3,1.3,0.2,1.6s-0.3,1-1,1.3l-3.1,1.8
		C252.8,225.5,249.4,232.7,250.6,239.9L250.6,239.9L250.6,239.9z"/>
	<path class="st0" d="M199.9,218c-16.7,0-30.1,13.6-30.1,30.1s13.6,30.1,30.1,30.1s30.1-13.6,30.1-30.1S216.6,218,199.9,218
		L199.9,218z M199.9,264.9c-9.2,0-16.7-7.5-16.7-16.7s7.5-16.7,16.7-16.7s16.7,7.5,16.7,16.7S209.1,264.9,199.9,264.9z"/>
</g>
</svg>
