<?xml version="1.0" encoding="UTF-8"?><svg id="Calque_1" xmlns="http://www.w3.org/2000/svg" viewBox="0 0 800 800"><path d="m390.41,302.85c18.93-4.52,37.86,7.06,42.28,25.9,4.52,18.83-7.06,37.57-25.99,42-18.93,4.52-37.76-7.06-42.28-25.8-4.52-18.83,7.06-37.57,25.99-42.09Zm-2.64-10.74c-24.67,5.84-40.02,30.7-34.09,55.37,5.93,24.67,30.89,39.93,55.66,34.09,24.67-5.84,40.12-30.7,34.18-55.37-5.93-24.67-30.98-39.93-55.75-34.09h0Z" fill="#a88d44" fill-rule="evenodd"/><path d="m315.45,295.51c9.04.38,15.07,8.66,12.81,17.42-9.51,35.79,3.77,68.18,33.9,87.86,25.9,16.95,52.36,16.95,78.35,0,30.04-19.68,43.41-51.98,33.9-87.86-2.35-8.76,3.67-17.14,12.81-17.42,6.59-.28,12.34,4.14,13.94,10.55,11.49,44.73-3.77,92.1-39.08,120.73-.94.75-1.6,1.79-1.88,2.92l-17.8,70.82c-1.7,6.5-6.31,12.05-14.03,15.35-17.42,7.35-37.57,8.1-54.05,0-7.44-3.67-12.34-8.85-14.03-15.35l-17.89-70.82c-.28-1.13-.94-2.17-1.88-2.92-35.31-28.63-50.57-76-38.99-120.73,1.6-6.4,7.35-10.74,13.94-10.55h0Zm.38-11.02c-11.77-.47-22.22,7.53-25.14,18.93-12.34,47.84,4.14,97.94,41.06,129.49l17.8,70.44c2.64,10.26,10.08,18.27,19.78,22.51,20.72,9.04,44.83,9.42,63.94,0,9.42-4.61,17.14-12.24,19.78-22.51l17.7-70.44c36.92-31.55,53.4-81.65,41.06-129.49-2.92-11.3-13.37-19.31-25.14-18.93-15.91.57-27.12,16.01-23.07,31.26,8.48,31.92-2.45,58.29-29.19,75.81-23.26,15.26-42.94,15.26-66.2,0-26.84-17.52-37.67-43.79-29.29-75.81,4.05-15.26-7.16-30.7-23.07-31.26Z" fill="#a88d44" fill-rule="evenodd"/><path d="m337.58,570.96c-6.5,10.36-15.35,17.23-25.9,18.46-10.26,1.22-22.13-3.58-34.09-12.9,10.83-4.99,20.81-10.26,31.74-11.49,10.92-1.22,18.65,1.04,28.25,5.93h0Zm-91.25-52.64c11.3,1.13,19.49,6.31,29,17.23-9.89,7.25-20.62,10.36-30.89,7.53-9.98-2.73-19.21-11.49-26.84-24.58,8.85-.47,17.42-1.32,28.72-.19h0Zm-62.53-77.41c11.21,4.05,22.04,7.35,29,11.77,7.53,4.8,13.09,12.81,17.42,26.56-11.87,2.83-23.07,1.41-31.36-5.18-8-6.4-13.18-18.08-15.07-33.15h0Zm-3.39-84.28c8.95,7.91,17.7,14.97,22.51,21.75,5.18,7.25,7.35,16.76,6.4,31.08-12.15-1.88-21.94-7.25-27.22-16.48-5.09-8.85-5.46-21.66-1.7-36.35h0Zm31.17-80.7c4.71,11.02,9.61,21.19,11.11,29.29,1.6,8.76-.47,18.27-7.53,30.79-10.17-6.78-16.76-15.91-17.61-26.46-.85-10.26,4.24-21.94,14.03-33.62h0Zm53.21-61.21c1.51,11.87,2.64,22.88,1.79,31.17-.85,8.85-4.52,17.52-14.69,27.69-7.91-9.32-11.77-19.87-9.7-30.23,1.98-10.17,10.08-20.06,22.6-28.63h0Zm1.51-14.03c-19.49,10.45-31.17,24.96-34.28,40.68-2.83,14.03,1.6,28.53,11.96,40.21-4.33,6.12-8.29,12.43-11.77,19.02-2.73-11.49-8.29-22.32-14.03-36.44-1.51-3.67-6.12-4.61-8.95-1.98-16.1,15.16-23.26,32.49-21.94,48.4,1.32,15.91,11.21,29.85,26.93,38.05-1.7,7.44-2.92,14.97-3.67,22.7-7.44-9.79-17.52-17.33-29.19-28.06-3.01-2.83-7.53-1.51-8.95,1.98-8.1,20.62-7.16,39.36.85,53.11,7.63,13.28,21.85,21.47,38.8,22.79,1.22,7.44,2.92,14.88,5.09,22.13-10.55-6.31-22.51-9.79-37.39-15.16-4.61-1.7-7.63,1.32-7.53,5.18.47,22.13,8,39.18,20.53,49.06,12.05,9.51,28.35,11.87,44.54,6.69,3.96,6.59,8.38,12.81,13.09,18.83-12.62-2.07-25.33.38-41.72.47-4.33,0-6.5,4.33-4.9,7.72,9.04,20.15,22.7,32.87,38.14,37.01,14.88,4.05,30.61-.19,43.51-11.21,6.12,4.52,12.43,8.76,19.02,12.52-12.52,2.73-23.64,9.51-38.8,16.01-3.86,1.7-4.61,6.12-1.7,9.04,15.54,15.73,33.34,22.13,49.16,20.25,15.26-1.79,28.44-11.49,36.35-26.65,5.46,1.51,11.02,2.83,16.67,3.77,7.44,1.51,9.42-9.79,1.88-10.92-60.93-10.74-111.97-52.27-134.76-109.8-22.51-56.69-14.31-122.52,21.38-170.26,9.04-12.15,21.57-20.72,23.45-38.99,1.32-12.81-1.79-25.43-3.48-41.91-.66-4.14-4.99-6.03-8.29-4.24h0Z" fill="#a88d44"/><path d="m462.36,570.96c6.5,10.36,15.35,17.23,25.9,18.46,10.26,1.22,22.13-3.58,34.09-12.9-10.83-4.99-20.81-10.26-31.64-11.49-10.92-1.22-18.74,1.04-28.35,5.93h0Zm91.25-52.64c-11.3,1.13-19.59,6.31-29,17.23,9.89,7.25,20.62,10.36,30.89,7.53,9.89-2.73,19.21-11.49,26.84-24.58-8.85-.47-17.42-1.32-28.72-.19h0Zm62.44-77.41c-11.21,4.05-22.04,7.35-29,11.77-7.53,4.8-13,12.81-17.42,26.56,11.96,2.83,23.07,1.41,31.45-5.18,8-6.4,13.18-18.08,14.97-33.15h0Zm3.39-84.28c-8.95,7.91-17.7,14.97-22.51,21.75-5.18,7.25-7.35,16.76-6.31,31.08,12.05-1.88,21.94-7.25,27.22-16.48,5.09-8.85,5.46-21.66,1.6-36.35h0Zm-31.08-80.7c-4.71,11.02-9.61,21.19-11.11,29.29-1.6,8.76.47,18.27,7.53,30.79,10.17-6.78,16.76-15.91,17.61-26.46.85-10.26-4.33-21.94-14.03-33.62h0Zm-53.21-61.21c-1.51,11.87-2.64,22.88-1.79,31.17.85,8.85,4.52,17.52,14.69,27.69,7.91-9.32,11.77-19.87,9.7-30.23-1.98-10.17-10.08-20.06-22.6-28.63h0Zm-1.51-14.03c19.4,10.45,31.17,24.96,34.28,40.68,2.73,14.03-1.7,28.53-11.96,40.21,4.33,6.12,8.29,12.43,11.77,19.02,2.73-11.49,8.29-22.32,14.03-36.44,1.51-3.67,6.12-4.61,8.95-1.98,16.1,15.16,23.26,32.49,21.94,48.4-1.32,15.91-11.11,29.85-26.84,38.05,1.7,7.44,2.92,14.97,3.67,22.7,7.44-9.79,17.42-17.33,29.19-28.06,3.11-2.83,7.63-1.51,8.95,1.98,8,20.62,7.16,39.36-.85,53.11-7.63,13.28-21.75,21.47-38.7,22.79-1.22,7.44-2.92,14.88-5.09,22.13,10.45-6.31,22.51-9.79,37.39-15.16,4.61-1.7,7.63,1.32,7.53,5.18-.47,22.13-8,39.18-20.53,49.06-12.05,9.51-28.35,11.87-44.54,6.69-3.96,6.59-8.38,12.81-13.09,18.83,12.52-2.07,25.24.38,41.72.47,4.33,0,6.5,4.33,4.9,7.72-9.04,20.15-22.7,32.87-38.14,37.01-14.78,4.05-30.61-.19-43.51-11.21-6.03,4.52-12.43,8.76-19.02,12.52,12.52,2.73,23.54,9.51,38.8,16.01,3.86,1.7,4.52,6.12,1.7,9.04-15.54,15.73-33.24,22.13-49.16,20.25-15.26-1.79-28.44-11.49-36.26-26.65-5.46,1.51-11.02,2.83-16.67,3.77-7.44,1.51-9.42-9.79-1.88-10.92,60.93-10.74,111.97-52.27,134.76-109.8,22.51-56.69,14.31-122.52-21.38-170.26-9.04-12.15-21.57-20.72-23.45-38.99-1.32-12.81,1.79-25.43,3.48-41.91.38-4.14,4.71-6.03,8-4.24h0Z" fill="#a88d44"/></svg>