<?xml version="1.0" encoding="utf-8"?>
<!-- Generator: Adobe Illustrator 27.3.1, SVG Export Plug-In . SVG Version: 6.00 Build 0)  -->
<svg version="1.1" id="Calque_1" xmlns="http://www.w3.org/2000/svg" xmlns:xlink="http://www.w3.org/1999/xlink" x="0px" y="0px"
	 viewBox="0 0 352.6 403" style="enable-background:new 0 0 352.6 403;" xml:space="preserve">
<style type="text/css">
	.st0{fill:#A88D44;stroke:#A88D44;stroke-width:3;stroke-miterlimit:10;}
</style>
<g>
	<path class="st0" d="M49.3,190.8l-42.8-1.3c-2.7-0.1-4.9,2-5,4.7s2,5,4.7,5l42.8,1.3h0.2c2.6,0,4.8-2.1,4.9-4.7
		C54.1,193.2,52,190.9,49.3,190.8L49.3,190.8z"/>
	<path class="st0" d="M346.1,189.5l-42.8,1.3c-2.7,0.1-4.8,2.3-4.7,5c0.1,2.6,2.3,4.7,4.9,4.7h0.2l42.8-1.3c2.7-0.1,4.8-2.3,4.7-5
		C350.9,191.6,348.7,189.5,346.1,189.5L346.1,189.5L346.1,189.5z"/>
	<path class="st0" d="M228.6,99.4c-15.5-9.8-33.7-14.9-52.3-14.9s-36.7,5.1-52.3,14.9c-15,9.5-27.1,22.7-34.9,38.4
		c-7.6,15.5-10.8,32.8-8.9,50.1c2,18.8,9.5,37,22.6,53.9c4.3,5.6,8.2,10.2,11.7,14.2c11.7,13.5,18.1,21,20,48.2V350
		c0,11.6,4.6,21.3,13.5,28.2c2.9,2.3,6.1,4.1,9.5,5.5c0.6,9.9,8.9,17.7,18.9,17.7s18.2-7.8,18.9-17.7c3.5-1.5,6.7-3.3,9.5-5.5
		c8.8-6.8,13.5-16.7,13.5-28.2v-45.8c1.9-27.2,8.3-34.6,20-48.2c3.5-4,7.4-8.6,11.7-14.2c12.9-16.9,20.6-35,22.6-53.9
		c1.8-17.2-1.3-34.5-8.9-50.1C255.6,122.1,243.6,108.8,228.6,99.4L228.6,99.4z M176.3,377.7c-8.3,0-17.1-2.5-23.3-7.9h46.6
		C193.3,375.2,184.6,377.7,176.3,377.7L176.3,377.7z M146,360.1c-1-2.3-1.6-5-1.7-7.9h64c-0.2,2.9-0.8,5.5-1.7,7.9H146L146,360.1z
		 M208.4,342.5h-64.2v-7.9h64.2V342.5z M176.3,391.8c-3.6,0-6.7-2-8.2-5c2.7,0.4,5.4,0.6,8.2,0.6s5.5-0.3,8.2-0.6
		C182.9,389.8,179.8,391.8,176.3,391.8z M242.1,235.9c-4.2,5.5-8,9.9-11.4,13.8c-6.3,7.3-11.3,13.1-15.1,21.1c-3.8,8-6,17.5-7,30.6
		c-0.1,0.4-0.2,0.9-0.2,1.3v22.1h-64.2v-22.1c0-0.4-0.1-0.9-0.2-1.3c-1-13.1-3.3-22.6-7-30.6c-3.8-8-8.8-13.8-15.1-21.1
		c-3.4-3.9-7.2-8.3-11.4-13.8C87.8,206.2,83.2,172,98,142.2c14.6-29.6,44.7-48,78.4-48s63.9,18.4,78.4,48
		C269.5,172,264.9,206.2,242.1,235.9L242.1,235.9L242.1,235.9z"/>
	<path class="st0" d="M176.3,54.1c2.7,0,4.9-2.2,4.9-4.9V6.4c0-2.7-2.2-4.9-4.9-4.9s-4.9,2.2-4.9,4.9v42.8
		C171.4,51.8,173.6,54.1,176.3,54.1L176.3,54.1z"/>
	<path class="st0" d="M83.1,81.6L54.3,50c-1.8-2-4.9-2.1-6.9-0.4c-2,1.8-2.1,4.9-0.4,6.9l28.9,31.6c1,1,2.3,1.6,3.6,1.6
		c1.1,0,2.3-0.4,3.3-1.3C84.9,86.6,85,83.6,83.1,81.6L83.1,81.6L83.1,81.6z"/>
	<path class="st0" d="M305,49.7c-2-1.8-5-1.6-6.8,0.4l-28.9,31.6c-1.8,2-1.6,5,0.4,6.9c1,0.9,2.1,1.3,3.3,1.3c1.3,0,2.6-0.5,3.6-1.6
		l28.9-31.6C307.2,54.5,307,51.5,305,49.7L305,49.7L305,49.7z"/>
	<path class="st0" d="M239,165.3l-9.7-2.8c-1-3-2.2-5.9-3.6-8.7l4.9-8.9c1-1.6,0.8-3.7-0.4-5.2c-4.1-5.5-8.9-10.3-14.3-14.3
		c-1.6-1.1-3.6-1.2-5.2-0.4l-8.9,4.9c-2.8-1.5-5.7-2.7-8.7-3.6l-2.8-9.7c-0.5-1.8-2.1-3.2-3.9-3.5c-6.7-1-13.6-1-20.3,0
		c-1.9,0.3-3.4,1.6-3.9,3.5l-2.8,9.7c-3,1-5.9,2.2-8.7,3.6l-8.9-4.9c-1.6-1-3.7-0.8-5.2,0.4c-5.5,4.1-10.3,8.9-14.3,14.3
		c-1.1,1.6-1.2,3.6-0.4,5.2l4.9,8.9c-1.5,2.8-2.7,5.7-3.6,8.7l-9.7,2.8c-1.8,0.5-3.2,2.1-3.5,3.9c-0.5,3.3-0.8,6.8-0.8,10.1
		s0.3,6.8,0.8,10.1c0.3,1.9,1.6,3.4,3.5,3.9l9.7,2.8c1,3,2.2,5.9,3.6,8.7l-4.9,8.9c-1,1.6-0.8,3.7,0.4,5.2
		c4.1,5.5,8.8,10.3,14.3,14.3c1.6,1.1,3.6,1.2,5.2,0.4l8.9-4.9c2.8,1.5,5.7,2.7,8.7,3.6l2.8,9.7c0.5,1.8,2.1,3.2,3.9,3.5
		c3.3,0.5,6.8,0.8,10.1,0.8s6.8-0.3,10.1-0.8c1.9-0.3,3.4-1.6,3.9-3.5l2.8-9.7c3-1,5.9-2.2,8.7-3.6l8.9,4.9c1.6,1,3.7,0.8,5.2-0.4
		c5.5-4,10.3-8.9,14.3-14.3c1.1-1.6,1.2-3.6,0.4-5.2l-4.9-8.9c1.5-2.8,2.7-5.7,3.6-8.7l9.7-2.8c1.8-0.5,3.2-2.1,3.5-3.9
		c0.5-3.4,0.8-6.8,0.8-10.1s-0.3-6.8-0.8-10.1C242.1,167.3,240.8,165.8,239,165.3L239,165.3z M233.2,185l-9.2,2.6
		c-1.6,0.4-3,1.8-3.4,3.5c-1,4-2.6,7.8-4.7,11.4c-0.9,1.5-0.9,3.3-0.1,4.8l4.6,8.4c-2.4,2.9-5,5.5-8,8L204,219
		c-1.5-0.9-3.3-0.8-4.8,0.1c-3.6,2.1-7.4,3.6-11.4,4.7c-1.6,0.4-3,1.7-3.5,3.4l-2.7,9.2c-3.7,0.4-7.5,0.4-11.3,0l-2.7-9.2
		c-0.4-1.6-1.8-3-3.5-3.4c-4-1-7.8-2.6-11.4-4.7c-1.5-0.9-3.3-0.9-4.8-0.1l-8.4,4.6c-2.9-2.4-5.5-5-8-8l4.6-8.4
		c0.9-1.5,0.8-3.3-0.1-4.8c-2.1-3.6-3.6-7.4-4.7-11.4c-0.4-1.6-1.7-3-3.4-3.5L119,185c-0.2-1.8-0.3-3.7-0.3-5.6s0.1-3.7,0.3-5.6
		l9.5-2.6c1.6-0.4,3-1.8,3.4-3.5c1-4,2.6-7.8,4.7-11.4c0.9-1.5,0.9-3.3,0.1-4.8l-4.6-8.4c2.4-2.9,5-5.5,8-8l8.4,4.6
		c1.5,0.9,3.3,0.8,4.8-0.1c3.6-2.1,7.4-3.6,11.4-4.7c1.6-0.4,3-1.7,3.5-3.4l2.7-9.2c3.7-0.4,7.5-0.4,11.3,0l2.7,9.2
		c0.4,1.6,1.8,3,3.5,3.4c4,1,7.8,2.6,11.4,4.7c1.5,0.9,3.3,0.9,4.8,0.1l8.4-4.6c2.9,2.4,5.5,5,8,8l-4.6,8.4
		c-0.9,1.5-0.8,3.3,0.1,4.8c2.1,3.6,3.6,7.4,4.7,11.4c0.4,1.6,1.7,3,3.4,3.5l9.2,2.7c0.2,1.9,0.3,3.7,0.3,5.6
		C233.4,181.2,233.3,183.1,233.2,185L233.2,185L233.2,185z"/>
	<path class="st0" d="M176.3,145.9c-18.5,0-33.5,15-33.5,33.5s15,33.5,33.5,33.5s33.5-15,33.5-33.5S194.7,145.9,176.3,145.9z
		 M176.3,203.1c-13.1,0-23.8-10.7-23.8-23.8s10.7-23.8,23.8-23.8s23.8,10.7,23.8,23.8S189.4,203.1,176.3,203.1z"/>
	<rect x="168.7" y="385.1" class="st0" width="13.8" height="6.7"/>
</g>
</svg>
