<?xml version="1.0" encoding="UTF-8"?><svg id="Calque_1" xmlns="http://www.w3.org/2000/svg" viewBox="0 0 800 800"><path d="m478.11,382.73c0,43.61-35.32,78.94-78.94,78.94s-78.94-35.32-78.94-78.94,35.32-78.94,78.94-78.94,78.94,35.32,78.94,78.94" fill="none" stroke="#fafafa" stroke-linecap="round" stroke-linejoin="round" stroke-width="20"/><path d="m536.55,600c0-49.11-26.17-94.46-68.73-118.97-42.48-24.51-94.9-24.51-137.37,0-42.48,24.51-68.73,69.86-68.73,118.97" fill="none" stroke="#fafafa" stroke-linejoin="round" stroke-width="20"/><path d="m254.82,278.94c0,43.61-35.32,78.94-78.94,78.94s-78.94-35.32-78.94-78.94,35.32-78.94,78.94-78.94,78.94,35.32,78.94,78.94" fill="none" stroke="#fafafa" stroke-linecap="round" stroke-linejoin="round" stroke-width="20"/><path d="m313.26,496.21c0-49.11-26.17-94.46-68.73-118.97-42.48-24.51-94.9-24.51-137.37,0-42.48,24.51-68.73,69.86-68.73,118.97" fill="none" stroke="#fafafa" stroke-linejoin="round" stroke-width="20"/><path d="m703.14,278.94c0,43.61-35.32,78.94-78.94,78.94s-78.94-35.32-78.94-78.94,35.32-78.94,78.94-78.94,78.94,35.32,78.94,78.94" fill="none" stroke="#fafafa" stroke-linecap="round" stroke-linejoin="round" stroke-width="20"/><path d="m761.58,496.21c0-49.11-26.17-94.46-68.73-118.97-42.48-24.51-94.9-24.51-137.37,0-42.48,24.51-68.73,69.86-68.73,118.97" fill="none" stroke="#fafafa" stroke-linejoin="round" stroke-width="20"/></svg>