<?xml version="1.0" encoding="utf-8"?>
<!-- Generator: Adobe Illustrator 27.3.1, SVG Export Plug-In . SVG Version: 6.00 Build 0)  -->
<svg version="1.1" id="Calque_1" xmlns="http://www.w3.org/2000/svg" xmlns:xlink="http://www.w3.org/1999/xlink" x="0px" y="0px"
	 viewBox="0 0 402 402" style="enable-background:new 0 0 402 402;" xml:space="preserve">
<style type="text/css">
	.st0{fill:#A88D44;stroke:#FFFFFF;stroke-width:2;stroke-miterlimit:10;}
</style>
<path class="st0" d="M384.5,123.1V51.3h7.5c4.9,0,8.9-4,8.9-8.9s-4-8.9-8.9-8.9h-14c-0.1-0.1-0.2-0.2-0.2-0.2
	c-4-3.7-9.4-5.8-15.2-5.8c-1.4,0-2.8,0.2-4.1,0.4c0-11.4-9.8-20.7-21.9-20.7c-3.2,0-6.2,0.6-8.9,1.8c-0.6-0.7-1.3-1.5-2-2.2
	c-4.1-3.7-9.4-5.8-15.1-5.8c-8.9,0-16.6,5.1-20,12.4c-2-0.6-4-0.9-6-0.9c-12.1,0-21.9,9.3-21.9,20.7v0.3h-98.8
	c-0.2,0-0.3,0.1-0.5,0.1c-6.3-5.8-13.4-10.1-21.1-12.8V10c0-4.9-4-8.9-8.9-8.9s-8.9,4-8.9,8.9v7.6c-0.5,0-1-0.1-1.5-0.1H51.3V10
	c0-4.9-4-8.9-8.9-8.9s-8.9,4-8.9,8.9v14c-0.1,0.1-0.2,0.2-0.2,0.2c-3.7,4.1-5.8,9.4-5.8,15.1c0,1.4,0.2,2.8,0.4,4.1
	c-5.6,0-10.9,2.5-14.9,6.7c-3.7,4.1-5.8,9.5-5.8,15.2c0,3.2,0.7,6.1,1.8,8.9c-0.8,0.6-1.5,1.3-2.2,2C3.1,80.4,1,85.8,1,91.4
	c0,8.9,5.1,16.6,12.4,20c-0.6,1.9-0.9,4-0.9,6c0,12.1,9.3,21.9,20.7,21.9h0.3v98.8c0,0.2,0.1,0.3,0.1,0.5
	c-5.8,6.3-10.1,13.4-12.8,21.1H10c-4.9,0-8.9,4-8.9,8.9s4,8.9,8.9,8.9h7.6c0,0.5-0.1,1-0.1,1.5l0,0v71.7H10c-4.9,0-8.9,4-8.9,8.9
	s4,8.9,8.9,8.9h14c0.1,0.1,0.2,0.2,0.2,0.2c4.1,3.7,9.4,5.8,15.1,5.8c1.4,0,2.8-0.2,4.1-0.4c0,11.4,9.8,20.7,21.9,20.7
	c3.2,0,6.2-0.6,8.9-1.8c0.6,0.7,1.3,1.5,2,2.2c4.1,3.7,9.4,5.8,15.1,5.8c8.9,0,16.6-5.1,20-12.4c2,0.6,4,0.9,6,0.9
	c12.1,0,21.9-9.3,21.9-20.7v-0.3h98.8c0.2,0,0.3-0.1,0.5-0.1c6.3,5.8,13.4,10.1,21.1,12.8V392c0,4.9,4,8.9,8.9,8.9
	c4.9,0,8.9-4,8.9-8.9v-7.6c0.5,0,1,0.1,1.5,0.1h71.7v7.5c0,4.9,4,8.9,8.9,8.9s8.9-4,8.9-8.9v-14c0.1-0.1,0.2-0.2,0.2-0.2
	c3.7-4,5.8-9.4,5.8-15.2c0-1.4-0.2-2.8-0.4-4.1c11.4,0,20.7-9.8,20.7-21.9c0-3.2-0.6-6.2-1.8-8.9c0.7-0.6,1.5-1.3,2.2-2
	c3.7-4.1,5.8-9.4,5.8-15.1c0-8.9-5.1-16.6-12.4-20c0.6-1.9,0.9-4,0.9-6c0-12.1-9.3-21.9-20.8-21.9h-0.2v-98.8c0-0.2-0.1-0.3-0.1-0.5
	c5.8-6.3,10.1-13.4,12.8-21.1H392c4.9,0,8.9-4,8.9-8.9s-4-8.9-8.9-8.9h-7.6C384.4,124,384.5,123.5,384.5,123.1L384.5,123.1
	L384.5,123.1z M280.5,33.3c0-1.4,1.7-2.9,4.1-2.9c1.3,0,2.4,0.4,3.2,1.1c0.4,0.4,0.9,1,0.9,1.8v49.1c0,4.9,4,8.9,8.9,8.9
	c4.9,0,8.9-4,8.9-8.9V21.8c0-1.4,1.7-2.9,4.1-2.9c1.3,0,2.4,0.4,3.2,1.1c0.4,0.4,1,1,1,1.8V28c0,0.4,0.1,0.7,0.1,1.1v53.3
	c0,4.9,4,8.9,8.9,8.9s8.9-4,8.9-8.9V27.6c0.3-1.3,1.8-2.5,4-2.5c2.5,0,4.1,1.6,4.1,2.9v58.3c0,4.9,4,8.9,8.9,8.9s8.9-4,8.9-8.9V48.2
	c0-1.4,1.7-2.9,4.1-2.9c1.3,0,2.4,0.4,3.2,1.2c0.4,0.4,0.9,0.9,0.9,1.7V123c0,2.8-0.3,5.5-0.9,8.2c-0.1,0.2-0.1,0.5-0.2,0.8
	c-2,8.5-6.7,16.3-13.8,22.7c-0.1,0.1-0.2,0.2-0.3,0.3h-80.8c-8.8-8.6-13.9-20.5-13.9-34V82.3c0-1.4,1.9-2.9,4.4-2.9
	c0.5,0,1,0.1,1.4,0.2v28.5c0,4.9,4,8.9,8.9,8.9c4.9,0,8.9-4,8.9-8.9L280.5,33.3L280.5,33.3L280.5,33.3z M233,259.6h-73.5
	c-3.3-10.3-9.2-19.4-17.1-26.7v-73.5c10.3-3.3,19.4-9.2,26.7-17.1h73.5c3.3,10.3,9.2,19.4,17.1,26.7v73.5
	C249.4,245.8,240.3,251.6,233,259.6z M262.7,51.3v10.3c-0.5,0-1-0.1-1.4-0.1c-12.2,0-22.1,9.3-22.1,20.7V121c0,1.2,0.2,2.3,0.2,3.5
	h-65.5c-0.3-0.3-0.6-0.7-1-1V51.3H262.7z M30.3,117.3c0-1.3,0.4-2.4,1.1-3.2c0.4-0.4,0.9-0.9,1.7-0.9h49.2c4.9,0,8.9-4,8.9-8.9
	s-4-8.9-8.9-8.9H21.8c-1.4,0-2.9-1.7-2.9-4.1c0-1.7,0.7-2.8,1.2-3.2c0.3-0.3,0.9-0.9,1.7-0.9h6.2c0.3,0,0.6-0.1,0.9-0.1h53.5
	c4.9,0,8.9-4,8.9-8.9s-4-8.9-8.9-8.9H27.5c-1.3-0.2-2.5-1.8-2.5-4c0-1.7,0.7-2.8,1.1-3.2c0.3-0.4,1-1,1.9-1h58.2
	c4.9,0,8.9-4,8.9-8.9s-4-8.9-8.9-8.9H51.4v-8.3h71.7c2.8,0,5.5,0.3,8.2,0.9c0.2,0.1,0.5,0.1,0.8,0.2c8.5,2,16.3,6.7,22.7,13.8
	c0.1,0.1,0.2,0.2,0.3,0.3v80.8c-8.6,8.8-20.5,13.9-34,13.9H82.4c-1.4,0-2.9-1.9-2.9-4.4c0-0.5,0.1-1,0.2-1.4h28.5
	c4.9,0,8.9-4,8.9-8.9s-4-8.9-8.9-8.9H33.4C31.9,121.5,30.3,119.8,30.3,117.3L30.3,117.3L30.3,117.3z M61.7,139.2
	c0,0.5-0.1,1-0.1,1.4c0,12.2,9.3,22.1,20.7,22.1h38.8c1.2,0,2.3-0.2,3.5-0.2v65.5c-0.3,0.3-0.6,0.6-1,1H51.4v-89.9H61.7z
	 M121.5,368.6c0,1.4-1.7,2.9-4.1,2.9c-1.3,0-2.4-0.4-3.2-1.1c-0.4-0.4-0.9-1-0.9-1.8v-49.1c0-4.9-4-8.9-8.9-8.9s-8.9,4-8.9,8.9v60.6
	c0,1.4-1.7,2.9-4.1,2.9c-1.3,0-2.4-0.4-3.2-1.1c-0.4-0.4-1-1-1-1.8v-6.2c0-0.4-0.1-0.7-0.1-1.1v-53.3c0-4.9-4-8.9-8.9-8.9
	s-8.9,4-8.9,8.9v54.8c-0.3,1.3-1.8,2.5-4,2.5c-2.5,0-4.1-1.6-4.1-2.9v-58.3c0-4.9-4-8.9-8.9-8.9s-8.9,4-8.9,8.9v37.9
	c0,1.4-1.7,2.9-4.1,2.9c-1.3,0-2.4-0.4-3.2-1.2c-0.4-0.4-0.9-1-0.9-1.8v-74.8c0-2.8,0.3-5.5,0.9-8.2c0.1-0.2,0.1-0.5,0.2-0.8
	c2-8.5,6.7-16.3,13.8-22.7c0.1-0.1,0.2-0.2,0.3-0.3h80.7c8.8,8.6,13.9,20.5,13.9,34v38.8c0,1.4-1.9,2.9-4.4,2.9
	c-0.5,0-1-0.1-1.4-0.2v-28.5c0-4.9-4-8.9-8.9-8.9s-8.9,4-8.9,8.9L121.5,368.6L121.5,368.6L121.5,368.6z M139.3,350.6v-10.3
	c0.5,0,1,0.1,1.4,0.1c12.2,0,22.1-9.3,22.1-20.7v-38.8c0-1.2-0.2-2.3-0.2-3.5h65.5c0.3,0.3,0.6,0.7,1,1v72.2L139.3,350.6
	L139.3,350.6z M371.6,284.5c0,1.7-0.7,2.8-1.1,3.2c-0.3,0.3-1,1-1.9,1h-49.1c-4.9,0-8.9,4-8.9,8.9s4,8.9,8.9,8.9h60.6
	c1.4,0,2.9,1.7,2.9,4.1c0,1.3-0.4,2.4-1.1,3.2c-0.4,0.4-1,1-1.8,1h-6.2c-0.4,0-0.7,0.1-1.1,0.1h-53.3c-4.9,0-8.9,4-8.9,8.9
	s4,8.9,8.9,8.9h54.8c1.3,0.3,2.5,1.8,2.5,4c0,2.5-1.6,4.1-2.9,4.1h-58.3c-4.9,0-8.9,4-8.9,8.9s4,8.9,8.9,8.9h37.9
	c1.4,0,2.9,1.7,2.9,4.1c0,1.3-0.4,2.4-1.2,3.2c-0.4,0.4-1,0.9-1.8,0.9h-74.8c-2.8,0-5.5-0.3-8.2-0.9c-0.2-0.1-0.5-0.1-0.8-0.2
	c-8.5-2-16.3-6.7-22.7-13.8c-0.1-0.1-0.2-0.2-0.3-0.3v-80.9c8.6-8.8,20.5-13.9,34-13.9h38.8c1.4,0,2.9,1.9,2.9,4.4
	c0,0.5-0.1,1-0.2,1.4h-28.5c-4.9,0-8.9,4-8.9,8.9s4,8.9,8.9,8.9h74.8C370.3,280.4,371.6,282.3,371.6,284.5L371.6,284.5L371.6,284.5z
	 M340.3,262.6c0-0.5,0.1-1,0.1-1.4c0-12.2-9.3-22.1-20.7-22.1h-38.8c-1.2,0-2.3,0.2-3.5,0.2v-65.4c0.3-0.3,0.6-0.7,1-1.1h72.3v89.9
	L340.3,262.6z"/>
</svg>
