<?xml version="1.0" encoding="utf-8"?>
<!-- Generator: Adobe Illustrator 27.3.1, SVG Export Plug-In . SVG Version: 6.00 Build 0)  -->
<svg version="1.1" id="Calque_1" xmlns="http://www.w3.org/2000/svg" xmlns:xlink="http://www.w3.org/1999/xlink" x="0px" y="0px"
	 viewBox="0 0 321.6 400" style="enable-background:new 0 0 321.6 400;" xml:space="preserve">
<style type="text/css">
	.st0{fill:#A88D44;}
</style>
<g>
	<path class="st0" d="M310.8,95.8l-6.5,2.5c1,7.4,1,14.8,0,21.7l6.5,2.5c4,1.9,7.4,5,9.4,9.4c1.9,4.4,1.9,8.9,0,12.9l-5.5,13.9
		c-1.9,4-5,7.4-9.4,9.4s-8.9,1.9-12.9,0l-6.5-2.5c-4.4,5.9-9.9,10.9-15.4,15.4l2.5,6.5c1.9,4,1.9,8.9,0,12.9s-5,7.4-9.4,9.4
		l-13.9,5.5c-1.9,1-4.4,1.5-6.5,1.5s-4.4-0.5-6.5-1.5c-4-1.9-7.4-5-9.4-9.4l-5.5-12.4l15.4-6.5l5.5,12.4c0,0.5,0.5,0.5,0.5,0.5
		l13.9-5.5l0.5-0.5v-0.5l-7.9-18.8l5.5-4c7.9-5.5,14.8-12.4,20.3-20.3l4-5.5l18.8,8h0.5l0.5-0.5l5.5-13.9v-0.5l-0.5-0.5l-18.8-8
		l1.5-6.5c1.9-9.4,1.9-19.3,0-29.1l-1.5-6.5l18.8-8l0.5-0.5v-0.5l-5.5-13.9l-0.5-0.5h-0.6l-18.8,8l-4-5.5
		c-5.5-8-12.4-14.8-20.3-20.3l-5.5-4l7.9-18.8v-0.5l-0.5-0.5l-13.9-5.5c-0.4,0-0.5,0.2-0.5,0.5l-8,18.8l-6.5-1.5
		c-9.4-1.9-19.3-1.9-29.1,0l-6.5,1.5l-8-18.8l-0.5-0.5h-0.5L170,22l-0.5,0.5v0.5l8,18.8l-5.5,4c-8,5.5-14.8,12.4-20.3,20.3l-4,5.5
		l-18.8-8c-0.4,0-0.5,0.2-0.5,0.5l-5.5,13.9c0,0.4,0.2,0.5,0.5,0.5l12.4,5.5l-6.5,15.4L116.9,94c-8.9-3.4-12.9-13.3-9.4-22.3
		l5.5-13.9c3.4-8.9,13.3-12.9,22.3-9.4l6.5,2.5c4.4-5.9,9.9-10.9,15.4-15.4l-2.5-6.4c-3.4-8.9,0.5-18.8,9.4-22.3l13.9-5.5
		c4.4-1.9,8.9-1.9,12.9,0c4,1.9,7.4,4.9,9.4,9.4l2.5,6.4c7.4-1,14.8-1,21.7,0l2.5-6.4c3.4-8.9,13.3-12.9,22.3-9.4l13.9,5.5
		c4,1.9,7.4,4.9,9.4,9.4c1.9,4.4,1.9,8.9,0,12.9l-2.5,6.4c5.9,4.4,10.9,9.9,15.4,15.4l6.5-2.5c4.4-1.9,8.9-1.9,12.9,0
		c4,1.9,7.4,4.9,9.4,9.4l5.5,13.9c1.9,4,1.9,8.9,0,12.9C318.2,90.9,314.8,94.3,310.8,95.8L310.8,95.8L310.8,95.8z M213.8,140.8v16.3
		c26.2,0,47.5-21.7,47.5-48s-21.7-47.5-47.5-47.5h-0.5c-26.2,0-47.5,21.7-47.5,48h16.3c0-17.3,13.9-31.2,31.2-31.6
		c8.4,0,16.3,3,22.3,8.9s9.4,13.9,9.4,21.7C245,126.5,231.1,140.8,213.8,140.8L213.8,140.8L213.8,140.8z M138.7,291.2v0.5h-17.3
		v-0.5c-15.4-1.9-27.7-8-37.1-18.8c-24.7-27.7-20.3-75.2-19.8-79.7c2.5-54.4,42.6-67.3,65.8-66.8c23.2-1,63.3,12.4,65.8,66.8
		c0.5,4.4,4.4,51.9-19.8,79.7C166.4,282.8,154,289.2,138.7,291.2L138.7,291.2z M163.9,261.5c20.3-23.2,15.8-66.8,15.8-67.3v-0.5
		c-2.5-50.4-41.1-51.4-48.9-51h-2.6c-10.4,0-45,3.4-47.5,51v0.5c0,0.5-4.4,44,15.8,67.3c8,8.9,18.8,13.9,33.1,13.9h1
		C144.6,274.9,155.4,270.4,163.9,261.5L163.9,261.5z M232.1,317.4c-28.7-7.4-52.5-23.8-52.9-24.2l-9.9,13.9c1,1,26.7,18.8,58.4,26.7
		c16.8,4.4,17.8,24.7,16.8,37.1v1c0,6.9-0.5,18.3-1.9,22.3l15.4,5.9c3.4-8.4,3-24.2,3-28.2C263.3,342.2,253,322.8,232.1,317.4
		L232.1,317.4L232.1,317.4z M33.3,333.2c32.1-8,57.4-25.7,58.4-26.7l-9.4-13.3c0,0-24.2,16.8-52.9,24.2
		c-20.8,5.5-31.2,24.7-29.1,53.4c0,4,0,20.3,3.4,28.2l15.4-5.9c-1.5-4-1.9-15.4-1.9-22.3v-1C15.5,358.4,16.5,337.6,33.3,333.2
		L33.3,333.2L33.3,333.2z"/>
</g>
</svg>
