<?xml version="1.0" encoding="UTF-8"?><svg id="Calque_1" xmlns="http://www.w3.org/2000/svg" viewBox="0 0 800 800"><path d="m579.58,241.51c-21.06-21.74-49.65-33.84-80.53-34.09-31.55-.59-61.84,12.1-83.74,33.92l-11.84,11.76-19.79-19.62c-44.49-43.99-114.87-44.75-160.21-1.52-43.9,41.79-47.79,110.9-8.8,157.34l29.86,35.53-8.8,8.8c-12.35,12.35-12.35,32.4.08,44.83l.51.42c6.01,6.01,13.87,9.22,22.33,9.22,1.1,0,2.2-.08,3.3-.17-.93,9.14,2.11,18.69,9.05,25.63l.51.51c6.01,6.01,13.96,9.3,22.42,9.3,1.27,0,2.45-.08,3.64-.25-1.1,9.3,1.95,18.95,9.05,26.05l.51.51h0c6.18,6.18,14.3,9.22,22.42,9.22,1.1,0,2.2-.08,3.3-.17-.08,1.1-.17,2.2-.17,3.3,0,8.46,3.3,16.41,9.3,22.42l.51.51c6.01,6.01,13.96,9.3,22.42,9.3s16.41-3.3,22.42-9.3l6.85-6.85,11.08,11.59c6.09,6.43,14.38,10.07,23.26,10.32h.85c8.54,0,16.66-3.21,22.92-9.14,6.68-6.34,10.24-15.06,10.32-24.02,8.21,0,16.5-3.05,22.84-9.14,7.27-6.94,10.74-16.58,10.24-26.05,1.86.34,3.81.51,5.67.51,8.21,0,16.5-3.05,22.92-9.14,6.51-6.18,10.15-14.55,10.32-23.52,0-1.44-.08-2.96-.17-4.4,1.69.25,3.3.42,4.99.42,8.12,0,16.24-3.05,22.59-9.14,6.51-6.18,10.15-14.55,10.24-23.52.08-8.97-3.38-17.34-9.81-23.6l-9.98-9.81,27.41-28.08c43.14-44.83,43.31-114.96-.25-159.88h0Zm-308.75,227.29c-6.6,6.6-18.1,6.6-24.78,0l-.51-.51c-6.85-6.85-6.85-17.93,0-24.78l13.2-13.2c.08-.08.25-.25.34-.34l34.26-34.26c3.3-3.3,7.7-5.16,12.35-5.16s9.05,1.86,12.86,5.67c3.3,3.3,5.16,7.7,5.16,12.35s-1.78,9.05-5.16,12.43l-47.71,47.79Zm35.27,35.27c-6.6,6.6-18.1,6.6-24.78,0l-.51-.51c-6.85-6.85-6.85-17.93,0-24.78l47.79-47.79.08-.08c6.68-6.51,17.59-6.94,25.12.59,3.3,3.3,5.16,7.7,5.16,12.35s-1.78,9.05-5.16,12.35l-47.71,47.88Zm35.53,35.61l-.08.08c-6.85,6.77-17.93,6.68-24.7-.08l-.51-.51c-6.85-6.85-6.85-17.93,0-24.78l47.79-47.79c6.6-6.6,17.68-7.11,25.21.51,6.85,6.85,6.85,17.93,0,24.78l-47.71,47.79Zm35.27,35.19c-6.6,6.6-18.19,6.6-24.78,0l-.51-.51c-3.3-3.3-5.16-7.7-5.16-12.35s1.86-9.05,5.16-12.35l47.79-47.79c3.3-3.3,7.7-5.16,12.35-5.16s9.05,1.86,12.86,5.67c3.3,3.3,5.16,7.7,5.16,12.35s-1.86,9.05-5.16,12.35l-47.71,47.79Zm65.13,5.75c-3.72,3.47-8.54,5.5-13.62,5.24-5.08-.08-9.9-2.2-13.37-5.92l-11.34-11.84,23.18-23.18,11.08,11.59c2.88,3.05,6.18,5.41,9.81,7.11.93,6.18-1.1,12.6-5.75,17h0Zm109.97-131.28c3.64,3.55,5.58,8.37,5.58,13.45-.08,5.08-2.11,9.9-5.84,13.37-7.36,7.02-18.78,6.94-26.05-.25l-27.49-27.32h0l-39.08-38.66c-2.71-2.71-7.27-2.71-9.98.08-2.71,2.79-2.71,7.27.08,9.98l38.91,38.57,26.39,26.98c3.64,3.72,5.5,8.54,5.41,13.7s-2.2,9.98-5.92,13.45c-7.61,7.27-19.71,7.02-27.07-.68l-69.53-73.09c-2.71-2.79-7.19-2.96-9.98-.25s-2.96,7.19-.25,9.98l69.62,73.17,1.1,1.1c5.16,7.61,4.14,18.1-2.62,24.53-7.61,7.19-19.71,7.02-26.98-.68l-11.42-12.01c4.65-5.67,7.19-12.69,7.19-20.13,0-8.46-3.3-16.41-9.73-22.84-6.85-6.77-16.5-9.73-25.8-8.8,1.02-9.3-2.11-19.12-9.47-26.48-6.94-6.85-16.75-9.81-26.14-8.71,1.1-9.39-1.95-19.37-9.47-26.82-6.77-6.77-16.5-9.73-25.72-8.8.17-1.18.17-2.37.17-3.64,0-8.46-3.3-16.41-9.73-22.84-12.01-11.93-32.82-11.93-44.75,0l-29.01,29.01-29.01-34.6c-34.17-40.69-30.79-101.34,7.7-137.97,39.76-37.81,101.51-37.22,140.5,1.35l19.71,19.54-73.25,72.75c-5.16,5.16-7.7,12.18-6.94,19.46.76,7.11,4.65,13.37,10.66,17.26,4.14,2.62,8.46,4.91,13.03,6.68,27.24,11,58.37,5.5,81.21-14.3l25.63-22.16,108.36,106.58Zm-10.24-29.78l-86.03-84.76c7.02-3.13,18.36-6.94,32.31-6.77,30.79.59,45.76-13.87,52.7-26.14,1.95-3.38.76-7.7-2.62-9.64-3.38-1.95-7.7-.76-9.64,2.71-7.36,12.94-20.47,19.29-40.1,18.95-27.58-.08-47.62,12.94-48.47,13.53-.25.17-.42.34-.68.51l-30.45,26.39c-18.61,16.07-44.75,20.72-66.66,11.84-3.72-1.52-7.36-3.38-10.66-5.5-3.21-2.03-3.98-5.16-4.14-6.85-.34-2.96.68-5.84,2.79-7.95l95.16-94.57c19.03-18.95,45.51-29.78,72.66-29.78h.93c27.07.25,52.11,10.83,70.55,29.78,38.15,39.33,38.07,100.83-.17,140.08l-27.49,28.17Z" fill="#a88d44"/></svg>