<?xml version="1.0" encoding="utf-8"?>
<!-- Generator: Adobe Illustrator 27.3.1, SVG Export Plug-In . SVG Version: 6.00 Build 0)  -->
<svg version="1.1" id="Calque_1" xmlns="http://www.w3.org/2000/svg" xmlns:xlink="http://www.w3.org/1999/xlink" x="0px" y="0px"
	 viewBox="0 0 368.7 404" style="enable-background:new 0 0 368.7 404;" xml:space="preserve">
<style type="text/css">
	.st0{fill:#A88D44;stroke:#A88D44;stroke-width:4;stroke-miterlimit:10;}
</style>
<g>
	<path class="st0" d="M37.7,401c-2.6,0-5.2-0.9-7.3-2.5c-2-1.6-3.6-3.9-4.2-6.5L3.4,295.6c-0.7-2.9-0.2-6,1.2-8.6
		c1.5-2.6,3.9-4.5,6.9-5.4l54.4-16.3c1.1-0.4,2.3-0.5,3.4-0.5c2,0,4.1,0.6,5.9,1.6c2.8,1.6,4.8,4.4,5.6,7.5l1.1,4.5l14.1-5.9
		c11.6-5,23.9-7.6,36.5-7.6c5.2,0,10.4,0.4,15.5,1.3c12.5,2,24.4,7.4,34.1,15.6c1.8,1.5,4,2.4,6.4,2.4h56.3c7.1,0,13.7,3.2,18.2,8.8
		c3.9,5,5.7,11.3,4.8,17.5l68.5-32.3c2.4-1.2,5.1-1.8,7.8-1.8c1.5,0,3,0.2,4.5,0.6c4.1,1,7.7,3.4,10.2,6.8c0,0.1,0.1,0.1,0.1,0.1
		c2.9,3.9,4.1,9,3.3,13.9c-0.8,4.9-3.7,9.3-7.7,12l-0.1,0.1l-132.5,82c-5.6,3.8-12.2,5.8-19,5.8c-4.5,0-8.9-0.9-13.1-2.6l-70.7-29
		c-3.9-1.5-7.9-2.3-12-2.3c-1.6,0-3.2,0.2-4.7,0.4l1.5,6c0.7,2.9,0.3,6-1.2,8.6s-3.9,4.5-6.9,5.4l-54.4,16.3
		C40,400.8,38.8,401,37.7,401L37.7,401L37.7,401z M14,289.8c-1.7,0.5-2.6,2.2-2.3,3.9L34.5,390c0.2,0.9,0.7,1.6,1.5,2
		c0.5,0.3,1,0.4,1.6,0.4c0.3,0,0.7-0.1,0.9-0.2L93,376c1.7-0.5,2.6-2.2,2.3-3.9l-22.8-96.3c-0.4-1.5-1.7-2.5-3.1-2.5
		c-0.3,0-0.6,0.1-0.9,0.1C68.4,273.4,14,289.8,14,289.8L14,289.8z M107,355.1c5.2,0,10.4,1,15.3,3l70.7,29c3.1,1.3,6.4,2,9.8,2
		c5.2,0,10.1-1.5,14.4-4.5l132.5-81.9c2.1-1.5,3.6-3.8,4-6.4v-0.1c0.4-2.5-0.2-5.2-1.8-7.3c-1.3-1.8-3.3-3.1-5.5-3.6
		c-0.8-0.2-1.6-0.3-2.3-0.3c-1.5,0-2.8,0.3-4.2,1l-77.7,36.7c-4.4,5-10.7,7.9-17.4,7.9h-58.3c-2.3,0-4.3-1.9-4.3-4.3
		s1.9-4.3,4.3-4.3h58.3c4.4,0,8.5-2,11.3-5.3c0.1-0.1,0.1-0.2,0.2-0.3c2.3-2.9,3.4-6.5,3.1-10.1s-2-7.1-4.7-9.6s-6.2-3.9-9.9-3.9
		h-56.3c-4.5,0-8.8-1.6-12-4.5c-8.5-7.1-18.9-11.9-30-13.6c-4.7-0.8-9.4-1.2-14.1-1.2c-11.5,0-22.6,2.3-33.2,6.9l-15.4,6.5
		l16.3,68.8C102.4,355.3,104.7,355.1,107,355.1L107,355.1z"/>
	<path class="st0" d="M69.3,265.9c1.9,0,3.7,0.5,5.4,1.5c2.5,1.5,4.4,3.9,5.1,6.9l1.4,5.8l15.3-6.4c11.5-5,23.7-7.4,36.1-7.4
		c5.1,0,10.3,0.4,15.4,1.3c12.4,2,24,7.4,33.5,15.4c2,1.8,4.5,2.7,7.1,2.7H245c6.7,0,13.1,3.1,17.3,8.4c4.2,5.2,5.7,12.2,4.2,18.8
		l70.5-33.3c2.3-1.1,4.8-1.6,7.4-1.6c1.4,0,2.8,0.1,4.2,0.5c3.9,1,7.2,3.2,9.6,6.4l0,0c2.8,3.8,3.9,8.5,3.1,13.1s-3.4,8.8-7.4,11.4
		l0,0L221.3,391c-5.5,3.7-12,5.6-18.5,5.6c-4.3,0-8.6-0.8-12.6-2.5l-70.7-29c-3.9-1.6-8.2-2.4-12.4-2.4c-2,0-4.1,0.2-6.1,0.6
		l1.7,7.2c0.7,2.6,0.2,5.5-1.2,7.8c-1.4,2.4-3.6,4.2-6.2,5l-54.4,16.3c-1,0.3-2,0.4-3.1,0.4l0,0c-2.4,0-4.7-0.8-6.6-2.3
		c-1.9-1.5-3.2-3.6-3.8-5.9l0,0L4.5,295.4c-0.7-2.7-0.2-5.5,1.2-7.9s3.6-4.2,6.2-4.9l54.4-16.3C67.3,266,68.4,265.9,69.3,265.9
		 M37.7,393.6c0.4,0,0.9-0.1,1.2-0.2L93.4,377l0,0c2.2-0.7,3.5-2.9,3-5.2l-22.8-96.3c-0.4-2-2.2-3.4-4.2-3.4c-0.4,0-0.9,0.1-1.2,0.2
		l0,0l-54.4,16.3c-2.2,0.7-3.5,2.9-3,5.2l22.8,96.3c0.3,1.2,1,2.2,2,2.8C36.3,393.4,37,393.6,37.7,393.6 M99.4,357
		c2.5-0.5,5-0.7,7.6-0.7c5.1,0,10.1,1,14.9,2.9l70.7,29c3.3,1.4,6.8,2,10.2,2c5.2,0,10.5-1.5,15-4.6l132.5-81.8
		c2.4-1.7,4-4.2,4.5-7.1l0,0c0.5-2.9-0.2-5.9-2-8.3c-1.5-2-3.7-3.4-6-4c-0.9-0.2-1.8-0.3-2.6-0.3c-1.6,0-3.1,0.4-4.6,1l-77.9,36.8
		c-4.2,4.9-10.3,7.7-16.7,7.7h-58.3c-1.8,0-3.2-1.5-3.2-3.2s1.5-3.2,3.2-3.2H245c4.7,0,9.2-2.1,12.1-5.8l0.2-0.2
		c2.4-3.1,3.6-7,3.3-10.9s-2.1-7.6-5-10.3c-2.9-2.7-6.7-4.2-10.6-4.2h-56.3c-4.2,0-8.2-1.5-11.3-4.2c-8.8-7.3-19.3-12.1-30.5-13.9
		c-4.7-0.8-9.5-1.2-14.2-1.2c-11.5,0-23,2.3-33.6,7l0,0l-16.3,6.8L99.4,357 M69.4,263.6L69.4,263.6c-1.2,0-2.5,0.2-3.7,0.5
		l-54.4,16.3c-3.1,1-5.8,3.1-7.5,5.9s-2.1,6.2-1.4,9.4l22.8,96.3v0.1c0.7,2.8,2.3,5.3,4.5,7.1c2.3,1.8,5.1,2.8,7.9,2.8
		c1.3,0,2.6-0.2,3.7-0.5l54.4-16.3c3.1-1,5.8-3.1,7.4-5.9c1.7-2.8,2.1-6.2,1.4-9.4l-1.2-4.9c1.2-0.2,2.3-0.2,3.4-0.2
		c4,0,7.9,0.8,11.6,2.3l70.7,29c4.3,1.8,8.8,2.7,13.5,2.7c7,0,13.9-2,19.7-6l132.5-81.8c0.1,0,0.1-0.1,0.2-0.1
		c4.3-2.9,7.3-7.6,8.2-12.8c0.9-5.1-0.4-10.4-3.4-14.7c0-0.1-0.1-0.1-0.2-0.1c-2.7-3.6-6.5-6.1-10.9-7.2c-1.5-0.4-3.1-0.6-4.7-0.6
		c-2.8,0-5.7,0.7-8.2,1.8l-66.5,31.5c0.4-5.9-1.5-11.7-5.2-16.4c-4.6-5.8-11.5-9.2-19-9.2h-56.3c-2.1,0-4.1-0.7-5.7-2.1l0,0
		c-9.9-8.3-21.9-13.8-34.6-15.9c-5.2-0.9-10.5-1.3-15.8-1.3c-12.8,0-25.2,2.5-37,7.7l-12.9,5.4l-0.8-3.3c-0.8-3.4-3.1-6.4-6.1-8.2
		C73.9,264.2,71.6,263.7,69.4,263.6L69.4,263.6L69.4,263.6z M68.9,274.5c0.1-0.1,0.4-0.1,0.5-0.1c1,0,1.9,0.7,2.1,1.7l22.8,96.3
		c0.3,1.1-0.4,2.3-1.5,2.5h-0.1l-54.3,16.3c-0.2,0.1-0.4,0.1-0.7,0.1c-0.4,0-0.7-0.1-1.1-0.3c-0.5-0.3-0.9-0.8-1-1.4l-22.8-96.3
		c-0.3-1.1,0.4-2.3,1.5-2.5l54.4-16.3C68.8,274.5,68.8,274.5,68.9,274.5L68.9,274.5L68.9,274.5z M99.7,281.4L99.7,281.4
		c10.5-4.5,21.5-6.8,32.8-6.8c4.7,0,9.3,0.4,13.9,1.2c10.9,1.8,21,6.4,29.5,13.4c3.5,3.1,8,4.8,12.7,4.8h56.3c3.4,0,6.6,1.2,9.1,3.6
		c2.5,2.3,4,5.5,4.3,8.8s-0.7,6.7-2.8,9.3c-0.1,0.1-0.1,0.2-0.2,0.3c-2.5,3.1-6.4,4.9-10.4,4.9h-58.3c-3,0-5.4,2.4-5.4,5.4
		s2.4,5.4,5.4,5.4h58.3c6.9,0,13.5-2.9,18.1-8.1l77.5-36.5c1.2-0.5,2.4-0.8,3.7-0.8c0.7,0,1.4,0.1,2.1,0.3c1.9,0.5,3.7,1.6,4.8,3.2
		c1.4,1.8,2,4.2,1.6,6.4c0,0.1,0,0.1-0.1,0.2c-0.4,2.3-1.7,4.3-3.5,5.6l-132.4,81.7c0,0-0.1,0-0.1,0.1c-4.1,2.8-8.9,4.2-13.8,4.2
		c-3.2,0-6.4-0.7-9.4-1.8l-70.7-29c-5-2-10.3-3.1-15.7-3.1c-2,0-3.9,0.2-5.9,0.4l-15.9-67L99.7,281.4L99.7,281.4L99.7,281.4z"/>
	<path class="st0" d="M226.6,257.3c-5,0-9.4-3.4-10.6-8.3l-3.6-14.4c-0.2-0.9-0.9-1.5-1.8-1.8c-8.7-2.3-17-5.8-24.8-10.2
		c-0.4-0.2-0.9-0.4-1.3-0.4s-0.9,0.1-1.2,0.4l-12.8,7.7c-1.7,1-3.6,1.6-5.7,1.6c-2.9,0-5.7-1.2-7.7-3.2l-16.9-16.9
		c-3.6-3.6-4.2-9-1.7-13.4l7.7-12.8c0.4-0.7,0.4-1.8,0-2.5c-4.5-7.8-8-16.1-10.3-24.8c-0.2-0.9-0.9-1.6-1.8-1.8l-14.4-3.6
		c-4.9-1.2-8.3-5.6-8.3-10.6v-23.9c0-5,3.4-9.4,8.3-10.6l14.4-3.6c0.9-0.2,1.5-0.9,1.8-1.8c2.3-8.7,5.8-17,10.3-24.8
		c0.4-0.8,0.5-1.8,0-2.5l-7.7-12.7c-2.6-4.3-2-9.9,1.6-13.4l17.1-17c2-2,4.8-3.2,7.7-3.2c2,0,3.9,0.5,5.7,1.6l12.8,7.7
		c0.4,0.2,0.8,0.4,1.2,0.4s0.9-0.1,1.2-0.4c7.8-4.4,16.1-7.9,24.8-10.3c0.9-0.2,1.6-0.9,1.8-1.8l3.6-14.4c1.2-4.9,5.5-8.3,10.6-8.3
		h23.9c5,0,9.4,3.4,10.6,8.3l3.6,14.4c0.2,0.9,1,1.5,1.8,1.8c8.7,2.3,17,5.8,24.8,10.3c0.4,0.2,0.9,0.4,1.3,0.4s0.9-0.1,1.2-0.4
		l12.8-7.7c1.7-1,3.7-1.6,5.7-1.6c2.9,0,5.7,1.2,7.7,3.2L337,48.9c3.6,3.6,4.2,9.1,1.6,13.4L330.8,75c-0.4,0.7-0.4,1.8,0,2.5
		c4.5,7.8,8,16.1,10.3,24.8c0.2,0.9,0.9,1.6,1.8,1.8l14.4,3.6c4.9,1.2,8.3,5.6,8.3,10.6v23.9c0,5-3.4,9.4-8.3,10.6l-14.4,3.6
		c-0.9,0.2-1.5,0.9-1.8,1.8c-2.3,8.7-5.8,17-10.3,24.8c-0.4,0.8-0.5,1.8,0,2.5l7.7,12.8c2.6,4.3,2,9.9-1.6,13.4L320,228.6
		c-2,2-4.8,3.2-7.7,3.2l0,0c-2,0-3.9-0.5-5.7-1.6l-12.8-7.7c-0.4-0.2-0.8-0.3-1.2-0.3s-0.9,0.1-1.2,0.4c-7.8,4.5-16.1,7.9-24.8,10.3
		c-0.9,0.2-1.6,0.9-1.8,1.8l-3.6,14.4c-1.2,4.9-5.5,8.3-10.6,8.3C250.5,257.3,226.6,257.3,226.6,257.3z M224.3,247
		c0.3,1.1,1.2,1.8,2.3,1.8h23.9c1.1,0,2-0.7,2.3-1.8l3.6-14.4c1-3.9,4-6.9,7.9-8c8-2.2,15.6-5.3,22.8-9.4c1.7-1,3.6-1.5,5.5-1.5
		s3.9,0.5,5.6,1.5l12.8,7.7c0.4,0.2,0.8,0.4,1.2,0.4c0.7,0,1.2-0.2,1.7-0.7l16.9-16.9c0.8-0.8,1-2,0.4-2.9l-7.7-12.8
		c-2-3.4-2-7.7-0.1-11.2c4.1-7.1,7.3-14.8,9.4-22.8c1-3.9,4.1-6.9,8-7.9l14.4-3.6c1.1-0.3,1.8-1.2,1.8-2.3v-23.9
		c0-1.1-0.7-2-1.8-2.3l-14.5-3.6c-3.9-1-6.9-4-8-7.9c-2.2-8-5.3-15.6-9.4-22.8c-2-3.4-2-7.7,0.1-11.2l7.7-12.7
		c0.6-0.9,0.4-2.1-0.4-2.9L314,38c-0.4-0.4-1-0.7-1.7-0.7c-0.4,0-0.9,0.1-1.2,0.4l-12.8,7.7c-1.7,1-3.6,1.5-5.6,1.5
		s-3.9-0.5-5.5-1.5c-7.1-4.1-14.8-7.3-22.8-9.4c-3.9-1-6.9-4.1-7.9-7.9l-3.6-14.5c-0.3-1.1-1.2-1.8-2.3-1.8h-23.9
		c-1.1,0-2,0.7-2.3,1.8L220.8,28c-1,3.9-4,6.9-7.9,7.9c-8,2.1-15.6,5.3-22.8,9.4c-1.7,0.9-3.6,1.5-5.5,1.5s-3.9-0.5-5.6-1.5
		l-12.8-7.7c-0.4-0.2-0.8-0.4-1.2-0.4c-0.7,0-1.2,0.2-1.7,0.7l-16.9,16.9c-0.8,0.8-1,2-0.4,2.9l7.7,12.8c2,3.4,2,7.7,0.1,11.2
		c-4.1,7.1-7.3,14.8-9.4,22.8c-1,3.9-4.1,6.9-8,7.9h-0.1l-14.4,3.6c-1.1,0.3-1.8,1.2-1.8,2.3v23.9c0,1.1,0.7,2,1.8,2.3l14.4,3.6
		c3.9,1,6.9,4,8,7.9c2.2,8,5.3,15.6,9.4,22.8c2,3.4,2,7.7-0.1,11.2l-7.7,12.8c-0.6,1-0.4,2.2,0.4,2.9l16.9,16.9
		c0.4,0.4,1,0.7,1.7,0.7c0.4,0,0.9-0.1,1.2-0.4l12.8-7.7c1.7-1,3.6-1.5,5.6-1.5s3.9,0.5,5.6,1.5c7.1,4.1,14.8,7.3,22.8,9.4
		c3.9,1,6.9,4.1,7.9,8v0.1L224.3,247L224.3,247z"/>
	<path class="st0" d="M250.5,4.2c4.5,0,8.5,3.1,9.6,7.5l3.6,14.4c0.4,1.2,1.3,2.2,2.5,2.6c8.6,2.3,16.8,5.8,24.5,10.1
		c0.6,0.4,1.2,0.5,1.8,0.5c0.6,0,1.2-0.1,1.8-0.5l12.8-7.7c1.6-0.9,3.4-1.4,5.1-1.4c2.5,0,5.1,1,7,2.9l16.9,16.9
		c3.2,3.2,3.8,8.2,1.5,12.1l-7.7,12.8c-0.7,1.1-0.7,2.5,0,3.6c4.4,7.7,7.8,16,10.1,24.5c0.3,1.2,1.3,2.3,2.5,2.5l14.4,3.6
		c4.4,1.1,7.5,5,7.5,9.6v23.9l0,0c0,4.5-3.1,8.5-7.4,9.6l-14.4,3.6c-1.2,0.3-2.3,1.3-2.5,2.5c-2.3,8.6-5.8,16.8-10.1,24.5
		c-0.7,1.1-0.7,2.5,0,3.6l0,0l7.7,12.8c2.3,3.9,1.8,8.9-1.5,12.1l-16.9,16.9c-1.9,1.9-4.5,2.9-7,2.9c-1.8,0-3.5-0.4-5.1-1.4
		l-12.7-7.9c-0.6-0.3-1.2-0.5-1.8-0.5c-0.7,0-1.2,0.1-1.8,0.5c-7.7,4.4-16,7.8-24.5,10.1c-1.2,0.3-2.3,1.3-2.5,2.5l-3.6,14.4
		c-1.1,4.4-5,7.5-9.6,7.5h-23.9c-4.5,0-8.5-3.1-9.6-7.5l-3.6-14.4c-0.4-1.2-1.3-2.3-2.5-2.5c-8.5-2.3-16.8-5.8-24.5-10.1
		c-0.6-0.4-1.2-0.5-1.8-0.5c-0.6,0-1.2,0.1-1.8,0.5l-12.8,7.7c-1.6,1-3.4,1.4-5.1,1.4c-2.5,0-5.1-1-7-2.9l-16.9-16.9
		c-3.2-3.2-3.8-8.2-1.5-12.1l0,0l7.7-12.8c0.7-1.1,0.7-2.5,0-3.6c-4.5-7.7-7.8-16-10.1-24.5c-0.3-1.2-1.3-2.3-2.5-2.5l-14.4-3.6
		c-4.4-1.1-7.5-5-7.5-9.6v-23.9c0-4.5,3.1-8.5,7.5-9.6l14.4-3.6c1.2-0.4,2.3-1.3,2.5-2.5c2.3-8.5,5.8-16.8,10.1-24.5
		c0.7-1.1,0.7-2.5,0-3.6l-7.7-12.8c-2.3-3.9-1.8-8.8,1.5-12l16.9-16.9c1.9-1.9,4.5-2.9,7-2.9c1.8,0,3.5,0.4,5.1,1.4l12.8,7.7
		c0.6,0.3,1.2,0.5,1.8,0.5s1.2-0.1,1.8-0.5c7.7-4.4,16-7.8,24.5-10.1c1.2-0.3,2.3-1.3,2.5-2.6l3.6-14.4c1.1-4.4,5-7.5,9.6-7.5h23.8
		L250.5,4.2 M226.6,10.6L226.6,10.6c-1.6,0-3,1.1-3.4,2.6l-3.6,14.4c-0.9,3.5-3.6,6.2-7.1,7.1c-8,2.2-15.8,5.4-23,9.5
		c-1.5,0.9-3.3,1.3-5,1.3s-3.5-0.4-5.1-1.4l-12.8-7.7c-0.6-0.4-1.2-0.5-1.8-0.5c-0.9,0-1.8,0.4-2.5,1L145.5,54
		c-1.2,1.2-1.4,2.9-0.5,4.3l7.7,12.8c1.8,3.1,1.8,6.9,0.1,10.1c-4.2,7.2-7.4,15-9.6,23c-1,3.5-3.6,6.2-7.1,7.1l0,0l-14.4,3.6
		c-1.5,0.4-2.6,1.8-2.6,3.4v23.9c0,1.6,1.1,3,2.6,3.4l14.4,3.6c3.5,0.9,6.2,3.6,7.1,7.1c2.2,8,5.4,15.8,9.6,23
		c1.8,3.1,1.8,7-0.1,10.1L145,202c-0.8,1.4-0.6,3.1,0.5,4.3l16.9,16.9c0.7,0.7,1.5,1,2.5,1c0.6,0,1.2-0.1,1.8-0.5l12.8-7.7
		c1.5-0.9,3.3-1.4,5-1.4l0,0c1.8,0,3.5,0.4,5,1.3c7.2,4.2,15,7.4,23,9.6c3.5,1,6.2,3.6,7.1,7.1l0,0l3.6,14.4
		c0.4,1.5,1.8,2.6,3.4,2.6h23.9c1.6,0,3-1.1,3.4-2.6l3.6-14.4c0.9-3.5,3.6-6.2,7.1-7.1c8-2.2,15.8-5.4,23-9.6c1.5-0.9,3.3-1.4,5-1.4
		s3.5,0.4,5.1,1.4l12.8,7.7c0.6,0.4,1.2,0.5,1.8,0.5c0.9,0,1.8-0.4,2.5-1l16.9-16.9c1.1-1.2,1.3-2.9,0.5-4.3l-7.7-12.8
		c-1.8-3.1-1.8-6.9-0.1-10.1c4.2-7.2,7.4-15,9.6-23c1-3.5,3.7-6.2,7.2-7.1l14.4-3.6c1.5-0.4,2.6-1.8,2.6-3.4v-23.9
		c0-1.6-1.1-3-2.6-3.4l0,0l-14.4-3.6c-3.5-0.9-6.2-3.6-7.2-7.1c-2.2-8-5.4-15.8-9.6-23c-1.8-3.1-1.8-7,0.1-10.1l7.7-12.7
		c0.8-1.4,0.6-3.1-0.5-4.3L314.7,37c-0.7-0.7-1.5-1-2.5-1c-0.6,0-1.2,0.1-1.8,0.5l-12.7,7.8c-1.5,0.9-3.4,1.4-5.1,1.4
		s-3.4-0.4-5-1.3c-7.2-4.2-15-7.4-23-9.6c-3.5-0.9-6.2-3.6-7.1-7.1l0,0l-3.6-14.4c-0.4-1.5-1.8-2.6-3.4-2.6L226.6,10.6 M250.5,2
		h-23.9c-5.5,0-10.4,3.8-11.7,9.2l-3.6,14.4c-0.1,0.5-0.5,0.9-1,0.9h-0.1c-8.8,2.4-17.1,5.8-25,10.4h-0.1c-0.2,0.1-0.4,0.2-0.7,0.2
		s-0.4-0.1-0.7-0.2l-12.8-7.7c-1.9-1.2-4-1.8-6.2-1.8c-3.2,0-6.3,1.2-8.5,3.6L139.5,48c-3.9,3.9-4.7,10-1.8,14.7l7.7,12.7
		c0.2,0.4,0.2,1,0,1.4l0,0c-4.5,7.9-8,16.3-10.4,25l0,0c-0.1,0.5-0.5,0.9-1,1l-14.4,3.6c-5.4,1.3-9.2,6.1-9.2,11.7V142
		c0,5.5,3.8,10.4,9.2,11.7l14.4,3.6c0.4,0.1,0.8,0.5,1,1c2.4,8.8,5.9,17.2,10.4,25.1v0.1c0.3,0.4,0.3,1,0,1.4l-7.7,12.7
		c0,0,0,0.1-0.1,0.1c-2.8,4.7-2,10.8,1.8,14.7l16.9,16.9c2.3,2.3,5.3,3.5,8.5,3.5c2.2,0,4.4-0.6,6.2-1.8l12.8-7.7
		c0.2-0.1,0.4-0.1,0.7-0.1s0.5,0.1,0.7,0.2h0.1c7.9,4.5,16.3,8,25,10.4c0.5,0.1,0.9,0.5,1,1l3.6,14.4c1.3,5.4,6.1,9.2,11.7,9.2h23.9
		c5.5,0,10.4-3.8,11.7-9.2l3.6-14.4c0.1-0.4,0.5-0.8,1-1h0.1c8.8-2.4,17.1-5.8,25-10.4l0,0c0.2-0.1,0.4-0.2,0.7-0.2
		c0.2,0,0.4,0.1,0.7,0.1l12.7,7.7c1.9,1.2,4,1.8,6.2,1.8c3.2,0,6.3-1.2,8.5-3.6l16.9-16.9c3.9-3.9,4.7-10,1.8-14.7l-7.4-12.5l0,0
		c-0.2-0.4-0.2-1,0-1.4l0,0c4.5-7.9,8-16.3,10.4-25l0,0c0.2-0.5,0.5-0.9,1-1l14.4-3.6c5.4-1.3,9.1-6.1,9.1-11.7v-23.9
		c0-5.5-3.8-10.4-9.2-11.7l-14.4-3.6c-0.4-0.1-0.8-0.5-1-1V102c-2.4-8.8-5.8-17.1-10.4-25l0,0c-0.2-0.4-0.3-1,0-1.4l7.7-12.7
		c2.8-4.7,2.1-10.8-1.8-14.7l-16.9-16.9c-2.3-2.3-5.3-3.6-8.5-3.6c-2.2,0-4.4,0.6-6.2,1.8l-12.8,7.7c-0.2,0.1-0.4,0.1-0.7,0.1
		s-0.5-0.1-0.7-0.2h-0.1c-7.9-4.5-16.3-8-25-10.4c-0.5-0.1-0.9-0.5-1-0.9l-3.6-14.4C260.9,5.8,256.2,2,250.5,2L250.5,2L250.5,2z
		 M184.6,47.9c2.1,0,4.2-0.6,6.1-1.7c7.1-4,14.7-7.1,22.5-9.3c4.2-1.1,7.6-4.4,8.7-8.8l3.6-14.4c0.1-0.6,0.7-1,1.2-1h23.9
		c0.6,0,1.1,0.4,1.2,0.9l3.6,14.4v0.1c1.1,4.2,4.4,7.6,8.6,8.7c7.9,2.1,15.4,5.2,22.5,9.3c1.8,1.1,3.9,1.6,6,1.6s4.3-0.6,6.2-1.7
		l12.8-7.7c0.2-0.1,0.4-0.2,0.7-0.2c0.4,0,0.7,0.1,1,0.4L330,55.5c0.4,0.4,0.5,1.1,0.2,1.6l-7.7,12.7c-2.3,3.8-2.3,8.5-0.1,12.3
		c4,7.1,7.2,14.7,9.3,22.5c1.1,4.2,4.5,7.5,8.8,8.6l14.4,3.6h0.1c0.5,0.1,1,0.7,1,1.2V142c0,0.6-0.4,1.1-1,1.2l-14.4,3.6
		c-4.3,1.1-7.6,4.4-8.8,8.7c-2.1,7.9-5.2,15.4-9.3,22.5c-2.2,3.8-2.2,8.5,0.1,12.2l7.7,12.8c0.3,0.5,0.2,1.2-0.2,1.6l-16.9,16.9
		c-0.2,0.2-0.6,0.4-1,0.4c-0.2,0-0.4-0.1-0.7-0.2l-12.7-7.4c-1.9-1.1-4-1.7-6.2-1.7s-4.2,0.6-6.1,1.7c-7.1,4-14.7,7.1-22.5,9.3
		c-4.2,1.1-7.6,4.5-8.7,8.8l-3.6,14.4c-0.1,0.6-0.7,1-1.2,1h-23.9c-0.6,0-1.1-0.4-1.2-1l-3.6-14.3v-0.1c-1.1-4.2-4.4-7.6-8.7-8.8
		c-7.9-2.1-15.5-5.2-22.5-9.3c-1.9-1.1-4-1.6-6.1-1.6s-4.3,0.6-6.2,1.7l-12.8,7.7c-0.2,0.1-0.4,0.2-0.7,0.2c-0.4,0-0.7-0.1-1-0.4
		l-16.9-17.1c-0.4-0.4-0.5-1.1-0.2-1.6l7.7-12.8c2.3-3.8,2.3-8.5,0.1-12.3c-4-7.1-7.1-14.7-9.3-22.5c-1.1-4.2-4.5-7.6-8.8-8.6
		l-14.4-3.6c-0.6-0.1-1-0.7-1-1.2v-23.9c0-0.6,0.4-1.1,1-1.2l14.4-3.6h0.1c4.2-1.1,7.6-4.4,8.8-8.7c2.1-7.9,5.2-15.5,9.3-22.5
		c2.2-3.8,2.2-8.5-0.1-12.2l-7.7-12.8c-0.3-0.5-0.2-1.2,0.2-1.6l16.9-16.9c0.2-0.2,0.6-0.4,1-0.4c0.2,0,0.4,0.1,0.7,0.2l12.8,7.7
		C180.2,47.3,182.4,47.9,184.6,47.9L184.6,47.9L184.6,47.9z"/>
	<path class="st0" d="M238.6,192c-16.5,0-32-6.4-43.7-18.1c-11.7-11.7-18.1-27.2-18.1-43.7s6.4-32,18.1-43.7
		c11.7-11.7,27.2-18.1,43.7-18.1s32,6.4,43.7,18.1c11.7,11.7,18.1,27.2,18.1,43.7s-6.4,32-18.1,43.7
		C270.6,185.6,255.1,192,238.6,192z M238.6,77c-14.2,0-27.6,5.5-37.6,15.6c-10.1,10.1-15.6,23.4-15.6,37.6s5.5,27.6,15.6,37.6
		c10.1,10.1,23.4,15.6,37.6,15.6s27.6-5.5,37.6-15.6c10.1-10.1,15.6-23.4,15.6-37.6s-5.5-27.6-15.6-37.6
		C266.2,82.5,252.8,77,238.6,77L238.6,77z"/>
	<path class="st0" d="M238.6,69.5L238.6,69.5c16.1,0,31.5,6.4,42.9,17.8c11.4,11.4,17.8,26.8,17.8,42.9s-6.4,31.5-17.8,43
		c-11.4,11.4-26.8,17.8-42.9,17.8s-31.5-6.4-43-17.8c-11.4-11.4-17.8-26.8-17.8-43s6.4-31.5,17.8-42.9
		C207.1,75.9,222.5,69.5,238.6,69.5 M238.6,184.5L238.6,184.5c14.4,0,28.2-5.8,38.4-15.9s15.9-24,15.9-38.4s-5.7-28.2-15.9-38.4
		s-24-15.9-38.4-15.9s-28.2,5.7-38.4,15.9s-15.9,24-15.9,38.4s5.7,28.2,15.9,38.4C210.3,178.8,224.2,184.5,238.6,184.5L238.6,184.5
		 M238.6,67.3c-16.8,0-32.6,6.6-44.5,18.5c-11.9,11.9-18.5,27.6-18.5,44.5s6.6,32.6,18.5,44.5c11.9,11.9,27.6,18.5,44.5,18.5
		s32.6-6.6,44.5-18.5c11.9-11.9,18.5-27.6,18.5-44.5s-6.6-32.6-18.5-44.4C271.2,73.9,255.4,67.4,238.6,67.3
		C238.6,67.3,238.6,67.3,238.6,67.3L238.6,67.3L238.6,67.3z M238.6,182.3L238.6,182.3c-14,0-27.1-5.4-36.9-15.2
		c-9.9-9.9-15.2-23-15.2-36.8s5.4-27,15.2-36.8c9.9-9.9,22.9-15.2,36.8-15.2s27,5.4,36.8,15.2c9.9,9.9,15.2,22.9,15.2,36.8
		s-5.5,27-15.3,36.8C265.6,177,252.5,182.4,238.6,182.3L238.6,182.3L238.6,182.3z"/>
</g>
</svg>
