<?xml version="1.0" encoding="UTF-8"?><svg id="Calque_1" xmlns="http://www.w3.org/2000/svg" viewBox="0 0 800 800"><path d="m273.02,389.33l-42.78-1.3c-2.69-.09-4.95,2-5.03,4.69s2,4.95,4.69,5.03l42.78,1.3h.17c2.6,0,4.77-2.08,4.86-4.69.09-2.69-2-4.95-4.69-5.03h0Z" fill="#a88d44" stroke="#a88d44" stroke-miterlimit="10" stroke-width="3"/><path d="m569.76,388.03l-42.78,1.3c-2.69.09-4.77,2.34-4.69,5.03.09,2.6,2.26,4.69,4.86,4.69h.17l42.78-1.3c2.69-.09,4.77-2.34,4.69-5.03-.17-2.6-2.34-4.69-5.03-4.69h0Z" fill="#a88d44" stroke="#a88d44" stroke-miterlimit="10" stroke-width="3"/><path d="m452.28,297.87c-15.53-9.8-33.67-14.92-52.32-14.92s-36.7,5.12-52.32,14.92c-15.01,9.46-27.07,22.73-34.88,38.44-7.64,15.53-10.76,32.8-8.94,50.07,2,18.83,9.54,36.96,22.56,53.88,4.34,5.64,8.24,10.24,11.71,14.23,11.71,13.54,18.13,21,19.96,48.24v45.81c0,11.63,4.6,21.34,13.45,28.2,2.86,2.26,6.07,4.08,9.54,5.55.61,9.89,8.85,17.7,18.92,17.7s18.22-7.81,18.92-17.7c3.47-1.48,6.68-3.3,9.54-5.55,8.76-6.85,13.45-16.66,13.45-28.2v-45.81c1.91-27.16,8.33-34.62,19.96-48.16,3.47-3.99,7.38-8.59,11.71-14.23,12.93-16.92,20.56-35.05,22.56-53.88,1.82-17.18-1.3-34.53-8.94-50.07-7.81-15.79-19.87-29.07-34.88-38.52Zm-52.32,278.35c-8.33,0-17.09-2.52-23.34-7.9h46.59c-6.16,5.38-14.92,7.9-23.25,7.9h0Zm-30.28-17.61c-.95-2.34-1.56-5.03-1.74-7.9h64.03c-.17,2.86-.78,5.55-1.74,7.9h-60.56Zm62.39-17.61h-64.21v-7.9h64.21v7.9Zm-32.1,49.28c-3.56,0-6.68-2-8.16-4.95,2.69.43,5.38.61,8.16.61s5.55-.26,8.16-.61c-1.48,2.95-4.6,4.95-8.16,4.95Zm65.86-155.92c-4.16,5.47-7.98,9.89-11.37,13.8-6.33,7.29-11.28,13.1-15.1,21.08-3.82,7.98-5.99,17.53-7.03,30.63-.09.43-.17.87-.17,1.3v22.13h-64.21v-22.13c0-.43-.09-.87-.17-1.3-1.04-13.1-3.3-22.65-7.03-30.63-3.82-7.98-8.76-13.8-15.1-21.08-3.38-3.9-7.2-8.33-11.37-13.8-22.73-29.67-27.33-63.86-12.58-93.71,14.58-29.59,44.69-47.98,78.44-47.98s63.86,18.39,78.44,47.98c14.58,29.85,9.98,64.03-12.75,93.71h0Z" fill="#a88d44" stroke="#a88d44" stroke-miterlimit="10" stroke-width="3"/><path d="m399.96,252.58c2.69,0,4.86-2.17,4.86-4.86v-42.86c0-2.69-2.17-4.86-4.86-4.86s-4.86,2.17-4.86,4.86v42.78c0,2.69,2.17,4.95,4.86,4.95Z" fill="#a88d44" stroke="#a88d44" stroke-miterlimit="10" stroke-width="3"/><path d="m306.85,280.09l-28.89-31.58c-1.82-2-4.86-2.08-6.85-.35-2,1.82-2.08,4.86-.35,6.85l28.89,31.58c.95,1.04,2.26,1.56,3.56,1.56,1.13,0,2.34-.43,3.3-1.3,2.08-1.74,2.17-4.77.35-6.77h0Z" fill="#a88d44" stroke="#a88d44" stroke-miterlimit="10" stroke-width="3"/><path d="m528.72,248.16c-2-1.82-5.03-1.65-6.85.35l-28.89,31.58c-1.82,2-1.65,5.03.35,6.85.95.87,2.08,1.3,3.3,1.3,1.3,0,2.6-.52,3.56-1.56l28.89-31.58c1.82-2.08,1.65-5.12-.35-6.94h0Z" fill="#a88d44" stroke="#a88d44" stroke-miterlimit="10" stroke-width="3"/><path d="m462.69,363.82l-9.72-2.78c-.95-2.95-2.17-5.9-3.56-8.68l4.86-8.85c.95-1.65.78-3.73-.35-5.21-4.08-5.47-8.85-10.33-14.32-14.32-1.56-1.13-3.56-1.21-5.21-.35l-8.85,4.86c-2.78-1.48-5.73-2.69-8.68-3.56l-2.78-9.72c-.52-1.82-2.08-3.21-3.9-3.47-6.68-1.04-13.62-1.04-20.3,0-1.91.26-3.38,1.65-3.9,3.47l-2.78,9.72c-2.95.95-5.9,2.17-8.68,3.56l-8.85-4.86c-1.65-.95-3.73-.78-5.21.35-5.47,4.08-10.33,8.85-14.32,14.32-1.13,1.56-1.21,3.56-.35,5.21l4.86,8.85c-1.48,2.78-2.69,5.73-3.56,8.68l-9.72,2.78c-1.82.52-3.21,2.08-3.47,3.9-.52,3.3-.78,6.77-.78,10.15s.26,6.77.78,10.15c.26,1.91,1.65,3.38,3.47,3.9l9.72,2.78c.95,2.95,2.17,5.9,3.56,8.68l-4.86,8.85c-.95,1.65-.78,3.73.35,5.21,4.08,5.47,8.85,10.33,14.32,14.32,1.56,1.13,3.56,1.21,5.21.35l8.85-4.86c2.78,1.48,5.73,2.69,8.68,3.56l2.78,9.72c.52,1.82,2.08,3.21,3.9,3.47,3.3.52,6.77.78,10.15.78s6.77-.26,10.15-.78c1.91-.26,3.38-1.65,3.9-3.47l2.78-9.72c2.95-.95,5.9-2.17,8.68-3.56l8.85,4.86c1.65.95,3.73.78,5.21-.35,5.47-3.99,10.33-8.85,14.32-14.32,1.13-1.56,1.21-3.56.35-5.21l-4.86-8.85c1.48-2.78,2.69-5.73,3.56-8.68l9.72-2.78c1.82-.52,3.21-2.08,3.47-3.9.52-3.38.78-6.77.78-10.15s-.26-6.77-.78-10.15c-.35-1.91-1.65-3.38-3.47-3.9h0Zm-5.81,19.7l-9.2,2.6c-1.65.43-2.95,1.82-3.38,3.47-1.04,3.99-2.6,7.81-4.69,11.37-.87,1.48-.87,3.3-.09,4.77l4.6,8.42c-2.43,2.86-5.03,5.55-7.98,7.98l-8.42-4.6c-1.48-.87-3.3-.78-4.77.09-3.56,2.08-7.38,3.64-11.37,4.69-1.65.43-2.95,1.74-3.47,3.38l-2.69,9.2c-3.73.35-7.55.35-11.28,0l-2.69-9.2c-.43-1.65-1.82-2.95-3.47-3.38-3.99-1.04-7.81-2.6-11.37-4.69-1.48-.87-3.3-.87-4.77-.09l-8.42,4.6c-2.86-2.43-5.55-5.03-7.98-7.98l4.6-8.42c.87-1.48.78-3.3-.09-4.77-2.08-3.56-3.64-7.38-4.69-11.37-.43-1.65-1.74-2.95-3.38-3.47l-9.2-2.6c-.17-1.82-.26-3.73-.26-5.64s.09-3.73.26-5.64l9.54-2.6c1.65-.43,2.95-1.82,3.38-3.47,1.04-3.99,2.6-7.81,4.69-11.37.87-1.48.87-3.3.09-4.77l-4.6-8.42c2.43-2.86,5.03-5.55,7.98-7.98l8.42,4.6c1.48.87,3.3.78,4.77-.09,3.56-2.08,7.38-3.64,11.37-4.69,1.65-.43,2.95-1.74,3.47-3.38l2.69-9.2c3.73-.35,7.55-.35,11.28,0l2.69,9.2c.43,1.65,1.82,2.95,3.47,3.38,3.99,1.04,7.81,2.6,11.37,4.69,1.48.87,3.3.87,4.77.09l8.42-4.6c2.86,2.43,5.55,5.03,7.98,7.98l-4.6,8.42c-.87,1.48-.78,3.3.09,4.77,2.08,3.56,3.64,7.38,4.69,11.37.43,1.65,1.74,2.95,3.38,3.47l9.2,2.69c.17,1.91.26,3.73.26,5.64-.35,1.74-.43,3.64-.61,5.55h0Z" fill="#a88d44" stroke="#a88d44" stroke-miterlimit="10" stroke-width="3"/><path d="m399.96,344.38c-18.48,0-33.49,15.01-33.49,33.49s15.01,33.49,33.49,33.49,33.49-15.01,33.49-33.49-15.01-33.49-33.49-33.49Zm0,57.27c-13.1,0-23.77-10.67-23.77-23.77s10.67-23.77,23.77-23.77,23.77,10.67,23.77,23.77-10.67,23.77-23.77,23.77Z" fill="#a88d44" stroke="#a88d44" stroke-miterlimit="10" stroke-width="3"/><rect x="392.41" y="583.6" width="13.8" height="6.68" fill="#a88d44" stroke="#a88d44" stroke-miterlimit="10" stroke-width="3"/></svg>