<?xml version="1.0" encoding="UTF-8"?><svg id="Calque_1" xmlns="http://www.w3.org/2000/svg" viewBox="0 0 800 800"><path d="m550,295.79l-6.45,2.47c.97,7.42.97,14.84,0,21.73l6.45,2.47c3.97,1.94,7.42,4.95,9.36,9.36,1.94,4.42,1.94,8.92,0,12.9l-5.48,13.87c-1.94,3.97-4.95,7.42-9.36,9.36s-8.92,1.94-12.9,0l-6.45-2.47c-4.42,5.92-9.89,10.86-15.37,15.37l2.47,6.45c1.94,3.97,1.94,8.92,0,12.9s-4.95,7.42-9.36,9.36l-13.87,5.48c-1.94.97-4.42,1.5-6.45,1.5s-4.42-.53-6.45-1.5c-3.97-1.94-7.42-4.95-9.36-9.36l-5.48-12.37,15.37-6.45,5.48,12.37c0,.53.53.53.53.53l13.87-5.48.53-.53v-.53l-7.95-18.81,5.48-3.97c7.95-5.48,14.84-12.37,20.32-20.32l3.97-5.48,18.81,7.95h.53l.53-.53,5.48-13.87v-.53l-.53-.53-18.81-7.95,1.5-6.45c1.94-9.36,1.94-19.26,0-29.15l-1.5-6.45,18.81-7.95.53-.53v-.53l-5.48-13.87-.53-.53h-.62l-18.81,7.95-3.97-5.48c-5.48-7.95-12.37-14.84-20.32-20.32l-5.48-3.97,7.95-18.81v-.53l-.53-.53-13.87-5.48q-.53,0-.53.53l-7.95,18.81-6.45-1.5c-9.36-1.94-19.26-1.94-29.15,0l-6.45,1.5-7.95-18.81-.53-.53h-.53l-13.87,5.48-.53.53v.53l7.95,18.81-5.48,3.97c-7.95,5.48-14.84,12.37-20.32,20.32l-3.97,5.48-18.81-7.95q-.53,0-.53.53l-5.48,13.87q0,.53.53.53l12.37,5.48-6.45,15.37-12.37-5.48c-8.92-3.44-12.9-13.34-9.36-22.26l5.48-13.87c3.44-8.92,13.34-12.9,22.26-9.36l6.45,2.47c4.42-5.92,9.89-10.86,15.37-15.37l-2.47-6.45c-3.44-8.92.53-18.81,9.36-22.26l13.87-5.48c4.42-1.94,8.92-1.94,12.9,0,3.97,1.94,7.42,4.95,9.36,9.36l2.47,6.45c7.42-.97,14.84-.97,21.73,0l2.47-6.45c3.44-8.92,13.34-12.9,22.26-9.36l13.87,5.48c3.97,1.94,7.42,4.95,9.36,9.36s1.94,8.92,0,12.9l-2.47,6.45c5.92,4.42,10.86,9.89,15.37,15.37l6.45-2.47c4.42-1.94,8.92-1.94,12.9,0,3.97,1.94,7.42,4.95,9.36,9.36l5.48,13.87c1.94,3.97,1.94,8.92,0,12.9-1.15,6.18-4.59,9.63-8.57,11.13h0Zm-96.99,44.96v16.34c26.23,0,47.52-21.73,47.52-47.96s-21.73-47.52-47.52-47.52h-.53c-26.23,0-47.52,21.73-47.52,47.96h16.34c0-17.31,13.87-31.18,31.18-31.62,8.39,0,16.34,3,22.26,8.92,5.92,5.92,9.36,13.87,9.36,21.73.09,17.84-13.78,32.15-31.09,32.15h0Zm-75.17,150.43v.53h-17.31v-.53c-15.37-1.94-27.74-7.95-37.1-18.81-24.73-27.74-20.32-75.17-19.79-79.67,2.47-54.41,42.57-67.31,65.81-66.78,23.23-.97,63.33,12.37,65.81,66.78.53,4.42,4.42,51.94-19.79,79.67-9.89,10.42-22.26,16.78-37.63,18.81Zm25.26-29.68c20.32-23.23,15.81-66.78,15.81-67.31v-.53c-2.47-50.44-41.07-51.41-48.93-50.97h-2.56c-10.42,0-45.05,3.44-47.52,50.97v.53c0,.53-4.42,43.99,15.81,67.31,7.95,8.92,18.81,13.87,33.12,13.87h.97c13.96-.53,24.82-4.95,33.3-13.87h0Zm68.19,55.91c-28.71-7.42-52.47-23.76-52.91-24.2l-9.89,13.87c.97.97,26.68,18.81,58.39,26.68,16.78,4.42,17.84,24.73,16.78,37.1v.97c0,6.89-.53,18.28-1.94,22.26l15.37,5.92c3.44-8.39,3-24.2,3-28.18,2.38-29.68-7.95-49.02-28.8-54.41h0Zm-198.83,15.81c32.15-7.95,57.41-25.7,58.39-26.68l-9.36-13.34s-24.2,16.78-52.91,24.2c-20.76,5.48-31.18,24.73-29.15,53.44,0,3.97,0,20.32,3.44,28.18l15.37-5.92c-1.5-3.97-1.94-15.37-1.94-22.26v-.97c-1.59-11.48-.62-32.24,16.16-36.66h0Z" fill="#a88d44"/></svg>