<?xml version="1.0" encoding="UTF-8"?><svg id="Calque_1" xmlns="http://www.w3.org/2000/svg" viewBox="0 0 800 800"><path d="m253.34,598.98c-2.63,0-5.25-.88-7.29-2.55-2.04-1.6-3.57-3.94-4.16-6.49l-22.83-96.35c-.73-2.92-.22-6.05,1.24-8.61,1.53-2.63,3.94-4.52,6.86-5.4l54.41-16.34c1.09-.36,2.26-.51,3.43-.51,2.04,0,4.08.58,5.91,1.6,2.77,1.6,4.81,4.38,5.62,7.51l1.09,4.52,14.08-5.91c11.6-5.03,23.85-7.59,36.54-7.59,5.18,0,10.43.44,15.54,1.31,12.55,2.04,24.36,7.44,34.06,15.61,1.75,1.53,4.01,2.41,6.35,2.41h56.31c7.15,0,13.71,3.21,18.16,8.75,3.94,5.03,5.69,11.31,4.81,17.51l68.49-32.31c2.41-1.17,5.11-1.75,7.8-1.75,1.53,0,2.99.22,4.45.58,4.08,1.02,7.73,3.43,10.21,6.78,0,.07.07.07.07.15,2.92,3.94,4.08,9.04,3.28,13.86-.8,4.89-3.65,9.26-7.73,12.04l-.07.07-132.46,81.98c-5.62,3.79-12.25,5.84-19.04,5.84-4.52,0-8.9-.88-13.06-2.63l-70.68-29.03c-3.87-1.53-7.88-2.33-12.04-2.33-1.6,0-3.21.15-4.74.36l1.46,6.05c.73,2.92.29,5.98-1.24,8.61-1.53,2.63-3.94,4.52-6.86,5.4l-54.41,16.34c-1.24.36-2.41.51-3.57.51h0Zm-23.71-111.16c-1.68.51-2.63,2.19-2.26,3.87l22.83,96.28c.22.88.73,1.6,1.53,2.04.51.29,1.02.44,1.6.44.29,0,.66-.07.95-.15l54.41-16.34c1.68-.51,2.63-2.19,2.26-3.87l-22.83-96.28c-.36-1.46-1.68-2.48-3.14-2.48-.29,0-.58.07-.88.15,0-.07-54.49,16.34-54.49,16.34Zm93,65.28c5.25,0,10.43,1.02,15.32,2.99l70.68,29.03c3.14,1.31,6.42,1.97,9.77,1.97,5.18,0,10.14-1.53,14.44-4.45l132.53-81.91c2.12-1.46,3.57-3.79,4.01-6.35v-.15c.44-2.55-.22-5.25-1.82-7.29-1.31-1.82-3.28-3.06-5.47-3.65-.8-.22-1.6-.29-2.33-.29-1.46,0-2.84.29-4.16.95l-77.68,36.69c-4.38,5.03-10.72,7.88-17.43,7.88h-58.28c-2.33,0-4.3-1.9-4.3-4.3s1.9-4.3,4.3-4.3h58.28c4.38,0,8.46-1.97,11.31-5.32.07-.07.15-.22.22-.29,2.26-2.92,3.36-6.49,3.06-10.14s-1.97-7.08-4.67-9.56c-2.7-2.48-6.2-3.87-9.85-3.87h-56.31c-4.45,0-8.75-1.6-12.04-4.52-8.53-7.15-18.89-11.89-29.98-13.64-4.67-.8-9.41-1.17-14.08-1.17-11.45,0-22.61,2.33-33.19,6.86l-15.39,6.49,16.34,68.85c2.19-.29,4.45-.51,6.71-.51Z" fill="#a88d44" stroke="#a88d44" stroke-miterlimit="10" stroke-width="4"/><path d="m285,463.82c1.9,0,3.72.51,5.4,1.46,2.55,1.46,4.38,3.94,5.11,6.86l1.39,5.76,15.32-6.42c11.45-4.96,23.71-7.44,36.11-7.44,5.11,0,10.28.44,15.39,1.31,12.4,2.04,24,7.37,33.55,15.39,1.97,1.75,4.45,2.7,7.08,2.7h56.31c6.71,0,13.13,3.06,17.29,8.39,4.16,5.25,5.69,12.18,4.16,18.75l70.46-33.26c2.33-1.09,4.81-1.6,7.37-1.6,1.39,0,2.77.15,4.16.51,3.87.95,7.22,3.21,9.63,6.42h0c2.84,3.79,3.94,8.53,3.14,13.13s-3.43,8.75-7.37,11.38h0l-132.53,81.77c-5.54,3.72-12.04,5.62-18.53,5.62-4.3,0-8.61-.8-12.62-2.48l-70.68-29.03c-3.94-1.6-8.17-2.41-12.4-2.41-2.04,0-4.08.22-6.13.58l1.68,7.22c.66,2.63.22,5.47-1.17,7.8-1.39,2.41-3.57,4.16-6.2,4.96l-54.41,16.27c-1.02.29-2.04.44-3.06.44h0c-2.41,0-4.74-.8-6.64-2.33-1.9-1.53-3.21-3.57-3.79-5.91h0l-22.83-96.28c-.66-2.7-.22-5.47,1.17-7.88s3.57-4.16,6.2-4.89l54.41-16.34c.95-.29,2.04-.44,3.06-.44m-31.66,127.72c.44,0,.88-.07,1.24-.22l54.41-16.34h0c2.19-.66,3.5-2.92,2.99-5.18l-22.83-96.28c-.44-1.97-2.19-3.36-4.23-3.36-.44,0-.88.07-1.24.22h0l-54.41,16.34c-2.19.66-3.5,2.92-2.99,5.18l22.83,96.28c.29,1.17,1.02,2.19,2.04,2.77.73.36,1.46.58,2.19.58m61.71-36.62c2.48-.51,5.03-.73,7.59-.73,5.11,0,10.14,1.02,14.88,2.92l70.68,29.03c3.28,1.39,6.78,2.04,10.21,2.04,5.25,0,10.5-1.53,15.03-4.6l132.53-81.84c2.41-1.68,4.01-4.23,4.52-7.08h0c.51-2.92-.22-5.91-1.97-8.32-1.53-1.97-3.65-3.43-6.05-4.01-.88-.22-1.75-.29-2.63-.29-1.6,0-3.14.36-4.6,1.02l-77.9,36.76c-4.16,4.89-10.28,7.73-16.7,7.73h-58.28c-1.75,0-3.21-1.46-3.21-3.21s1.46-3.21,3.21-3.21h58.28c4.74,0,9.19-2.12,12.11-5.76l.22-.22c2.41-3.06,3.57-7,3.28-10.94s-2.12-7.59-4.96-10.28c-2.92-2.7-6.71-4.16-10.65-4.16h-56.31c-4.16,0-8.17-1.53-11.31-4.23-8.75-7.29-19.26-12.11-30.49-13.93-4.74-.8-9.48-1.24-14.22-1.24-11.52,0-22.98,2.33-33.63,7h0l-16.27,6.78,16.63,70.75m-30.05-93.29h0c-1.24,0-2.48.22-3.72.51l-54.41,16.34c-3.14.95-5.84,3.06-7.51,5.91s-2.12,6.2-1.39,9.41l22.83,96.28v.07c.66,2.77,2.26,5.32,4.52,7.08,2.26,1.82,5.11,2.77,7.95,2.77,1.31,0,2.55-.22,3.72-.51l54.41-16.34c3.14-.95,5.84-3.06,7.44-5.91,1.68-2.84,2.12-6.2,1.39-9.41l-1.17-4.89c1.17-.15,2.26-.22,3.43-.22,4.01,0,7.88.8,11.6,2.26l70.68,29.03c4.3,1.75,8.83,2.7,13.49,2.7,7,0,13.86-2.04,19.69-5.98l132.46-81.84c.07,0,.07-.07.15-.07,4.3-2.92,7.29-7.59,8.17-12.76.88-5.11-.36-10.43-3.43-14.66,0-.07-.07-.15-.15-.15-2.7-3.57-6.49-6.13-10.87-7.22-1.53-.36-3.14-.58-4.74-.58-2.84,0-5.69.66-8.24,1.82l-66.52,31.51c.36-5.91-1.46-11.67-5.18-16.41-4.6-5.84-11.52-9.19-19.04-9.19h-56.31c-2.12,0-4.08-.73-5.69-2.12h0c-9.92-8.32-21.88-13.79-34.65-15.9-5.18-.88-10.5-1.31-15.75-1.31-12.76,0-25.24,2.55-36.98,7.66l-12.91,5.4-.8-3.28c-.8-3.43-3.06-6.42-6.13-8.24-1.82-1.17-4.08-1.75-6.35-1.75h0Zm-.51,10.87c.15-.07.36-.07.51-.07,1.02,0,1.9.66,2.12,1.68l22.83,96.28c.29,1.09-.36,2.26-1.46,2.55h-.07l-54.34,16.34c-.22.07-.44.07-.66.07-.36,0-.73-.07-1.09-.29-.51-.29-.88-.8-1.02-1.39l-22.83-96.28c-.29-1.09.36-2.26,1.46-2.55l54.41-16.34q.07,0,.15,0h0Zm30.85,6.93h.07c10.43-4.52,21.44-6.78,32.75-6.78,4.67,0,9.34.36,13.86,1.17,10.87,1.75,21.01,6.35,29.47,13.42,3.5,3.06,8.02,4.81,12.69,4.81h56.31c3.43,0,6.64,1.24,9.12,3.57,2.48,2.33,4.01,5.47,4.3,8.83s-.73,6.71-2.77,9.34c-.07.07-.15.22-.22.29-2.55,3.14-6.35,4.89-10.43,4.89h-58.28c-2.99,0-5.4,2.41-5.4,5.4s2.41,5.4,5.4,5.4h58.28c6.93,0,13.49-2.92,18.09-8.1l77.53-36.54c1.17-.51,2.41-.8,3.65-.8.73,0,1.39.07,2.12.29,1.9.51,3.65,1.6,4.81,3.21,1.39,1.82,1.97,4.16,1.6,6.42,0,.07,0,.15-.07.22-.36,2.26-1.68,4.3-3.5,5.62l-132.39,81.69s-.07,0-.07.07c-4.08,2.77-8.9,4.23-13.79,4.23-3.21,0-6.42-.66-9.41-1.82l-70.68-29.03c-5.03-2.04-10.28-3.06-15.68-3.06-1.97,0-3.94.15-5.91.44l-15.9-66.96,14.44-6.2h0Z" fill="#a88d44" stroke="#a88d44" stroke-miterlimit="10" stroke-width="4"/><path d="m442.26,455.29c-5.03,0-9.41-3.43-10.65-8.32l-3.57-14.44c-.22-.88-.88-1.53-1.75-1.75-8.68-2.33-16.99-5.76-24.8-10.21-.44-.22-.88-.36-1.31-.36s-.88.15-1.24.36l-12.76,7.66c-1.68,1.02-3.65,1.6-5.69,1.6-2.92,0-5.69-1.17-7.73-3.21l-16.92-16.92c-3.57-3.57-4.23-9.04-1.68-13.35l7.66-12.76c.44-.73.44-1.75,0-2.48-4.45-7.8-7.95-16.12-10.28-24.8-.22-.88-.88-1.6-1.75-1.82l-14.44-3.57c-4.89-1.24-8.32-5.62-8.32-10.65v-23.92c0-5.03,3.43-9.41,8.32-10.65l14.44-3.57c.88-.22,1.53-.88,1.75-1.75,2.33-8.68,5.84-16.99,10.28-24.8.44-.8.51-1.75,0-2.55l-7.66-12.69c-2.63-4.3-1.97-9.85,1.6-13.42l17.07-16.99c2.04-2.04,4.81-3.21,7.73-3.21,1.97,0,3.94.51,5.69,1.6l12.76,7.66c.36.22.8.36,1.24.36s.88-.15,1.24-.36c7.8-4.45,16.12-7.95,24.8-10.28.88-.22,1.6-.88,1.82-1.75l3.57-14.44c1.24-4.89,5.54-8.32,10.65-8.32h23.92c5.03,0,9.41,3.43,10.65,8.32l3.57,14.44c.22.88.95,1.53,1.75,1.75,8.68,2.33,16.99,5.84,24.8,10.28.44.22.88.36,1.31.36s.88-.15,1.24-.36l12.76-7.66c1.68-1.02,3.65-1.6,5.69-1.6,2.92,0,5.69,1.17,7.73,3.21l16.92,16.92c3.57,3.57,4.23,9.12,1.6,13.42l-7.8,12.69c-.44.73-.44,1.75,0,2.48,4.45,7.8,7.95,16.12,10.28,24.8.22.88.88,1.6,1.75,1.82l14.44,3.57c4.89,1.24,8.32,5.62,8.32,10.65v23.92c0,5.03-3.43,9.41-8.32,10.58l-14.44,3.57c-.88.22-1.53.88-1.75,1.75-2.33,8.68-5.84,16.99-10.28,24.8-.44.8-.51,1.75,0,2.55l7.66,12.76c2.63,4.3,1.97,9.85-1.6,13.42l-16.92,16.92c-2.04,2.04-4.81,3.21-7.73,3.21h0c-1.97,0-3.94-.51-5.69-1.6l-12.76-7.66c-.36-.22-.8-.29-1.24-.29s-.88.15-1.24.36c-7.8,4.45-16.12,7.88-24.8,10.28-.88.22-1.6.88-1.82,1.75l-3.57,14.44c-1.24,4.89-5.54,8.32-10.65,8.32.07-.07-23.85-.07-23.85-.07Zm-2.26-10.36c.29,1.09,1.24,1.82,2.33,1.82h23.92c1.09,0,2.04-.73,2.33-1.82l3.57-14.44c1.02-3.87,4.01-6.93,7.88-7.95,7.95-2.19,15.61-5.32,22.76-9.41,1.68-.95,3.57-1.46,5.54-1.46s3.94.51,5.62,1.53l12.76,7.66c.36.22.8.36,1.24.36.66,0,1.24-.22,1.68-.73l16.92-16.92c.8-.8.95-1.97.36-2.92l-7.66-12.76c-2.04-3.43-2.04-7.73-.07-11.23,4.08-7.15,7.29-14.81,9.41-22.76,1.02-3.87,4.08-6.86,7.95-7.88l14.44-3.57c1.09-.29,1.82-1.24,1.82-2.33v-23.92c0-1.09-.73-2.04-1.75-2.33l-14.51-3.57c-3.87-1.02-6.93-4.01-7.95-7.88-2.19-7.95-5.32-15.61-9.41-22.76-2.04-3.43-1.97-7.73.07-11.16l7.66-12.69c.58-.95.44-2.12-.36-2.92l-16.92-16.92c-.44-.44-1.02-.73-1.68-.73-.44,0-.88.15-1.24.36l-12.76,7.66c-1.68,1.02-3.65,1.53-5.62,1.53s-3.87-.51-5.54-1.46c-7.15-4.08-14.81-7.29-22.76-9.41-3.87-1.02-6.86-4.08-7.88-7.88l-3.57-14.51c-.29-1.09-1.24-1.82-2.33-1.82h-23.92c-1.09,0-2.04.73-2.33,1.82l-3.57,14.44c-1.02,3.87-4.01,6.93-7.88,7.95-7.95,2.12-15.61,5.32-22.76,9.41-1.68.95-3.57,1.46-5.54,1.46s-3.94-.51-5.62-1.53l-12.76-7.66c-.36-.22-.8-.36-1.24-.36-.66,0-1.24.22-1.68.73l-16.92,16.92c-.8.8-.95,1.97-.36,2.92l7.66,12.76c2.04,3.43,2.04,7.73.07,11.16-4.08,7.15-7.29,14.81-9.41,22.76-1.02,3.87-4.08,6.86-7.95,7.88h-.07l-14.37,3.57c-1.09.29-1.82,1.24-1.82,2.33v23.92c0,1.09.73,2.04,1.82,2.33l14.44,3.57c3.87,1.02,6.93,4.01,7.95,7.88,2.19,7.95,5.32,15.61,9.41,22.76,1.97,3.43,1.97,7.73-.07,11.16l-7.66,12.76c-.58.95-.44,2.19.36,2.92l16.92,16.92c.44.44,1.02.73,1.68.73.44,0,.88-.15,1.24-.36l12.76-7.66c1.68-1.02,3.65-1.53,5.62-1.53s3.87.51,5.62,1.46c7.15,4.08,14.81,7.29,22.76,9.41,3.87,1.02,6.86,4.08,7.88,7.95v.07l3.5,14.37Z" fill="#a88d44" stroke="#a88d44" stroke-miterlimit="10" stroke-width="4"/><path d="m466.18,202.19c4.52,0,8.46,3.06,9.56,7.51l3.57,14.44c.36,1.24,1.31,2.19,2.55,2.55,8.61,2.33,16.78,5.76,24.51,10.14.58.36,1.17.51,1.82.51.58,0,1.24-.15,1.75-.51l12.84-7.66c1.6-.95,3.36-1.39,5.11-1.39,2.55,0,5.11,1.02,7,2.92l16.92,16.92c3.21,3.21,3.79,8.17,1.46,12.11l-7.73,12.76c-.66,1.09-.66,2.48,0,3.65,4.38,7.73,7.8,15.97,10.14,24.51.29,1.24,1.31,2.26,2.55,2.55l14.44,3.57c4.38,1.09,7.51,5.03,7.51,9.56v23.92h0c0,4.52-3.06,8.46-7.44,9.56l-14.44,3.57c-1.24.29-2.26,1.31-2.55,2.55-2.33,8.61-5.76,16.78-10.14,24.51-.66,1.09-.66,2.48,0,3.65h0l7.66,12.76c2.33,3.87,1.75,8.9-1.46,12.11l-16.92,16.92c-1.9,1.9-4.45,2.92-7,2.92-1.75,0-3.5-.44-5.11-1.39l-12.69-7.88c-.58-.29-1.17-.51-1.75-.51-.66,0-1.24.15-1.82.51-7.73,4.38-15.97,7.8-24.51,10.14-1.24.29-2.26,1.31-2.55,2.55l-3.57,14.44c-1.09,4.38-5.03,7.51-9.56,7.51h-23.92c-4.52,0-8.46-3.06-9.56-7.51l-3.57-14.44c-.36-1.24-1.31-2.26-2.55-2.55-8.53-2.33-16.78-5.76-24.51-10.14-.58-.36-1.17-.51-1.82-.51-.58,0-1.24.15-1.82.51l-12.76,7.66c-1.6.95-3.36,1.39-5.11,1.39-2.55,0-5.11-1.02-7-2.92l-16.92-16.92c-3.21-3.21-3.79-8.17-1.46-12.11h0l7.66-12.76c.66-1.09.66-2.48,0-3.65-4.45-7.73-7.8-15.97-10.14-24.51-.29-1.24-1.31-2.26-2.55-2.55l-14.44-3.57c-4.38-1.09-7.51-5.03-7.51-9.56v-23.92c0-4.52,3.06-8.46,7.51-9.56l14.44-3.57c1.24-.36,2.26-1.31,2.55-2.55,2.33-8.53,5.76-16.78,10.14-24.51.66-1.09.66-2.48,0-3.65l-7.66-12.76c-2.33-3.87-1.75-8.83,1.46-12.04l16.92-16.92c1.9-1.9,4.45-2.92,7-2.92,1.75,0,3.5.44,5.11,1.39l12.76,7.66c.58.29,1.17.51,1.82.51s1.24-.15,1.82-.51c7.73-4.45,15.97-7.8,24.51-10.14,1.24-.29,2.26-1.31,2.55-2.55l3.57-14.44c1.09-4.38,5.03-7.51,9.56-7.51h23.78v.15m-23.92,6.42h0c-1.6,0-2.99,1.09-3.36,2.63l-3.57,14.44c-.88,3.5-3.57,6.2-7.08,7.15-8.02,2.19-15.75,5.4-22.98,9.48-1.53.88-3.28,1.31-5.03,1.31s-3.5-.44-5.11-1.39l-12.76-7.66c-.58-.36-1.17-.51-1.82-.51-.88,0-1.82.36-2.48,1.02l-16.92,16.92c-1.17,1.17-1.39,2.92-.51,4.3l7.66,12.76c1.82,3.14,1.82,6.93.07,10.07-4.16,7.22-7.37,14.95-9.56,23.05-.95,3.5-3.65,6.2-7.15,7.08h0l-14.44,3.57c-1.53.36-2.63,1.75-2.63,3.36v23.92c0,1.6,1.09,2.99,2.63,3.36l14.44,3.57c3.5.88,6.2,3.57,7.15,7.08,2.19,8.02,5.4,15.75,9.56,22.98,1.82,3.14,1.82,7-.07,10.07l-7.66,12.76c-.8,1.39-.58,3.14.51,4.3l16.92,16.92c.66.66,1.53,1.02,2.48,1.02.58,0,1.24-.15,1.82-.51l12.76-7.66c1.53-.88,3.28-1.39,5.03-1.39h0c1.75,0,3.5.44,5.03,1.31,7.22,4.16,14.95,7.37,23.05,9.56,3.5.95,6.2,3.65,7.08,7.15h0l3.57,14.44c.36,1.53,1.75,2.63,3.36,2.63h23.92c1.6,0,2.99-1.09,3.36-2.63l3.57-14.44c.88-3.5,3.57-6.2,7.08-7.15,8.02-2.19,15.75-5.4,22.98-9.56,1.53-.88,3.28-1.39,5.03-1.39s3.5.44,5.11,1.39l12.76,7.66c.58.36,1.17.51,1.82.51.88,0,1.82-.36,2.48-1.02l16.92-16.92c1.09-1.17,1.31-2.92.51-4.3l-7.66-12.76c-1.82-3.14-1.82-6.93-.07-10.07,4.16-7.22,7.37-14.95,9.56-23.05.95-3.5,3.65-6.2,7.15-7.08l14.44-3.57c1.53-.36,2.63-1.75,2.63-3.36v-23.92c0-1.6-1.09-2.99-2.63-3.36h0l-14.44-3.57c-3.5-.88-6.2-3.65-7.15-7.08-2.19-8.02-5.4-15.75-9.56-23.05-1.82-3.14-1.82-7,.07-10.07l7.66-12.69c.8-1.39.58-3.14-.51-4.3l-16.92-16.92c-.66-.66-1.53-1.02-2.48-1.02-.58,0-1.24.15-1.82.51l-12.69,7.8c-1.53.95-3.36,1.39-5.11,1.39s-3.43-.44-5.03-1.31c-7.22-4.16-14.95-7.37-23.05-9.56-3.5-.95-6.2-3.65-7.08-7.15h0l-3.57-14.44c-.36-1.53-1.75-2.63-3.36-2.63h-23.92m23.92-8.61h-23.92c-5.54,0-10.36,3.79-11.67,9.19l-3.57,14.44c-.15.51-.51.88-1.02.95h-.07c-8.75,2.41-17.14,5.84-25.02,10.36h-.07c-.22.15-.44.22-.66.22s-.44-.07-.66-.22l-12.76-7.66c-1.9-1.17-4.01-1.75-6.2-1.75-3.21,0-6.27,1.24-8.53,3.57l-16.92,16.92c-3.94,3.94-4.67,9.99-1.82,14.73l7.66,12.69c.22.44.22.95,0,1.39h0c-4.52,7.88-8.02,16.27-10.36,25.02h0c-.15.51-.51.88-1.02,1.02l-14.44,3.57c-5.4,1.31-9.19,6.13-9.19,11.67v23.92c0,5.54,3.79,10.36,9.19,11.67l14.44,3.57c.44.15.8.51.95,1.02,2.41,8.75,5.91,17.21,10.36,25.09v.07c.29.44.29.95,0,1.39l-7.66,12.69s0,.07-.07.07c-2.84,4.74-2.04,10.8,1.82,14.66l16.92,16.92c2.26,2.26,5.32,3.5,8.53,3.5,2.19,0,4.38-.58,6.2-1.75l12.76-7.66c.22-.07.44-.15.66-.15s.51.07.73.22h.07c7.88,4.52,16.27,7.95,25.02,10.36.51.15.88.51,1.02,1.02l3.57,14.37c1.31,5.4,6.13,9.19,11.67,9.19h23.92c5.54,0,10.36-3.79,11.67-9.19l3.57-14.44c.15-.44.51-.8,1.02-.95h.07c8.75-2.41,17.14-5.84,25.02-10.36h0c.22-.15.44-.22.73-.22.22,0,.44.07.66.15l12.69,7.66c1.9,1.17,4.01,1.75,6.2,1.75,3.21,0,6.27-1.24,8.53-3.57l16.92-16.92c3.94-3.94,4.67-9.99,1.82-14.73l-7.44-12.55h0c-.22-.44-.22-.95,0-1.39h0c4.52-7.88,8.02-16.27,10.36-25.02h0c.15-.51.51-.88.95-1.02l14.44-3.57c5.4-1.31,9.12-6.13,9.12-11.67v-23.92c0-5.54-3.79-10.36-9.19-11.67l-14.44-3.57c-.44-.15-.8-.51-.95-1.02v-.07c-2.41-8.75-5.84-17.14-10.36-25.02h0c-.22-.44-.29-.95,0-1.39l7.66-12.69c2.84-4.74,2.12-10.8-1.82-14.73l-16.92-16.92c-2.26-2.26-5.32-3.57-8.53-3.57-2.19,0-4.38.58-6.2,1.75l-12.76,7.66c-.22.15-.44.15-.66.15s-.51-.07-.66-.22h-.07c-7.88-4.52-16.27-8.02-25.02-10.36-.51-.15-.88-.51-1.02-.95l-3.57-14.37c-1.31-5.54-6.05-9.34-11.67-9.34h0Zm-65.94,45.88c2.12,0,4.23-.58,6.13-1.68,7.08-4.01,14.66-7.15,22.47-9.26,4.23-1.09,7.59-4.45,8.68-8.75l3.57-14.44c.15-.58.66-1.02,1.24-1.02h23.92c.58,0,1.09.44,1.24.95l3.57,14.44v.07c1.09,4.23,4.38,7.59,8.61,8.68,7.88,2.12,15.39,5.25,22.47,9.34,1.82,1.09,3.94,1.6,6.05,1.6s4.3-.58,6.2-1.68l12.76-7.66c.22-.15.44-.22.66-.22.36,0,.66.15.95.36l16.92,16.92c.44.44.51,1.09.22,1.6l-7.66,12.69c-2.26,3.79-2.26,8.53-.07,12.33,4.01,7.08,7.15,14.66,9.34,22.47,1.09,4.23,4.45,7.51,8.75,8.61l14.44,3.57h.07c.51.15.95.66.95,1.24v23.92c0,.58-.44,1.09-1.02,1.24l-14.44,3.57c-4.3,1.09-7.59,4.38-8.75,8.68-2.12,7.88-5.25,15.39-9.34,22.47-2.19,3.79-2.19,8.53.07,12.25l7.66,12.76c.29.51.22,1.17-.22,1.6l-16.92,16.92c-.22.22-.58.36-.95.36-.22,0-.44-.07-.66-.22l-12.69-7.37c-1.9-1.09-4.01-1.68-6.2-1.68s-4.23.58-6.13,1.68c-7.08,4.01-14.66,7.15-22.47,9.34-4.23,1.09-7.59,4.45-8.68,8.75l-3.57,14.44c-.15.58-.66,1.02-1.24,1.02h-23.92c-.58,0-1.09-.44-1.24-1.02l-3.57-14.3v-.15c-1.09-4.23-4.38-7.59-8.68-8.75-7.88-2.12-15.46-5.25-22.47-9.34-1.9-1.09-4.01-1.6-6.13-1.6s-4.3.58-6.2,1.68l-12.76,7.66c-.22.15-.44.22-.66.22-.36,0-.66-.15-.95-.36l-16.85-17.07c-.44-.44-.51-1.09-.22-1.6l7.66-12.76c2.26-3.79,2.26-8.53.07-12.33-4.01-7.08-7.15-14.66-9.34-22.47-1.09-4.23-4.45-7.59-8.75-8.61l-14.44-3.57c-.58-.15-1.02-.66-1.02-1.24v-23.92c0-.58.44-1.09,1.02-1.24l14.37-3.57h.15c4.23-1.09,7.59-4.38,8.75-8.68,2.12-7.88,5.25-15.46,9.34-22.47,2.19-3.79,2.19-8.53-.07-12.25l-7.66-12.76c-.29-.51-.22-1.17.22-1.6l16.92-16.92c.22-.22.58-.36.95-.36.22,0,.44.07.66.22l12.76,7.66c1.75,1.02,3.94,1.6,6.13,1.6h0Z" fill="#a88d44" stroke="#a88d44" stroke-miterlimit="10" stroke-width="4"/><path d="m454.22,390.01c-16.48,0-32.02-6.42-43.69-18.09-11.67-11.67-18.09-27.21-18.09-43.69s6.42-32.02,18.09-43.69c11.67-11.67,27.21-18.09,43.69-18.09s32.02,6.42,43.69,18.09c11.67,11.67,18.09,27.21,18.09,43.69s-6.42,32.02-18.09,43.69c-11.67,11.67-27.13,18.09-43.69,18.09Zm0-115.03c-14.22,0-27.57,5.54-37.64,15.61-10.07,10.07-15.61,23.41-15.61,37.64s5.54,27.57,15.61,37.64c10.07,10.07,23.41,15.61,37.64,15.61s27.57-5.54,37.64-15.61c10.07-10.07,15.61-23.41,15.61-37.64s-5.54-27.57-15.61-37.64c-9.99-10.07-23.41-15.61-37.64-15.61Z" fill="#a88d44" stroke="#a88d44" stroke-miterlimit="10" stroke-width="4"/><path d="m454.22,267.47h0c16.12,0,31.51,6.42,42.89,17.8,11.38,11.38,17.8,26.84,17.8,42.89s-6.42,31.51-17.8,42.96c-11.38,11.38-26.84,17.8-42.89,17.8s-31.51-6.42-42.96-17.8c-11.38-11.38-17.8-26.84-17.8-42.96s6.42-31.51,17.8-42.89c11.45-11.38,26.91-17.8,42.96-17.8m0,115.03h0c14.37,0,28.23-5.76,38.37-15.9s15.9-24,15.9-38.37-5.69-28.23-15.9-38.44c-10.21-10.21-24-15.9-38.44-15.9s-28.23,5.69-38.44,15.9-15.9,24-15.9,38.44,5.69,28.23,15.9,38.44c10.28,10.14,24.14,15.83,38.51,15.83h0m0-117.21c-16.78,0-32.6,6.56-44.49,18.45-11.89,11.89-18.45,27.64-18.45,44.49s6.56,32.6,18.45,44.49c11.89,11.89,27.64,18.45,44.49,18.45s32.6-6.56,44.49-18.45c11.89-11.89,18.45-27.64,18.45-44.49s-6.56-32.6-18.45-44.42c-11.89-11.89-27.64-18.45-44.49-18.53q.07,0,0,0h0Zm.07,115.03h0c-14,0-27.06-5.4-36.91-15.24-9.85-9.85-15.24-22.98-15.24-36.83s5.4-26.99,15.24-36.83c9.85-9.85,22.9-15.24,36.83-15.24s26.99,5.4,36.83,15.24c9.85,9.85,15.24,22.9,15.24,36.83s-5.47,26.99-15.32,36.83c-9.7,9.85-22.76,15.24-36.69,15.24h0Z" fill="#a88d44" stroke="#a88d44" stroke-miterlimit="10" stroke-width="4"/></svg>