<?xml version="1.0" encoding="UTF-8"?><svg id="Calque_1" xmlns="http://www.w3.org/2000/svg" viewBox="0 0 800 800"><path d="m400.01,600c-2.06,0-4.03-.77-5.41-2.23l-104.5-104.5c-21.36-21.36-33.29-45.56-34.49-70.01-1.12-22.14,6.69-42.64,21.96-57.92,15.19-15.27,35.78-22.99,57.91-21.96,22.31,1.12,44.53,11.24,64.52,29.34,19.99-18.1,42.21-28.23,64.52-29.34,22.14-1.12,42.64,6.69,57.92,21.96,15.27,15.19,22.99,35.78,21.96,57.92-1.2,24.37-13.13,48.56-34.49,70.01l-104.5,104.42c-1.37,1.46-3.35,2.32-5.41,2.32h0Zm-68.38-241.27c-17.33,0-32.52,6.86-43.16,17.5-22.57,22.57-28.23,65.38,12.61,106.13l98.93,99.01,98.93-98.93c18.62-18.62,29-39.38,30.03-59.89.86-17.76-5.32-34.15-17.42-46.25-22.57-22.57-65.38-28.23-106.13,12.61h0c-3,3-7.89,3-10.9,0-21.45-21.62-43.59-30.2-62.89-30.2h0Z" fill="#a88d44"/><path d="m304,364.31c-4.2,0-7.64-3.35-7.72-7.55v-1.54c0-4.38.26-8.67.86-13.04,1.89-14.33,8.24-27.8,18.53-38.95,14.07-15.36,19.31-42.13,19.39-42.39h0c.51-2.57,2.23-4.72,4.72-5.75,2.49-.94,5.23-.6,7.38.94.43.34,11.15,8.15,19.65,23.34,6.18,10.98,12.18,27.71,10.12,49.42,2.23-2.49,4.12-5.23,5.58-8.24,8.24-15.79,13.21-47.7-9.7-110.17-1.03-2.75-.34-5.83,1.63-7.98,2.06-2.15,5.06-2.92,7.89-2.06.77.26,20.16,6.44,39.64,24.28h0c11.33,10.38,20.59,22.82,27.2,36.72,6.52,13.73,10.55,29,12.01,45.47l10.47-6.26h0c3.6-2.15,8.32-.94,10.47,2.66,9.18,15.27,14.16,32.69,14.41,50.54.09,4.2-3.35,7.72-7.55,7.81s-7.72-3.35-7.81-7.55c-.17-12.53-3.09-24.8-8.58-36.04l-14.59,8.67c-2.4,1.37-5.32,1.46-7.72.09-2.4-1.37-3.86-3.86-3.95-6.61-.34-34.58-11.93-62.72-34.41-83.57-5.75-5.32-12.1-10.04-18.88-13.99,7.21,22.82,11.07,43.16,11.58,60.75.51,18.02-2.49,33.2-9.01,45.22-10.73,19.82-27.2,23.85-27.89,24.02h0c-2.66.6-5.41-.26-7.29-2.15-1.89-1.97-2.57-4.72-1.89-7.38,9.01-32.6-2.92-54.65-12.1-65.89-3.43,10.64-9.61,25.57-19.65,36.55-8.07,8.84-13.13,19.39-14.59,30.54-.51,3.69-.69,7.38-.69,10.98v1.29h0c0,2.06-.77,4.03-2.15,5.49-1.46,1.46-3.35,2.32-5.41,2.32h0Z" fill="#a88d44"/></svg>