<?xml version="1.0" encoding="utf-8"?>
<!-- Generator: Adobe Illustrator 27.3.1, SVG Export Plug-In . SVG Version: 6.00 Build 0)  -->
<svg version="1.1" id="Calque_1" xmlns="http://www.w3.org/2000/svg" xmlns:xlink="http://www.w3.org/1999/xlink" x="0px" y="0px"
	 viewBox="0 0 743.1 410" style="enable-background:new 0 0 743.1 410;" xml:space="preserve">
<style type="text/css">
	.st0{fill:#FAFAFA;}
</style>
<g>
	<g>
		<path class="st0" d="M370.7,281.7c-49,0-88.9-39.9-88.9-88.9s39.9-88.9,88.9-88.9c49,0,88.9,39.9,88.9,88.9
			S419.8,281.7,370.7,281.7z M370.7,123.8c-38,0-68.9,30.9-68.9,68.9c0,38,30.9,68.9,68.9,68.9s68.9-30.9,68.9-68.9
			C439.7,154.7,408.8,123.8,370.7,123.8z"/>
	</g>
	<g>
		<path class="st0" d="M518.1,410h-20c0-45.4-24.4-87.7-63.7-110.3c-39.3-22.7-88.1-22.7-127.4,0c-39.3,22.7-63.7,64.9-63.7,110.3
			h-20c0-52.5,28.3-101.4,73.7-127.6c45.4-26.2,101.9-26.2,147.4,0C489.9,308.6,518.1,357.5,518.1,410z"/>
	</g>
	<g>
		<path class="st0" d="M147.4,177.9c-49,0-88.9-39.9-88.9-88.9S98.4,0,147.4,0s88.9,39.9,88.9,88.9S196.5,177.9,147.4,177.9z
			 M147.4,20c-38,0-68.9,30.9-68.9,68.9s30.9,68.9,68.9,68.9s68.9-30.9,68.9-68.9S185.5,20,147.4,20z"/>
	</g>
	<g>
		<path class="st0" d="M294.8,306.2h-20c0-45.4-24.4-87.7-63.7-110.3c-39.3-22.7-88.1-22.7-127.4,0C44.4,218.6,20,260.8,20,306.2H0
			c0-52.5,28.3-101.4,73.7-127.6c45.4-26.2,101.9-26.2,147.4,0C266.6,204.8,294.8,253.7,294.8,306.2z"/>
	</g>
	<g>
		<path class="st0" d="M595.8,177.9c-49,0-88.9-39.9-88.9-88.9S546.7,0,595.8,0c49,0,88.9,39.9,88.9,88.9S644.8,177.9,595.8,177.9z
			 M595.8,20c-38,0-68.9,30.9-68.9,68.9s30.9,68.9,68.9,68.9s68.9-30.9,68.9-68.9S633.8,20,595.8,20z"/>
	</g>
	<g>
		<path class="st0" d="M743.1,306.2h-20c0-45.4-24.4-87.7-63.7-110.3c-39.3-22.7-88.1-22.7-127.4,0c-39.3,22.7-63.7,64.9-63.7,110.3
			h-20c0-52.5,28.3-101.4,73.7-127.6c45.4-26.2,101.9-26.2,147.4,0C714.9,204.8,743.1,253.7,743.1,306.2z"/>
	</g>
</g>
</svg>
