<?xml version="1.0" encoding="UTF-8"?><svg id="Calque_1" xmlns="http://www.w3.org/2000/svg" viewBox="0 0 800 800"><path d="m399.96,200c-20.23,0-36.64,16.42-36.64,36.64s16.42,36.64,36.64,36.64,36.64-16.42,36.64-36.64-16.42-36.64-36.64-36.64Zm0,59.88c-12.85,0-23.24-10.39-23.24-23.24s10.39-23.24,23.24-23.24,23.24,10.39,23.24,23.24-10.39,23.24-23.24,23.24Z" fill="#a88d44"/><path d="m379.5,287.25c-25.94,0-46.96,21.02-46.96,46.96v6.19c0,5.47,4.44,9.91,9.91,9.91h115.17c5.47,0,9.91-4.44,9.91-9.91v-6.19c0-25.94-21.02-46.96-46.96-46.96h-41.09Zm74.48,47.04v2.62h-108.03v-2.62c0-18.48,15.07-33.55,33.55-33.55h41.01c18.4,0,33.47,15.07,33.47,33.55h0Z" fill="#a88d44"/><path d="m267.58,449.61c-20.23,0-36.64,16.42-36.64,36.64s16.42,36.64,36.64,36.64,36.64-16.42,36.64-36.64-16.42-36.64-36.64-36.64Zm0,59.88c-12.85,0-23.24-10.39-23.24-23.24s10.39-23.24,23.24-23.24,23.24,10.39,23.24,23.24-10.47,23.24-23.24,23.24Z" fill="#a88d44"/><path d="m288.04,536.94h-41.01c-25.94,0-46.96,21.02-46.96,46.96v6.19c0,5.47,4.44,9.91,9.91,9.91h115.17c5.47,0,9.91-4.44,9.91-9.91v-6.19c-.08-25.94-21.1-46.96-47.04-46.96h0Zm33.55,49.57h-108.11v-2.62c0-18.48,15.07-33.55,33.55-33.55h41.01c18.48,0,33.55,15.07,33.55,33.55v2.62h0Z" fill="#a88d44"/><path d="m569.07,486.34c0-20.23-16.42-36.64-36.64-36.64s-36.64,16.42-36.64,36.64,16.42,36.64,36.64,36.64,36.64-16.5,36.64-36.64Zm-59.96,0c0-12.85,10.39-23.24,23.24-23.24s23.24,10.39,23.24,23.24-10.39,23.24-23.24,23.24c-12.77-.08-23.24-10.47-23.24-23.24h0Z" fill="#a88d44"/><path d="m552.89,536.94h-41.01c-25.94,0-46.96,21.02-46.96,46.96v6.19c0,5.47,4.44,9.91,9.91,9.91h115.17c5.47,0,9.91-4.44,9.91-9.91v-6.19c-.08-25.94-21.1-46.96-47.04-46.96h0Zm33.55,49.57h-108.11v-2.62c0-18.48,15.07-33.55,33.55-33.55h41.01c18.48,0,33.55,15.07,33.55,33.55v2.62h0Z" fill="#a88d44"/><path d="m469.92,494.03l4.76-8.17c2.06-3.57,2.62-7.77,1.59-11.82-1.11-4.05-3.65-7.38-7.3-9.44l-3.09-1.75c-1.51-.87-2.3-2.54-2.06-4.12.56-3.49.87-6.98.87-10.47s-.32-6.98-.87-10.47c-.24-1.59.56-3.25,2.06-4.12l3.09-1.75c3.57-2.06,6.19-5.47,7.3-9.44,1.11-4.05.56-8.25-1.59-11.82l-4.76-8.17c-2.06-3.57-5.47-6.19-9.44-7.3-4.05-1.11-8.25-.56-11.82,1.59l-3.09,1.82c-1.51.87-3.33.71-4.6-.32-5.47-4.44-11.58-8.01-18.16-10.47-1.51-.56-2.54-2.06-2.54-3.81v-3.89c0-8.57-6.98-15.55-15.55-15.55h-9.52c-8.57,0-15.55,6.98-15.55,15.55v3.57c0,1.75-1.03,3.25-2.54,3.81-6.58,2.46-12.69,6.03-18.16,10.47-1.27,1.03-3.09,1.19-4.6.32l-3.09-1.82c-3.57-2.06-7.77-2.62-11.82-1.59-4.05,1.11-7.38,3.65-9.44,7.3l-4.76,8.17c-2.06,3.57-2.62,7.77-1.59,11.82,1.11,4.05,3.65,7.38,7.3,9.44l3.09,1.75c1.51.87,2.3,2.54,2.06,4.12-.56,3.49-.87,6.98-.87,10.47s.32,7.06.87,10.47c.24,1.59-.56,3.25-2.06,4.12l-3.09,1.75c-3.57,2.06-6.19,5.47-7.3,9.44-1.11,4.05-.56,8.25,1.59,11.82l4.76,8.17c4.28,7.46,13.8,9.99,21.26,5.71l3.09-1.82c1.43-.87,3.33-.71,4.6.32,5.47,4.44,11.58,8.01,18.16,10.47,1.51.56,2.54,2.06,2.54,3.81v3.57c0,8.57,6.98,15.55,15.55,15.55h9.52c8.57,0,15.55-6.98,15.55-15.55v-3.57c0-1.75,1.03-3.25,2.54-3.81,6.58-2.46,12.69-6.03,18.16-10.47,1.27-1.03,3.09-1.19,4.6-.32l3.09,1.82c7.46,4.6,16.97,1.98,21.26-5.39h0Zm-19.27-54.17c.48,2.78.71,5.55.71,8.25s-.24,5.55-.71,8.25c-1.19,7.14,2.22,14.36,8.57,18.01l3.09,1.75c.63.4.87.95,1.03,1.27.08.32.16.95-.24,1.59l-4.76,8.17c-.56,1.03-1.9,1.35-2.93.79l-3.09-1.82c-6.27-3.65-14.28-3.01-19.83,1.59-4.28,3.57-9.12,6.35-14.36,8.33-6.74,2.54-11.26,9.12-11.26,16.42v3.57c0,1.19-.95,2.14-2.14,2.14h-9.52c-1.19,0-2.14-.95-2.14-2.14v-3.57c0-7.3-4.52-13.88-11.26-16.42-5.23-1.98-10.07-4.76-14.36-8.33-3.17-2.62-7.06-3.89-11.03-3.89-3.01,0-6.11.79-8.8,2.38l-3.09,1.82c-1.03.63-2.3.24-2.93-.79l-4.76-8.17c-.4-.63-.32-1.27-.24-1.59s.32-.95,1.03-1.27l3.09-1.75c6.27-3.65,9.76-10.87,8.57-18.01-.48-2.7-.71-5.55-.71-8.25s.24-5.55.71-8.25c1.19-7.14-2.22-14.36-8.57-18.01l-3.09-1.75c-.63-.4-.87-.95-1.03-1.27-.08-.32-.16-.95.24-1.59l4.76-8.17c.4-.63.95-.87,1.27-1.03.32-.08.95-.16,1.59.24l3.09,1.82c6.27,3.65,14.28,3.01,19.83-1.59,4.36-3.57,9.2-6.35,14.36-8.33,6.74-2.54,11.26-9.12,11.26-16.42v-3.73c0-1.19.95-2.14,2.14-2.14h9.6c1.19,0,2.14.95,2.14,2.14v3.57c0,7.3,4.52,13.88,11.26,16.42,5.23,1.98,10.07,4.76,14.36,8.33,5.55,4.6,13.56,5.16,19.83,1.59l3.09-1.82c.63-.4,1.27-.32,1.59-.24s.95.32,1.27,1.03l4.76,8.17c.4.63.32,1.27.24,1.59s-.32.95-1.03,1.27l-3.09,1.75c-6.27,3.73-9.68,10.95-8.49,18.08h0Z" fill="#a88d44"/><path d="m399.96,417.97c-16.66,0-30.14,13.56-30.14,30.14s13.56,30.14,30.14,30.14,30.14-13.56,30.14-30.14-13.48-30.14-30.14-30.14Zm0,46.88c-9.2,0-16.74-7.54-16.74-16.74s7.54-16.74,16.74-16.74,16.74,7.54,16.74,16.74-7.54,16.74-16.74,16.74Z" fill="#a88d44"/></svg>