<svg width="92" height="86" viewBox="0 0 92 86" fill="none" xmlns="http://www.w3.org/2000/svg">
<mask id="path-1-outside-1_356_566" maskUnits="userSpaceOnUse" x="0.138672" y="-0.298828" width="92" height="87" fill="black">
<rect fill="white" x="0.138672" y="-0.298828" width="92" height="87"/>
<path d="M83.9783 9.52354C79.5261 4.90949 73.4808 2.33734 66.9563 2.27443C60.2798 2.14861 53.8947 4.83759 49.2494 9.4786L46.739 11.9842L42.5461 7.81596C33.1375 -1.53975 18.2611 -1.68714 8.67542 7.48343C-0.602667 16.361 -1.42159 31.0408 6.81408 40.9052L13.1205 48.4599L11.2609 50.3274C8.65396 52.9517 8.65396 57.2188 11.2716 59.8503L11.37 59.9473C12.6323 61.2163 14.3113 61.9155 16.0975 61.9155C16.3336 61.9155 16.566 61.903 16.7967 61.8796C16.5964 63.8262 17.2347 65.8448 18.7152 67.3331L18.8171 67.4355C20.0813 68.7063 21.762 69.4073 23.5483 69.4073C23.8093 69.4073 24.0686 69.3911 24.3243 69.3606C24.099 71.3324 24.7337 73.3851 26.2357 74.8931L26.3376 74.9956C27.6428 76.3077 29.3576 76.962 31.0687 76.962C31.3012 76.962 31.5336 76.9494 31.766 76.9242C31.7428 77.1561 31.7285 77.3898 31.7285 77.627C31.7285 79.4245 32.4258 81.1123 33.6882 82.3831L33.7901 82.4855C35.056 83.7563 36.735 84.4573 38.5212 84.4573C40.3075 84.4573 41.9882 83.7563 43.2523 82.4855L44.6917 81.0386L47.0287 83.5047C48.3232 84.8726 50.0683 85.6526 51.9475 85.6976C52.0048 85.6994 52.0638 85.7012 52.1228 85.7012C53.9358 85.7012 55.647 85.0145 56.9648 83.7527C58.3719 82.4082 59.1318 80.5479 59.139 78.6498C60.877 78.648 62.6167 78.0045 63.9685 76.7085C65.5062 75.2382 66.2464 73.1891 66.132 71.1688C66.5307 71.2371 66.933 71.2749 67.3353 71.2749C69.0751 71.2749 70.8202 70.6296 72.1809 69.33C73.5523 68.0179 74.3265 66.2438 74.3587 64.3403C74.3659 64.0257 74.348 63.7166 74.314 63.4092C74.6627 63.4632 75.0167 63.4919 75.3689 63.4919C77.0837 63.4919 78.7984 62.8484 80.1483 61.5561C81.5251 60.2403 82.2904 58.468 82.3047 56.5609C82.319 54.6575 81.5824 52.8726 80.2324 51.5371L78.1189 49.4467L83.9211 43.4719C93.1545 33.9634 93.1759 19.05 83.9747 9.51994L83.9783 9.52354ZM18.7152 57.821C17.317 59.2266 14.8799 59.2266 13.4834 57.821C13.4816 57.821 13.3779 57.7185 13.3779 57.7185C11.935 56.268 11.935 53.9061 13.3779 52.4538L16.1708 49.6462C16.1977 49.621 16.2227 49.5958 16.2477 49.5689L23.4857 42.2928C24.1866 41.59 25.1146 41.2018 26.1033 41.2018C27.0921 41.2018 28.0219 41.59 28.8247 42.3971C29.5221 43.0999 29.9083 44.0327 29.9083 45.0267C29.9083 46.0207 29.5256 46.9554 28.8212 47.66L18.7152 57.8192V57.821ZM26.1659 65.3127C24.7713 66.7147 22.3342 66.7183 20.9324 65.3127L20.8322 65.2103C19.3893 63.7579 19.3893 61.3979 20.8304 59.9455L30.9382 49.7864C30.9382 49.7864 30.9525 49.7702 30.9596 49.763C32.3704 48.3772 34.6877 48.2855 36.2755 49.887C36.9764 50.5898 37.359 51.5245 37.359 52.5185C37.359 53.5125 36.9764 54.4471 36.2755 55.15L26.1659 65.3127ZM33.69 72.871C33.69 72.871 33.6757 72.8872 33.6685 72.8944C32.2184 74.3233 29.8832 74.3125 28.451 72.871L28.3527 72.7703C26.908 71.3198 26.908 68.9579 28.3527 67.5056L38.464 57.3464C39.8587 55.9408 42.1992 55.8384 43.7995 57.4489C45.2442 58.8994 45.2442 61.2613 43.7995 62.7136L33.6917 72.8728L33.69 72.871ZM41.1407 80.3645C39.746 81.7701 37.3018 81.7701 35.9089 80.3645C35.9089 80.3645 35.807 80.2621 35.807 80.2603C35.1061 79.5575 34.7199 78.6228 34.7199 77.6288C34.7199 76.6348 35.1061 75.702 35.807 74.9974L45.9129 64.8382C46.6103 64.1354 47.54 63.7471 48.5288 63.7471C49.5176 63.7471 50.4474 64.1354 51.2502 64.9425C51.9475 65.6452 52.3338 66.5781 52.3338 67.5721C52.3338 68.5661 51.9475 69.499 51.2466 70.2036L41.1407 80.3645ZM54.9103 81.5814C54.1254 82.3256 53.108 82.7498 52.0244 82.6976C50.9445 82.6725 49.9414 82.2249 49.2011 81.4376L46.8123 78.914L51.7026 73.9962L54.0395 76.4641C54.6493 77.1076 55.3537 77.6091 56.1083 77.9704C56.3228 79.2843 55.8866 80.6486 54.9121 81.5814H54.9103ZM78.1458 53.6868C78.9128 54.4454 79.3312 55.4609 79.3241 56.5448C79.3133 57.6304 78.8788 58.6406 78.0975 59.3883C76.5365 60.8802 74.1209 60.8533 72.5957 59.3308L66.7792 53.5322L66.7757 53.5287C66.7757 53.5287 66.7757 53.5287 66.7739 53.5287L58.5257 45.3053C57.9464 44.723 56.9934 44.7284 56.4123 45.3143C55.8329 45.9021 55.8365 46.8547 56.423 47.4389L64.6479 55.6407L70.2248 61.3835C70.9883 62.1672 71.3924 63.2007 71.3745 64.2954C71.3566 65.3882 70.9114 66.4074 70.1229 67.1623C68.5101 68.7063 65.9496 68.6452 64.4083 67.0203L49.6928 51.4724C49.1207 50.872 48.1748 50.8505 47.5794 51.4185C46.9804 51.99 46.9554 52.9427 47.5257 53.543L62.2412 69.091C62.3163 69.17 62.3932 69.2455 62.4719 69.321C63.5715 70.9477 63.3391 73.173 61.914 74.539C60.3048 76.074 57.7443 76.0255 56.2048 74.3952L53.7946 71.85C54.7834 70.6493 55.3215 69.1539 55.3215 67.5739C55.3215 65.7765 54.6242 64.0887 53.26 62.7154C51.8188 61.2685 49.7733 60.6465 47.8118 60.8461C48.0264 58.8653 47.3666 56.7892 45.8092 55.2236C44.3502 53.7587 42.2707 53.1404 40.286 53.3633C40.5256 51.3609 39.8676 49.2507 38.2888 47.6636C36.8512 46.2202 34.8111 45.5983 32.8514 45.7924C32.88 45.5408 32.8961 45.2856 32.8961 45.0285C32.8961 43.2329 32.1987 41.5433 30.8345 40.1718C28.3026 37.6302 23.9005 37.6302 21.3722 40.1718L15.2446 46.3299L9.10455 38.9729C1.88091 30.3218 2.59791 17.4467 10.7388 9.65835C19.1425 1.61836 32.1934 1.74059 40.4451 9.94953L44.6202 14.0998L29.1305 29.5669C28.0398 30.6561 27.5105 32.1624 27.6715 33.701C27.8324 35.2145 28.6531 36.5482 29.9154 37.3624C30.7844 37.9196 31.707 38.3995 32.6636 38.7878C38.4139 41.1209 44.9993 39.9615 49.8341 35.7483L55.2482 31.0336L78.1458 53.6868ZM75.9965 47.3472L57.7998 29.3404C59.282 28.6664 61.6834 27.8593 64.6336 27.8953C71.151 28.0139 74.3015 24.9492 75.7695 22.3483C76.1789 21.6258 75.9268 20.7109 75.208 20.2992C74.4928 19.8948 73.5809 20.1411 73.1715 20.8654C71.6177 23.6191 68.8516 24.9564 64.6908 24.8917C58.8529 24.8719 54.6278 27.64 54.4526 27.7622C54.4043 27.7964 54.3596 27.8341 54.3149 27.8737L47.8762 33.4799C43.9497 36.8933 38.4121 37.8819 33.7812 36.0035C32.9926 35.6854 32.2345 35.29 31.5264 34.8334C30.8434 34.3948 30.6807 33.7388 30.6432 33.3847C30.577 32.7573 30.7934 32.1444 31.2368 31.7004L51.3557 11.6122C55.3913 7.58229 60.9842 5.28156 66.7238 5.28156C66.7935 5.28156 66.8579 5.28156 66.9241 5.28336C72.6458 5.33728 77.9383 7.58769 81.8291 11.6176C89.8967 19.9721 89.8752 33.0467 81.7844 41.3833L75.993 47.349L75.9965 47.3472Z"/>
</mask>
<path d="M83.9783 9.52354C79.5261 4.90949 73.4808 2.33734 66.9563 2.27443C60.2798 2.14861 53.8947 4.83759 49.2494 9.4786L46.739 11.9842L42.5461 7.81596C33.1375 -1.53975 18.2611 -1.68714 8.67542 7.48343C-0.602667 16.361 -1.42159 31.0408 6.81408 40.9052L13.1205 48.4599L11.2609 50.3274C8.65396 52.9517 8.65396 57.2188 11.2716 59.8503L11.37 59.9473C12.6323 61.2163 14.3113 61.9155 16.0975 61.9155C16.3336 61.9155 16.566 61.903 16.7967 61.8796C16.5964 63.8262 17.2347 65.8448 18.7152 67.3331L18.8171 67.4355C20.0813 68.7063 21.762 69.4073 23.5483 69.4073C23.8093 69.4073 24.0686 69.3911 24.3243 69.3606C24.099 71.3324 24.7337 73.3851 26.2357 74.8931L26.3376 74.9956C27.6428 76.3077 29.3576 76.962 31.0687 76.962C31.3012 76.962 31.5336 76.9494 31.766 76.9242C31.7428 77.1561 31.7285 77.3898 31.7285 77.627C31.7285 79.4245 32.4258 81.1123 33.6882 82.3831L33.7901 82.4855C35.056 83.7563 36.735 84.4573 38.5212 84.4573C40.3075 84.4573 41.9882 83.7563 43.2523 82.4855L44.6917 81.0386L47.0287 83.5047C48.3232 84.8726 50.0683 85.6526 51.9475 85.6976C52.0048 85.6994 52.0638 85.7012 52.1228 85.7012C53.9358 85.7012 55.647 85.0145 56.9648 83.7527C58.3719 82.4082 59.1318 80.5479 59.139 78.6498C60.877 78.648 62.6167 78.0045 63.9685 76.7085C65.5062 75.2382 66.2464 73.1891 66.132 71.1688C66.5307 71.2371 66.933 71.2749 67.3353 71.2749C69.0751 71.2749 70.8202 70.6296 72.1809 69.33C73.5523 68.0179 74.3265 66.2438 74.3587 64.3403C74.3659 64.0257 74.348 63.7166 74.314 63.4092C74.6627 63.4632 75.0167 63.4919 75.3689 63.4919C77.0837 63.4919 78.7984 62.8484 80.1483 61.5561C81.5251 60.2403 82.2904 58.468 82.3047 56.5609C82.319 54.6575 81.5824 52.8726 80.2324 51.5371L78.1189 49.4467L83.9211 43.4719C93.1545 33.9634 93.1759 19.05 83.9747 9.51994L83.9783 9.52354ZM18.7152 57.821C17.317 59.2266 14.8799 59.2266 13.4834 57.821C13.4816 57.821 13.3779 57.7185 13.3779 57.7185C11.935 56.268 11.935 53.9061 13.3779 52.4538L16.1708 49.6462C16.1977 49.621 16.2227 49.5958 16.2477 49.5689L23.4857 42.2928C24.1866 41.59 25.1146 41.2018 26.1033 41.2018C27.0921 41.2018 28.0219 41.59 28.8247 42.3971C29.5221 43.0999 29.9083 44.0327 29.9083 45.0267C29.9083 46.0207 29.5256 46.9554 28.8212 47.66L18.7152 57.8192V57.821ZM26.1659 65.3127C24.7713 66.7147 22.3342 66.7183 20.9324 65.3127L20.8322 65.2103C19.3893 63.7579 19.3893 61.3979 20.8304 59.9455L30.9382 49.7864C30.9382 49.7864 30.9525 49.7702 30.9596 49.763C32.3704 48.3772 34.6877 48.2855 36.2755 49.887C36.9764 50.5898 37.359 51.5245 37.359 52.5185C37.359 53.5125 36.9764 54.4471 36.2755 55.15L26.1659 65.3127ZM33.69 72.871C33.69 72.871 33.6757 72.8872 33.6685 72.8944C32.2184 74.3233 29.8832 74.3125 28.451 72.871L28.3527 72.7703C26.908 71.3198 26.908 68.9579 28.3527 67.5056L38.464 57.3464C39.8587 55.9408 42.1992 55.8384 43.7995 57.4489C45.2442 58.8994 45.2442 61.2613 43.7995 62.7136L33.6917 72.8728L33.69 72.871ZM41.1407 80.3645C39.746 81.7701 37.3018 81.7701 35.9089 80.3645C35.9089 80.3645 35.807 80.2621 35.807 80.2603C35.1061 79.5575 34.7199 78.6228 34.7199 77.6288C34.7199 76.6348 35.1061 75.702 35.807 74.9974L45.9129 64.8382C46.6103 64.1354 47.54 63.7471 48.5288 63.7471C49.5176 63.7471 50.4474 64.1354 51.2502 64.9425C51.9475 65.6452 52.3338 66.5781 52.3338 67.5721C52.3338 68.5661 51.9475 69.499 51.2466 70.2036L41.1407 80.3645ZM54.9103 81.5814C54.1254 82.3256 53.108 82.7498 52.0244 82.6976C50.9445 82.6725 49.9414 82.2249 49.2011 81.4376L46.8123 78.914L51.7026 73.9962L54.0395 76.4641C54.6493 77.1076 55.3537 77.6091 56.1083 77.9704C56.3228 79.2843 55.8866 80.6486 54.9121 81.5814H54.9103ZM78.1458 53.6868C78.9128 54.4454 79.3312 55.4609 79.3241 56.5448C79.3133 57.6304 78.8788 58.6406 78.0975 59.3883C76.5365 60.8802 74.1209 60.8533 72.5957 59.3308L66.7792 53.5322L66.7757 53.5287C66.7757 53.5287 66.7757 53.5287 66.7739 53.5287L58.5257 45.3053C57.9464 44.723 56.9934 44.7284 56.4123 45.3143C55.8329 45.9021 55.8365 46.8547 56.423 47.4389L64.6479 55.6407L70.2248 61.3835C70.9883 62.1672 71.3924 63.2007 71.3745 64.2954C71.3566 65.3882 70.9114 66.4074 70.1229 67.1623C68.5101 68.7063 65.9496 68.6452 64.4083 67.0203L49.6928 51.4724C49.1207 50.872 48.1748 50.8505 47.5794 51.4185C46.9804 51.99 46.9554 52.9427 47.5257 53.543L62.2412 69.091C62.3163 69.17 62.3932 69.2455 62.4719 69.321C63.5715 70.9477 63.3391 73.173 61.914 74.539C60.3048 76.074 57.7443 76.0255 56.2048 74.3952L53.7946 71.85C54.7834 70.6493 55.3215 69.1539 55.3215 67.5739C55.3215 65.7765 54.6242 64.0887 53.26 62.7154C51.8188 61.2685 49.7733 60.6465 47.8118 60.8461C48.0264 58.8653 47.3666 56.7892 45.8092 55.2236C44.3502 53.7587 42.2707 53.1404 40.286 53.3633C40.5256 51.3609 39.8676 49.2507 38.2888 47.6636C36.8512 46.2202 34.8111 45.5983 32.8514 45.7924C32.88 45.5408 32.8961 45.2856 32.8961 45.0285C32.8961 43.2329 32.1987 41.5433 30.8345 40.1718C28.3026 37.6302 23.9005 37.6302 21.3722 40.1718L15.2446 46.3299L9.10455 38.9729C1.88091 30.3218 2.59791 17.4467 10.7388 9.65835C19.1425 1.61836 32.1934 1.74059 40.4451 9.94953L44.6202 14.0998L29.1305 29.5669C28.0398 30.6561 27.5105 32.1624 27.6715 33.701C27.8324 35.2145 28.6531 36.5482 29.9154 37.3624C30.7844 37.9196 31.707 38.3995 32.6636 38.7878C38.4139 41.1209 44.9993 39.9615 49.8341 35.7483L55.2482 31.0336L78.1458 53.6868ZM75.9965 47.3472L57.7998 29.3404C59.282 28.6664 61.6834 27.8593 64.6336 27.8953C71.151 28.0139 74.3015 24.9492 75.7695 22.3483C76.1789 21.6258 75.9268 20.7109 75.208 20.2992C74.4928 19.8948 73.5809 20.1411 73.1715 20.8654C71.6177 23.6191 68.8516 24.9564 64.6908 24.8917C58.8529 24.8719 54.6278 27.64 54.4526 27.7622C54.4043 27.7964 54.3596 27.8341 54.3149 27.8737L47.8762 33.4799C43.9497 36.8933 38.4121 37.8819 33.7812 36.0035C32.9926 35.6854 32.2345 35.29 31.5264 34.8334C30.8434 34.3948 30.6807 33.7388 30.6432 33.3847C30.577 32.7573 30.7934 32.1444 31.2368 31.7004L51.3557 11.6122C55.3913 7.58229 60.9842 5.28156 66.7238 5.28156C66.7935 5.28156 66.8579 5.28156 66.9241 5.28336C72.6458 5.33728 77.9383 7.58769 81.8291 11.6176C89.8967 19.9721 89.8752 33.0467 81.7844 41.3833L75.993 47.349L75.9965 47.3472Z" fill="#B89435"/>
<path d="M83.9783 9.52354C79.5261 4.90949 73.4808 2.33734 66.9563 2.27443C60.2798 2.14861 53.8947 4.83759 49.2494 9.4786L46.739 11.9842L42.5461 7.81596C33.1375 -1.53975 18.2611 -1.68714 8.67542 7.48343C-0.602667 16.361 -1.42159 31.0408 6.81408 40.9052L13.1205 48.4599L11.2609 50.3274C8.65396 52.9517 8.65396 57.2188 11.2716 59.8503L11.37 59.9473C12.6323 61.2163 14.3113 61.9155 16.0975 61.9155C16.3336 61.9155 16.566 61.903 16.7967 61.8796C16.5964 63.8262 17.2347 65.8448 18.7152 67.3331L18.8171 67.4355C20.0813 68.7063 21.762 69.4073 23.5483 69.4073C23.8093 69.4073 24.0686 69.3911 24.3243 69.3606C24.099 71.3324 24.7337 73.3851 26.2357 74.8931L26.3376 74.9956C27.6428 76.3077 29.3576 76.962 31.0687 76.962C31.3012 76.962 31.5336 76.9494 31.766 76.9242C31.7428 77.1561 31.7285 77.3898 31.7285 77.627C31.7285 79.4245 32.4258 81.1123 33.6882 82.3831L33.7901 82.4855C35.056 83.7563 36.735 84.4573 38.5212 84.4573C40.3075 84.4573 41.9882 83.7563 43.2523 82.4855L44.6917 81.0386L47.0287 83.5047C48.3232 84.8726 50.0683 85.6526 51.9475 85.6976C52.0048 85.6994 52.0638 85.7012 52.1228 85.7012C53.9358 85.7012 55.647 85.0145 56.9648 83.7527C58.3719 82.4082 59.1318 80.5479 59.139 78.6498C60.877 78.648 62.6167 78.0045 63.9685 76.7085C65.5062 75.2382 66.2464 73.1891 66.132 71.1688C66.5307 71.2371 66.933 71.2749 67.3353 71.2749C69.0751 71.2749 70.8202 70.6296 72.1809 69.33C73.5523 68.0179 74.3265 66.2438 74.3587 64.3403C74.3659 64.0257 74.348 63.7166 74.314 63.4092C74.6627 63.4632 75.0167 63.4919 75.3689 63.4919C77.0837 63.4919 78.7984 62.8484 80.1483 61.5561C81.5251 60.2403 82.2904 58.468 82.3047 56.5609C82.319 54.6575 81.5824 52.8726 80.2324 51.5371L78.1189 49.4467L83.9211 43.4719C93.1545 33.9634 93.1759 19.05 83.9747 9.51994L83.9783 9.52354ZM18.7152 57.821C17.317 59.2266 14.8799 59.2266 13.4834 57.821C13.4816 57.821 13.3779 57.7185 13.3779 57.7185C11.935 56.268 11.935 53.9061 13.3779 52.4538L16.1708 49.6462C16.1977 49.621 16.2227 49.5958 16.2477 49.5689L23.4857 42.2928C24.1866 41.59 25.1146 41.2018 26.1033 41.2018C27.0921 41.2018 28.0219 41.59 28.8247 42.3971C29.5221 43.0999 29.9083 44.0327 29.9083 45.0267C29.9083 46.0207 29.5256 46.9554 28.8212 47.66L18.7152 57.8192V57.821ZM26.1659 65.3127C24.7713 66.7147 22.3342 66.7183 20.9324 65.3127L20.8322 65.2103C19.3893 63.7579 19.3893 61.3979 20.8304 59.9455L30.9382 49.7864C30.9382 49.7864 30.9525 49.7702 30.9596 49.763C32.3704 48.3772 34.6877 48.2855 36.2755 49.887C36.9764 50.5898 37.359 51.5245 37.359 52.5185C37.359 53.5125 36.9764 54.4471 36.2755 55.15L26.1659 65.3127ZM33.69 72.871C33.69 72.871 33.6757 72.8872 33.6685 72.8944C32.2184 74.3233 29.8832 74.3125 28.451 72.871L28.3527 72.7703C26.908 71.3198 26.908 68.9579 28.3527 67.5056L38.464 57.3464C39.8587 55.9408 42.1992 55.8384 43.7995 57.4489C45.2442 58.8994 45.2442 61.2613 43.7995 62.7136L33.6917 72.8728L33.69 72.871ZM41.1407 80.3645C39.746 81.7701 37.3018 81.7701 35.9089 80.3645C35.9089 80.3645 35.807 80.2621 35.807 80.2603C35.1061 79.5575 34.7199 78.6228 34.7199 77.6288C34.7199 76.6348 35.1061 75.702 35.807 74.9974L45.9129 64.8382C46.6103 64.1354 47.54 63.7471 48.5288 63.7471C49.5176 63.7471 50.4474 64.1354 51.2502 64.9425C51.9475 65.6452 52.3338 66.5781 52.3338 67.5721C52.3338 68.5661 51.9475 69.499 51.2466 70.2036L41.1407 80.3645ZM54.9103 81.5814C54.1254 82.3256 53.108 82.7498 52.0244 82.6976C50.9445 82.6725 49.9414 82.2249 49.2011 81.4376L46.8123 78.914L51.7026 73.9962L54.0395 76.4641C54.6493 77.1076 55.3537 77.6091 56.1083 77.9704C56.3228 79.2843 55.8866 80.6486 54.9121 81.5814H54.9103ZM78.1458 53.6868C78.9128 54.4454 79.3312 55.4609 79.3241 56.5448C79.3133 57.6304 78.8788 58.6406 78.0975 59.3883C76.5365 60.8802 74.1209 60.8533 72.5957 59.3308L66.7792 53.5322L66.7757 53.5287C66.7757 53.5287 66.7757 53.5287 66.7739 53.5287L58.5257 45.3053C57.9464 44.723 56.9934 44.7284 56.4123 45.3143C55.8329 45.9021 55.8365 46.8547 56.423 47.4389L64.6479 55.6407L70.2248 61.3835C70.9883 62.1672 71.3924 63.2007 71.3745 64.2954C71.3566 65.3882 70.9114 66.4074 70.1229 67.1623C68.5101 68.7063 65.9496 68.6452 64.4083 67.0203L49.6928 51.4724C49.1207 50.872 48.1748 50.8505 47.5794 51.4185C46.9804 51.99 46.9554 52.9427 47.5257 53.543L62.2412 69.091C62.3163 69.17 62.3932 69.2455 62.4719 69.321C63.5715 70.9477 63.3391 73.173 61.914 74.539C60.3048 76.074 57.7443 76.0255 56.2048 74.3952L53.7946 71.85C54.7834 70.6493 55.3215 69.1539 55.3215 67.5739C55.3215 65.7765 54.6242 64.0887 53.26 62.7154C51.8188 61.2685 49.7733 60.6465 47.8118 60.8461C48.0264 58.8653 47.3666 56.7892 45.8092 55.2236C44.3502 53.7587 42.2707 53.1404 40.286 53.3633C40.5256 51.3609 39.8676 49.2507 38.2888 47.6636C36.8512 46.2202 34.8111 45.5983 32.8514 45.7924C32.88 45.5408 32.8961 45.2856 32.8961 45.0285C32.8961 43.2329 32.1987 41.5433 30.8345 40.1718C28.3026 37.6302 23.9005 37.6302 21.3722 40.1718L15.2446 46.3299L9.10455 38.9729C1.88091 30.3218 2.59791 17.4467 10.7388 9.65835C19.1425 1.61836 32.1934 1.74059 40.4451 9.94953L44.6202 14.0998L29.1305 29.5669C28.0398 30.6561 27.5105 32.1624 27.6715 33.701C27.8324 35.2145 28.6531 36.5482 29.9154 37.3624C30.7844 37.9196 31.707 38.3995 32.6636 38.7878C38.4139 41.1209 44.9993 39.9615 49.8341 35.7483L55.2482 31.0336L78.1458 53.6868ZM75.9965 47.3472L57.7998 29.3404C59.282 28.6664 61.6834 27.8593 64.6336 27.8953C71.151 28.0139 74.3015 24.9492 75.7695 22.3483C76.1789 21.6258 75.9268 20.7109 75.208 20.2992C74.4928 19.8948 73.5809 20.1411 73.1715 20.8654C71.6177 23.6191 68.8516 24.9564 64.6908 24.8917C58.8529 24.8719 54.6278 27.64 54.4526 27.7622C54.4043 27.7964 54.3596 27.8341 54.3149 27.8737L47.8762 33.4799C43.9497 36.8933 38.4121 37.8819 33.7812 36.0035C32.9926 35.6854 32.2345 35.29 31.5264 34.8334C30.8434 34.3948 30.6807 33.7388 30.6432 33.3847C30.577 32.7573 30.7934 32.1444 31.2368 31.7004L51.3557 11.6122C55.3913 7.58229 60.9842 5.28156 66.7238 5.28156C66.7935 5.28156 66.8579 5.28156 66.9241 5.28336C72.6458 5.33728 77.9383 7.58769 81.8291 11.6176C89.8967 19.9721 89.8752 33.0467 81.7844 41.3833L75.993 47.349L75.9965 47.3472Z" stroke="#B89435" stroke-width="0.6" mask="url(#path-1-outside-1_356_566)"/>
</svg>
