<svg width="88" height="101" viewBox="0 0 88 101" fill="none" xmlns="http://www.w3.org/2000/svg">
<path d="M12.2707 48.0243L1.57725 47.7056C0.905113 47.6861 0.34789 48.213 0.326209 48.8829C0.306695 49.5529 0.833563 50.1123 1.50353 50.134L12.197 50.4527C12.2078 50.4527 12.2209 50.4527 12.2339 50.4527C12.8887 50.4527 13.4264 49.9323 13.4459 49.2754C13.4654 48.6054 12.9385 48.0438 12.2686 48.0243H12.2707Z" fill="#B89435" stroke="#B89435" stroke-width="0.650455" stroke-miterlimit="10"/>
<path d="M86.4245 47.7085L75.7311 48.0273C75.0611 48.0468 74.5342 48.6083 74.5537 49.2783C74.5733 49.9374 75.1131 50.4556 75.7658 50.4556C75.7766 50.4556 75.7896 50.4556 75.8026 50.4556L86.4961 50.1369C87.1661 50.1174 87.6929 49.5558 87.6734 48.8859C87.6539 48.2159 87.0945 47.689 86.4224 47.7085H86.4245Z" fill="#B89435" stroke="#B89435" stroke-width="0.650455" stroke-miterlimit="10"/>
<path d="M57.0696 25.1717C53.182 22.7325 48.6635 21.4424 43.9998 21.4424C39.336 21.4424 34.8175 22.7325 30.93 25.1717C27.1682 27.5328 24.1566 30.8545 22.2226 34.7789C20.3102 38.6556 19.5383 42.9768 19.9915 47.2784C20.488 51.9899 22.383 56.5214 25.6223 60.7494C26.7085 62.1673 27.6907 63.3056 28.5558 64.3117C31.472 67.6984 33.0808 69.5652 33.5491 76.3581V87.8104C33.5491 90.7071 34.7091 93.1463 36.9033 94.8614C37.6166 95.4186 38.4167 95.8804 39.2861 96.2403C39.4444 98.7055 41.4999 100.663 44.0041 100.663C46.5084 100.663 48.5638 98.7055 48.7221 96.2403C49.5893 95.8804 50.3916 95.4186 51.1049 94.8614C53.2991 93.1463 54.4591 90.7093 54.4591 87.8104V76.3538C54.9274 69.563 56.5362 67.6962 59.4524 64.3095C60.3175 63.3035 61.2997 62.1652 62.386 60.7472C65.6274 56.5192 67.5202 51.9877 68.0167 47.2763C68.4699 42.9746 67.698 38.6534 65.7857 34.7767C63.8451 30.8545 60.8335 27.5328 57.0739 25.1717H57.0696ZM43.9998 94.7204C41.9096 94.7204 39.735 94.0873 38.176 92.7561H49.8213C48.2646 94.0873 46.0877 94.7204 43.9976 94.7204H43.9998ZM36.4307 90.3277C36.1965 89.7314 36.0447 89.0723 35.9948 88.3481H52.0047C51.9548 89.0723 51.8031 89.7314 51.5689 90.3277H36.4307ZM52.0264 85.9198H35.9775V83.9402H52.0264V85.9198ZM44.0019 98.2329C43.113 98.2329 42.3411 97.7255 41.9595 96.9862C42.6251 97.0924 43.306 97.1466 44.0019 97.1466C44.6979 97.1466 45.3809 97.0924 46.0444 96.9862C45.6606 97.7255 44.8909 98.2329 44.0019 98.2329ZM60.4541 59.2707C59.4112 60.6323 58.4529 61.7445 57.6095 62.7246C56.0354 64.5523 54.7908 65.9963 53.839 67.9997C52.8871 70.0031 52.3364 72.3816 52.0741 75.6534C52.0459 75.7575 52.0286 75.8659 52.0286 75.9787V81.5097H35.9797V75.9765C35.9797 75.8637 35.9623 75.7532 35.9341 75.6491C35.6718 72.3773 35.1211 70.001 34.1692 67.9976C33.2174 65.9942 31.9729 64.5502 30.3988 62.7224C29.5553 61.7424 28.597 60.6323 27.5541 59.2685C21.8691 51.8511 20.72 43.3128 24.4059 35.85C28.0528 28.4586 35.5634 23.8664 44.0063 23.8664C52.4492 23.8664 59.9576 28.4586 63.6066 35.85C67.2904 43.315 66.1434 51.849 60.4584 59.2685L60.4541 59.2707Z" fill="#B89435" stroke="#B89435" stroke-width="0.650455" stroke-miterlimit="10"/>
<path d="M43.9998 13.8432C44.6698 13.8432 45.214 13.299 45.214 12.629V1.92903C45.214 1.25906 44.6698 0.714844 43.9998 0.714844C43.3299 0.714844 42.7856 1.25906 42.7856 1.92903V12.6268C42.7856 13.2968 43.3299 13.841 43.9998 13.841V13.8432Z" fill="#B89435" stroke="#B89435" stroke-width="0.650455" stroke-miterlimit="10"/>
<path d="M20.7439 20.7233L13.5304 12.8202C13.0772 12.3237 12.3097 12.289 11.8154 12.7422C11.3188 13.1953 11.2841 13.9629 11.7373 14.4572L18.9508 22.3602C19.1915 22.6226 19.5189 22.7548 19.8485 22.7548C20.1412 22.7548 20.4339 22.6508 20.6659 22.4383C21.1624 21.9851 21.1971 21.2198 20.7439 20.7233Z" fill="#B89435" stroke="#B89435" stroke-width="0.650455" stroke-miterlimit="10"/>
<path d="M76.1822 12.7414C75.6857 12.2883 74.9181 12.3251 74.4672 12.8195L67.2536 20.7225C66.8005 21.219 66.8373 21.9865 67.3317 22.4375C67.5637 22.65 67.8585 22.7541 68.1491 22.7541C68.4786 22.7541 68.806 22.6218 69.0467 22.3595L76.2603 14.4564C76.7134 13.9621 76.6765 13.1946 76.1822 12.7414Z" fill="#B89435" stroke="#B89435" stroke-width="0.650455" stroke-miterlimit="10"/>
<path d="M59.6694 41.6397L57.241 40.9415C57.0047 40.1957 56.7033 39.4693 56.3434 38.7733L57.5662 36.5639C57.7961 36.1498 57.7635 35.6381 57.4817 35.2565C56.4735 33.8862 55.268 32.6807 53.8977 31.6725C53.5161 31.3928 53.0044 31.3581 52.5903 31.588L50.3809 32.8108C49.6849 32.4509 48.9607 32.1495 48.2127 31.9132L47.5146 29.487C47.3823 29.0317 46.9985 28.6934 46.5302 28.6219C44.8629 28.3682 43.1305 28.3682 41.4632 28.6219C40.9948 28.6934 40.6111 29.0317 40.4788 29.487L39.7806 31.9154C39.0348 32.1517 38.3084 32.4531 37.6125 32.813L35.4031 31.5901C34.989 31.3603 34.4773 31.3928 34.0957 31.6747C32.7254 32.6829 31.5199 33.8884 30.5117 35.2587C30.2298 35.6403 30.1973 36.152 30.4271 36.5661L31.65 38.7755C31.29 39.4715 30.9887 40.1957 30.7523 40.9437L28.324 41.6418C27.8687 41.7741 27.5304 42.1579 27.4589 42.6262C27.3331 43.4588 27.2681 44.313 27.2681 45.1586C27.2681 46.0042 27.3331 46.8585 27.4589 47.6911C27.5304 48.1594 27.8687 48.5432 28.324 48.6754L30.7523 49.3736C30.9887 50.1194 31.29 50.8458 31.65 51.5417L30.4271 53.7511C30.1973 54.1652 30.2298 54.6769 30.5117 55.0585C31.5199 56.4288 32.7254 57.6343 34.0957 58.6425C34.4773 58.9244 34.989 58.9569 35.4031 58.7271L37.6125 57.5043C38.3084 57.8642 39.0326 58.1655 39.7806 58.4019L40.4788 60.8302C40.6111 61.2856 40.9948 61.6238 41.4632 61.6953C42.2957 61.8233 43.1478 61.8861 43.9956 61.8861C44.8434 61.8861 45.6954 61.8211 46.528 61.6953C46.9964 61.6238 47.3801 61.2856 47.5124 60.8302L48.2105 58.4019C48.9586 58.1655 49.6827 57.8642 50.3787 57.5043L52.5881 58.7271C53.0022 58.9569 53.5139 58.9244 53.8955 58.6425C55.2658 57.6343 56.4713 56.4288 57.4795 55.0585C57.7614 54.6769 57.7939 54.1652 57.5641 53.7511L56.3412 51.5417C56.7011 50.8458 57.0025 50.1216 57.2388 49.3736L59.6672 48.6754C60.1225 48.5432 60.4608 48.1594 60.5323 47.6911C60.6602 46.8563 60.7231 46.0042 60.7231 45.1586C60.7231 44.313 60.6581 43.4588 60.5323 42.6262C60.4608 42.1579 60.1225 41.7719 59.6672 41.6418L59.6694 41.6397ZM58.2297 46.5614L55.9293 47.2227C55.5173 47.342 55.1986 47.6672 55.0902 48.0813C54.8278 49.0787 54.4311 50.037 53.9085 50.9282C53.6939 51.2989 53.6874 51.7542 53.8955 52.1293L55.0533 54.2238C54.4571 54.9501 53.7914 55.6136 53.0651 56.212L50.9706 55.0542C50.5955 54.8461 50.1402 54.8526 49.7695 55.0672C48.8783 55.5876 47.92 55.9844 46.9226 56.2467C46.5085 56.3551 46.1833 56.6738 46.064 57.0858L45.4027 59.3862C44.4704 59.4773 43.5251 59.4773 42.5928 59.3862L41.9315 57.0858C41.8122 56.6738 41.487 56.3551 41.0729 56.2467C40.0755 55.9844 39.1194 55.5876 38.2261 55.065C37.8553 54.8504 37.4 54.8439 37.0249 55.052L34.9304 56.2098C34.2041 55.6136 33.5406 54.948 32.9422 54.2216L34.1 52.1272C34.306 51.7521 34.3017 51.2967 34.087 50.926C33.5666 50.0349 33.1699 49.0744 32.9053 48.077C32.7969 47.6629 32.4782 47.3376 32.0663 47.2184L29.768 46.5593C29.7224 46.0931 29.7008 45.6226 29.7008 45.1543C29.7008 44.686 29.7246 44.2155 29.768 43.7493L32.0684 43.088C32.4782 42.9688 32.7991 42.6435 32.9075 42.2294C33.1699 41.232 33.5666 40.2737 34.0892 39.3804C34.3038 39.0097 34.3103 38.5543 34.1022 38.1792L32.9444 36.0848C33.5406 35.3584 34.2062 34.695 34.9326 34.0966L37.0271 35.2544C37.4022 35.4603 37.8575 35.456 38.2282 35.2414C39.1193 34.721 40.0777 34.3242 41.0772 34.0597C41.4913 33.9513 41.8166 33.6326 41.9358 33.2206L42.5971 30.9202C43.5294 30.8291 44.4748 30.8291 45.4071 30.9202L46.0684 33.2206C46.1876 33.6326 46.5128 33.9513 46.927 34.0597C47.9243 34.322 48.8827 34.7188 49.7738 35.2414C50.1446 35.456 50.5999 35.4625 50.975 35.2544L53.0694 34.0966C53.7958 34.6928 54.4592 35.3584 55.0577 36.0848L53.8998 38.1792C53.6939 38.5543 53.6982 39.0097 53.9129 39.3804C54.4332 40.2715 54.83 41.2299 55.0945 42.2294C55.2029 42.6435 55.5216 42.9688 55.9336 43.088L58.234 43.7493C58.2796 44.2155 58.3034 44.686 58.3034 45.1543C58.3013 45.6226 58.2774 46.0931 58.2319 46.5593L58.2297 46.5614Z" fill="#B89435" stroke="#B89435" stroke-width="0.650455" stroke-miterlimit="10"/>
<path d="M44 36.7871C39.384 36.7871 35.6309 40.5424 35.6309 45.1563C35.6309 49.7702 39.3861 53.5255 44 53.5255C48.6139 53.5255 52.3692 49.7702 52.3692 45.1563C52.3692 40.5424 48.6139 36.7871 44 36.7871ZM44 51.0971C40.7239 51.0971 38.0592 48.4324 38.0592 45.1563C38.0592 41.8802 40.7239 39.2155 44 39.2155C47.2762 39.2155 49.9409 41.8802 49.9409 45.1563C49.9409 48.4324 47.2762 51.0971 44 51.0971Z" fill="#B89435" stroke="#B89435" stroke-width="0.650455" stroke-miterlimit="10"/>
<path d="M45.5609 96.5703H42.1113V98.2333H45.5609V96.5703Z" fill="#B89435" stroke="#B89435" stroke-width="0.650455" stroke-miterlimit="10"/>
</svg>
