<?xml version="1.0" encoding="utf-8"?>
<!-- Generator: Adobe Illustrator 27.3.1, SVG Export Plug-In . SVG Version: 6.00 Build 0)  -->
<svg version="1.1" id="Calque_1" xmlns="http://www.w3.org/2000/svg" xmlns:xlink="http://www.w3.org/1999/xlink" x="0px" y="0px"
	 viewBox="0 0 466.4 400" style="enable-background:new 0 0 466.4 400;" xml:space="preserve">
<style type="text/css">
	.st0{fill-rule:evenodd;clip-rule:evenodd;fill:#A88D44;}
	.st1{fill:#A88D44;}
</style>
<g>
	<path class="st0" d="M223.6,102.8c18.9-4.5,37.9,7.1,42.3,25.9c4.5,18.8-7.1,37.6-26,42c-18.9,4.5-37.8-7.1-42.3-25.8
		C193.1,126.1,204.7,107.4,223.6,102.8L223.6,102.8z M221,92.1c-24.7,5.8-40,30.7-34.1,55.4c5.9,24.7,30.9,39.9,55.7,34.1
		c24.7-5.8,40.1-30.7,34.2-55.4C270.8,101.5,245.8,86.3,221,92.1L221,92.1z"/>
	<path class="st0" d="M148.7,95.5c9,0.4,15.1,8.7,12.8,17.4c-9.5,35.8,3.8,68.2,33.9,87.9c25.9,17,52.4,17,78.4,0
		c30-19.7,43.4-52,33.9-87.9c-2.4-8.8,3.7-17.1,12.8-17.4c6.6-0.3,12.3,4.1,13.9,10.5c11.5,44.7-3.8,92.1-39.1,120.7
		c-0.9,0.8-1.6,1.8-1.9,2.9l-17.8,70.8c-1.7,6.5-6.3,12.1-14,15.4c-17.4,7.3-37.6,8.1-54,0c-7.4-3.7-12.3-8.9-14-15.4l-17.9-70.8
		c-0.3-1.1-0.9-2.2-1.9-2.9c-35.3-28.6-50.6-76-39-120.7C136.4,99.6,142.1,95.3,148.7,95.5L148.7,95.5L148.7,95.5z M149.1,84.5
		c-11.8-0.5-22.2,7.5-25.1,18.9c-12.3,47.8,4.1,97.9,41.1,129.5l17.8,70.4c2.6,10.3,10.1,18.3,19.8,22.5c20.7,9,44.8,9.4,63.9,0
		c9.4-4.6,17.1-12.2,19.8-22.5l17.7-70.4c36.9-31.5,53.4-81.6,41.1-129.5c-2.9-11.3-13.4-19.3-25.1-18.9
		c-15.9,0.6-27.1,16-23.1,31.3c8.5,31.9-2.5,58.3-29.2,75.8c-23.3,15.3-42.9,15.3-66.2,0c-26.8-17.5-37.7-43.8-29.3-75.8
		C176.2,100.5,165,85,149.1,84.5L149.1,84.5z"/>
	<path class="st1" d="M170.8,370.9c-6.5,10.4-15.4,17.2-25.9,18.5c-10.3,1.2-22.1-3.6-34.1-12.9c10.8-5,20.8-10.3,31.7-11.5
		C153.5,363.8,161.2,366.1,170.8,370.9L170.8,370.9z M79.6,318.3c11.3,1.1,19.5,6.3,29,17.2c-9.9,7.2-20.6,10.4-30.9,7.5
		c-10-2.7-19.2-11.5-26.8-24.6C59.7,318,68.2,317.2,79.6,318.3L79.6,318.3L79.6,318.3z M17,240.9c11.2,4,22,7.4,29,11.8
		c7.5,4.8,13.1,12.8,17.4,26.6c-11.9,2.8-23.1,1.4-31.4-5.2C24.1,267.6,18.9,256,17,240.9L17,240.9L17,240.9z M13.6,156.6
		c8.9,7.9,17.7,15,22.5,21.8c5.2,7.2,7.4,16.8,6.4,31.1c-12.1-1.9-21.9-7.2-27.2-16.5C10.2,184.1,9.9,171.3,13.6,156.6L13.6,156.6
		L13.6,156.6z M44.8,75.9c4.7,11,9.6,21.2,11.1,29.3c1.6,8.8-0.5,18.3-7.5,30.8c-10.2-6.8-16.8-15.9-17.6-26.5
		C29.9,99.3,35,87.6,44.8,75.9L44.8,75.9L44.8,75.9z M98,14.7c1.5,11.9,2.6,22.9,1.8,31.2c-0.9,8.9-4.5,17.5-14.7,27.7
		c-7.9-9.3-11.8-19.9-9.7-30.2C77.4,33.2,85.5,23.3,98,14.7L98,14.7L98,14.7z M99.5,0.7C80,11.1,68.4,25.6,65.2,41.4
		c-2.8,14,1.6,28.5,12,40.2c-4.3,6.1-8.3,12.4-11.8,19c-2.7-11.5-8.3-22.3-14-36.4c-1.5-3.7-6.1-4.6-8.9-2
		c-16.1,15.2-23.3,32.5-21.9,48.4c1.3,15.9,11.2,29.8,26.9,38c-1.7,7.4-2.9,15-3.7,22.7c-7.4-9.8-17.5-17.3-29.2-28.1
		c-3-2.8-7.5-1.5-8.9,2c-8.1,20.6-7.2,39.4,0.9,53.1c7.6,13.3,21.9,21.5,38.8,22.8c1.2,7.4,2.9,14.9,5.1,22.1
		c-10.6-6.3-22.5-9.8-37.4-15.2c-4.6-1.7-7.6,1.3-7.5,5.2c0.5,22.1,8,39.2,20.5,49.1c12.1,9.5,28.4,11.9,44.5,6.7
		c4,6.6,8.4,12.8,13.1,18.8c-12.6-2.1-25.3,0.4-41.7,0.5c-4.3,0-6.5,4.3-4.9,7.7c9,20.2,22.7,32.9,38.1,37
		c14.9,4,30.6-0.2,43.5-11.2c6.1,4.5,12.4,8.8,19,12.5c-12.5,2.7-23.6,9.5-38.8,16c-3.9,1.7-4.6,6.1-1.7,9
		c15.5,15.7,33.3,22.1,49.2,20.2c15.3-1.8,28.4-11.5,36.4-26.7c5.5,1.5,11,2.8,16.7,3.8c7.4,1.5,9.4-9.8,1.9-10.9
		c-60.9-10.7-112-52.3-134.8-109.8C44,199.4,52.2,133.6,87.8,85.8c9-12.1,21.6-20.7,23.4-39c1.3-12.8-1.8-25.4-3.5-41.9
		C107.2,0.8,102.8-1.1,99.5,0.7L99.5,0.7L99.5,0.7z"/>
	<path class="st1" d="M295.6,370.9c6.5,10.4,15.4,17.2,25.9,18.5c10.3,1.2,22.1-3.6,34.1-12.9c-10.8-5-20.8-10.3-31.6-11.5
		C313,363.8,305.2,366.1,295.6,370.9L295.6,370.9L295.6,370.9z M386.8,318.3c-11.3,1.1-19.6,6.3-29,17.2c9.9,7.2,20.6,10.4,30.9,7.5
		c9.9-2.7,19.2-11.5,26.8-24.6C406.7,318,398.1,317.2,386.8,318.3L386.8,318.3L386.8,318.3z M449.3,240.9c-11.2,4-22,7.4-29,11.8
		c-7.5,4.8-13,12.8-17.4,26.6c12,2.8,23.1,1.4,31.5-5.2C442.3,267.6,447.5,256,449.3,240.9L449.3,240.9z M452.7,156.6
		c-9,7.9-17.7,15-22.5,21.8c-5.2,7.2-7.3,16.8-6.3,31.1c12-1.9,21.9-7.2,27.2-16.5C456.2,184.1,456.5,171.3,452.7,156.6L452.7,156.6
		L452.7,156.6z M421.6,75.9c-4.7,11-9.6,21.2-11.1,29.3c-1.6,8.8,0.5,18.3,7.5,30.8c10.2-6.8,16.8-15.9,17.6-26.5
		C436.5,99.3,431.3,87.6,421.6,75.9L421.6,75.9L421.6,75.9z M368.4,14.7c-1.5,11.9-2.6,22.9-1.8,31.2c0.8,8.9,4.5,17.5,14.7,27.7
		c7.9-9.3,11.8-19.9,9.7-30.2C389,33.2,380.9,23.3,368.4,14.7L368.4,14.7L368.4,14.7z M366.9,0.7c19.4,10.4,31.2,25,34.3,40.7
		c2.7,14-1.7,28.5-12,40.2c4.3,6.1,8.3,12.4,11.8,19c2.7-11.5,8.3-22.3,14-36.4c1.5-3.7,6.1-4.6,9-2c16.1,15.2,23.3,32.5,21.9,48.4
		s-11.1,29.8-26.8,38c1.7,7.4,2.9,15,3.7,22.7c7.4-9.8,17.4-17.3,29.2-28.1c3.1-2.8,7.6-1.5,9,2c8,20.6,7.2,39.4-0.8,53.1
		c-7.6,13.3-21.8,21.5-38.7,22.8c-1.2,7.4-2.9,14.9-5.1,22.1c10.5-6.3,22.5-9.8,37.4-15.2c4.6-1.7,7.6,1.3,7.5,5.2
		c-0.5,22.1-8,39.2-20.5,49.1c-12,9.5-28.3,11.9-44.5,6.7c-4,6.6-8.4,12.8-13.1,18.8c12.5-2.1,25.2,0.4,41.7,0.5
		c4.3,0,6.5,4.3,4.9,7.7c-9,20.2-22.7,32.9-38.1,37c-14.8,4-30.6-0.2-43.5-11.2c-6,4.5-12.4,8.8-19,12.5c12.5,2.7,23.5,9.5,38.8,16
		c3.9,1.7,4.5,6.1,1.7,9c-15.5,15.7-33.2,22.1-49.2,20.2c-15.3-1.8-28.4-11.5-36.3-26.7c-5.5,1.5-11,2.8-16.7,3.8
		c-7.4,1.5-9.4-9.8-1.9-10.9c60.9-10.7,112-52.3,134.8-109.8c22.5-56.7,14.3-122.5-21.4-170.3c-9-12.1-21.6-20.7-23.5-39
		c-1.3-12.8,1.8-25.4,3.5-41.9C359.2,0.8,363.6-1.1,366.9,0.7L366.9,0.7L366.9,0.7z"/>
</g>
</svg>
