<?xml version="1.0" encoding="utf-8"?>
<!-- Generator: Adobe Illustrator 27.3.1, SVG Export Plug-In . SVG Version: 6.00 Build 0)  -->
<svg version="1.1" id="Calque_1" xmlns="http://www.w3.org/2000/svg" xmlns:xlink="http://www.w3.org/1999/xlink" x="0px" y="0px"
	 viewBox="0 0 424.5 400" style="enable-background:new 0 0 424.5 400;" xml:space="preserve">
<style type="text/css">
	.st0{fill:#A88D44;}
</style>
<g>
	<path class="st0" d="M391.8,41.5c-21.1-21.7-49.7-33.8-80.5-34.1c-31.5-0.6-61.8,12.1-83.7,33.9l-11.8,11.8l-19.8-19.6
		C151.4-10.5,81-11.3,35.7,32c-43.9,41.8-47.8,110.9-8.8,157.3l29.9,35.5l-8.8,8.8C35.6,246,35.6,266,48,278.5l0.5,0.4
		c6,6,13.9,9.2,22.3,9.2c1.1,0,2.2-0.1,3.3-0.2c-0.9,9.1,2.1,18.7,9,25.6l0.5,0.5c6,6,14,9.3,22.4,9.3c1.3,0,2.5-0.1,3.6-0.2
		c-1.1,9.3,2,19,9,26l0.5,0.5l0,0c6.2,6.2,14.3,9.2,22.4,9.2c1.1,0,2.2-0.1,3.3-0.2c-0.1,1.1-0.2,2.2-0.2,3.3
		c0,8.5,3.3,16.4,9.3,22.4l0.5,0.5c6,6,14,9.3,22.4,9.3s16.4-3.3,22.4-9.3l6.9-6.8l11.1,11.6c6.1,6.4,14.4,10.1,23.3,10.3h0.9
		c8.5,0,16.7-3.2,22.9-9.1c6.7-6.3,10.2-15.1,10.3-24c8.2,0,16.5-3,22.8-9.1c7.3-6.9,10.7-16.6,10.2-26c1.9,0.3,3.8,0.5,5.7,0.5
		c8.2,0,16.5-3,22.9-9.1c6.5-6.2,10.2-14.5,10.3-23.5c0-1.4-0.1-3-0.2-4.4c1.7,0.2,3.3,0.4,5,0.4c8.1,0,16.2-3,22.6-9.1
		c6.5-6.2,10.2-14.5,10.2-23.5c0.1-9-3.4-17.3-9.8-23.6l-10-9.8l27.4-28.1C435.2,156.6,435.4,86.4,391.8,41.5L391.8,41.5L391.8,41.5
		z M83,268.8c-6.6,6.6-18.1,6.6-24.8,0l-0.5-0.5c-6.9-6.9-6.9-17.9,0-24.8l13.2-13.2c0.1-0.1,0.2-0.2,0.3-0.3l34.3-34.3
		c3.3-3.3,7.7-5.2,12.4-5.2s9,1.9,12.9,5.7c3.3,3.3,5.2,7.7,5.2,12.4s-1.8,9-5.2,12.4L83,268.8L83,268.8z M118.3,304.1
		c-6.6,6.6-18.1,6.6-24.8,0l-0.5-0.5c-6.9-6.9-6.9-17.9,0-24.8l47.8-47.8l0.1-0.1c6.7-6.5,17.6-6.9,25.1,0.6
		c3.3,3.3,5.2,7.7,5.2,12.4s-1.8,9-5.2,12.4L118.3,304.1L118.3,304.1z M153.8,339.7L153.8,339.7c-6.9,6.9-18,6.8-24.8,0l-0.5-0.5
		c-6.9-6.8-6.9-17.9,0-24.8l47.8-47.8c6.6-6.6,17.7-7.1,25.2,0.5c6.9,6.9,6.9,17.9,0,24.8L153.8,339.7L153.8,339.7z M189.1,374.9
		c-6.6,6.6-18.2,6.6-24.8,0l-0.5-0.5c-3.3-3.3-5.2-7.7-5.2-12.3s1.9-9,5.2-12.3l47.8-47.8c3.3-3.3,7.7-5.2,12.4-5.2s9,1.9,12.9,5.7
		c3.3,3.3,5.2,7.7,5.2,12.4c0,4.6-1.9,9-5.2,12.3L189.1,374.9z M254.2,380.6c-3.7,3.5-8.5,5.5-13.6,5.2c-5.1-0.1-9.9-2.2-13.4-5.9
		l-11.3-11.8l23.2-23.2l11.1,11.6c2.9,3,6.2,5.4,9.8,7.1C260.9,369.8,258.9,376.2,254.2,380.6L254.2,380.6L254.2,380.6z
		 M364.2,249.3c3.6,3.5,5.6,8.4,5.6,13.5c-0.1,5.1-2.1,9.9-5.8,13.4c-7.4,7-18.8,6.9-26-0.2l-27.5-27.3l0,0l-39.1-38.7
		c-2.7-2.7-7.3-2.7-10,0.1c-2.7,2.8-2.7,7.3,0.1,10l38.9,38.6l26.4,27c3.6,3.7,5.5,8.5,5.4,13.7s-2.2,10-5.9,13.4
		c-7.6,7.3-19.7,7-27.1-0.7l-69.5-73.1c-2.7-2.8-7.2-3-10-0.2s-3,7.2-0.2,10l69.6,73.2l1.1,1.1c5.2,7.6,4.1,18.1-2.6,24.5
		c-7.6,7.2-19.7,7-27-0.7l-11.4-12c4.6-5.7,7.2-12.7,7.2-20.1c0-8.5-3.3-16.4-9.7-22.8c-6.9-6.8-16.5-9.7-25.8-8.8
		c1-9.3-2.1-19.1-9.5-26.5c-6.9-6.9-16.8-9.8-26.1-8.7c1.1-9.4-2-19.4-9.5-26.8c-6.8-6.8-16.5-9.7-25.7-8.8c0.2-1.2,0.2-2.4,0.2-3.6
		c0-8.5-3.3-16.4-9.7-22.8c-12-11.9-32.8-11.9-44.8,0l-29,29l-29-34.6C3.4,139.4,6.8,78.8,45.3,42.1C85.1,4.3,146.8,4.9,185.8,43.5
		L205.5,63l-73.2,72.7c-5.2,5.2-7.7,12.2-6.9,19.5c0.8,7.1,4.6,13.4,10.7,17.3c4.1,2.6,8.5,4.9,13,6.7c27.2,11,58.4,5.5,81.2-14.3
		l25.6-22.2L364.2,249.3L364.2,249.3z M354,219.6l-86-84.8c7-3.1,18.4-6.9,32.3-6.8c30.8,0.6,45.8-13.9,52.7-26.1
		c2-3.4,0.8-7.7-2.6-9.6c-3.4-2-7.7-0.8-9.6,2.7c-7.4,12.9-20.5,19.3-40.1,19c-27.6-0.1-47.6,12.9-48.5,13.5
		c-0.2,0.2-0.4,0.3-0.7,0.5L221,154.3c-18.6,16.1-44.8,20.7-66.7,11.8c-3.7-1.5-7.4-3.4-10.7-5.5c-3.2-2-4-5.2-4.1-6.9
		c-0.3-3,0.7-5.8,2.8-8l95.2-94.6c19-18.9,45.5-29.8,72.7-29.8h0.9c27.1,0.2,52.1,10.8,70.6,29.8c38.2,39.3,38.1,100.8-0.2,140.1
		L354,219.6L354,219.6z"/>
</g>
</svg>
