<?xml version="1.0" encoding="utf-8"?>
<!-- Generator: Adobe Illustrator 27.3.1, SVG Export Plug-In . SVG Version: 6.00 Build 0)  -->
<svg version="1.1" id="Calque_1" xmlns="http://www.w3.org/2000/svg" xmlns:xlink="http://www.w3.org/1999/xlink" x="0px" y="0px"
	 viewBox="0 0 396.2 409.8" style="enable-background:new 0 0 396.2 409.8;" xml:space="preserve">
<style type="text/css">
	.st0{fill:#FAFAFA;}
</style>
<g>
	<g>
		<path class="st0" d="M197,233c-64.3,0-116.6-52.3-116.6-116.6S132.7-0.2,197-0.2c64.3,0,116.6,52.3,116.6,116.6S261.2,233,197,233
			z M197,19.8c-53.3,0-96.6,43.3-96.6,96.6S143.7,213,197,213c53.3,0,96.6-43.3,96.6-96.6S250.2,19.8,197,19.8z"/>
	</g>
</g>
<g>
	<g>
		<path class="st0" d="M392.5,409.8h-20c0-62.6-33.6-120.8-87.8-152c-54.1-31.2-121.4-31.2-175.5,0C55,289,21.3,347.3,21.3,409.8
			h-20c0-69.6,37.5-134.5,97.8-169.3c60.3-34.8,135.2-34.8,195.5,0C355,275.2,392.5,340.1,392.5,409.8z"/>
	</g>
</g>
</svg>
