<?xml version="1.0" encoding="utf-8"?>
<!-- Generator: Adobe Illustrator 27.3.1, SVG Export Plug-In . SVG Version: 6.00 Build 0)  -->
<svg version="1.1" id="Calque_1" xmlns="http://www.w3.org/2000/svg" xmlns:xlink="http://www.w3.org/1999/xlink" x="0px" y="0px"
	 viewBox="0 0 338.5 400" style="enable-background:new 0 0 338.5 400;" xml:space="preserve">
<style type="text/css">
	.st0{fill:#A88D44;}
</style>
<g>
	<path class="st0" d="M263.7,169c-7.4-36.2-36.6-65-72.9-72.9c-28.8-5.9-58.5,1-80.8,19.3c-22.3,18.3-35.2,45.1-35.2,73.8
		s10.9,52,31.2,69.9c10.4,9.9,14.9,34.7,17.9,51.1c0.5,3,1,5.9,1.5,8.4c1,6.5,6.9,11.4,13.9,11.4h60.5c6.9,0,12.9-5,13.9-12.4
		c2.5-20.4,9.9-47.1,20.8-58c2-1.5,3.5-3.5,5-5l8-8h-1.5C263.2,224.6,269.1,196.8,263.7,169L263.7,169L263.7,169z M224.5,248.3
		l5,5.5L224.5,248.3c-18.3,17.9-24.2,57-25.8,66.4h-59c-0.5-2-1-4.4-1.5-7.4c-3.5-19.3-8.4-45.6-22.8-59
		c-16.8-14.9-26.3-36.2-26.3-59c0-24.2,10.9-47.1,29.7-62.5s44.1-21.3,68.4-16.4c30.3,6.5,55.1,30.7,61,61
		C254.7,200.2,245.8,229,224.5,248.3L224.5,248.3L224.5,248.3z"/>
	<path class="st0" d="M204.6,361.9h-69.4c-4,0-7.4,3.5-7.4,7.4s3.5,7.4,7.4,7.4h69.4c4,0,7.4-3.5,7.4-7.4S208.6,361.9,204.6,361.9z"
		/>
	<path class="st0" d="M204.6,338.6h-69.4c-4,0-7.4,3.5-7.4,7.4s3.5,7.4,7.4,7.4h69.4c4,0,7.4-3.5,7.4-7.4S208.6,338.6,204.6,338.6z"
		/>
	<path class="st0" d="M182.9,385.1h-25.8c-4,0-7.4,3.5-7.4,7.4s3.5,7.4,7.4,7.4h25.8c4,0,7.4-3.5,7.4-7.4
		C190.3,388.6,186.9,385.1,182.9,385.1L182.9,385.1z"/>
	<path class="st0" d="M170.5,75.3c4,0,7.4-3.5,7.4-7.4V7.4c0-4-3.5-7.4-7.4-7.4S163,3.4,163,7.4v60.5
		C163,71.9,166.5,75.3,170.5,75.3L170.5,75.3z"/>
	<path class="st0" d="M331,181.9h-38.2c-4,0-7.4,3.5-7.4,7.4s3.5,7.4,7.4,7.4H331c4,0,7.4-3.5,7.4-7.4
		C338.5,185.4,335,181.9,331,181.9z"/>
	<path class="st0" d="M47.1,181.9H7.4c-4,0-7.4,3.5-7.4,7.4s3.4,7.4,7.4,7.4h39.6c4,0,7.4-3.5,7.4-7.4
		C54.5,185.4,51,181.9,47.1,181.9z"/>
	<path class="st0" d="M337.1,94.6c-2-3.5-6.5-5-10.4-2.5l-52,30.3c-3.5,2-5,6.5-2.5,10.4c1.5,2.5,4,3.5,6.5,3.5c1.5,0,2.5-0.5,4-1
		l52-30.3C338,103.1,339,98.6,337.1,94.6L337.1,94.6L337.1,94.6z"/>
	<path class="st0" d="M230,90.7c1,0.5,2,1,3.5,1c3,0,5.5-1.5,6.5-4l19.8-40.6c2-3.4,0.5-8-3.5-9.9c-3.5-1.9-8-0.5-9.9,3.4
		l-19.8,40.6C225,84.7,226.5,89.2,230,90.7L230,90.7L230,90.7z"/>
	<path class="st0" d="M103,87.7c1.5,2.5,4,4,6.5,4c1,0,2.5-0.5,3.5-1c3.5-2,5-6.5,3-9.9L94.2,41.7c-2-3.4-6.5-5-9.9-3
		c-3.5,1.9-5,6.5-3,9.9L103,87.7L103,87.7z"/>
	<path class="st0" d="M68.3,122.4L15.7,92.2c-3.4-2-8-1-9.9,3c-1.9,3.5-1,8,3,9.9l52.6,30.3c1,0.5,2.5,1,3.5,1c2.5,0,5-1.5,6.5-4
		C73.3,128.9,72.3,124.4,68.3,122.4L68.3,122.4z"/>
</g>
</svg>
