<?xml version="1.0" encoding="utf-8"?>
<!-- Generator: Adobe Illustrator 27.3.1, SVG Export Plug-In . SVG Version: 6.00 Build 0)  -->
<svg version="1.1" id="Calque_1" xmlns="http://www.w3.org/2000/svg" xmlns:xlink="http://www.w3.org/1999/xlink" x="0px" y="0px"
	 viewBox="0 0 289 400" style="enable-background:new 0 0 289 400;" xml:space="preserve">
<style type="text/css">
	.st0{fill:#A88D44;}
</style>
<g>
	<path class="st0" d="M144.5,400c-2.1,0-4-0.8-5.4-2.2L34.6,293.3c-21.4-21.4-33.3-45.6-34.5-70c-1.1-22.1,6.7-42.6,22-57.9
		c15.2-15.3,35.8-23,57.9-22c22.3,1.1,44.5,11.2,64.5,29.3c20-18.1,42.2-28.2,64.5-29.3c22.1-1.1,42.6,6.7,57.9,22
		c15.3,15.2,23,35.8,22,57.9c-1.2,24.4-13.1,48.6-34.5,70L149.9,397.7C148.5,399.2,146.6,400,144.5,400L144.5,400L144.5,400z
		 M76.1,158.7c-17.3,0-32.5,6.9-43.2,17.5c-22.6,22.6-28.2,65.4,12.6,106.1l98.9,99l98.9-98.9c18.6-18.6,29-39.4,30-59.9
		c0.9-17.8-5.3-34.1-17.4-46.2c-22.6-22.6-65.4-28.2-106.1,12.6l0,0c-3,3-7.9,3-10.9,0C117.6,167.3,95.4,158.7,76.1,158.7
		L76.1,158.7L76.1,158.7z"/>
	<path class="st0" d="M48.5,164.3c-4.2,0-7.6-3.4-7.7-7.5v-1.5c0-4.4,0.3-8.7,0.9-13c1.9-14.3,8.2-27.8,18.5-39
		c14.1-15.4,19.3-42.1,19.4-42.4l0,0c0.5-2.6,2.2-4.7,4.7-5.8c2.5-0.9,5.2-0.6,7.4,0.9c0.4,0.3,11.1,8.1,19.6,23.3
		c6.2,11,12.2,27.7,10.1,49.4c2.2-2.5,4.1-5.2,5.6-8.2c8.2-15.8,13.2-47.7-9.7-110.2c-1-2.8-0.3-5.8,1.6-8c2.1-2.1,5.1-2.9,7.9-2.1
		c0.8,0.3,20.2,6.4,39.6,24.3l0,0c11.3,10.4,20.6,22.8,27.2,36.7c6.5,13.7,10.5,29,12,45.5l10.5-6.3l0,0c3.6-2.1,8.3-0.9,10.5,2.7
		c9.2,15.3,14.2,32.7,14.4,50.5c0.1,4.2-3.4,7.7-7.5,7.8s-7.7-3.4-7.8-7.5c-0.2-12.5-3.1-24.8-8.6-36l-14.6,8.7
		c-2.4,1.4-5.3,1.5-7.7,0.1c-2.4-1.4-3.9-3.9-4-6.6c-0.3-34.6-11.9-62.7-34.4-83.6c-5.8-5.3-12.1-10-18.9-14
		c7.2,22.8,11.1,43.2,11.6,60.7c0.5,18-2.5,33.2-9,45.2c-10.7,19.8-27.2,23.9-27.9,24l0,0c-2.7,0.6-5.4-0.3-7.3-2.1
		c-1.9-2-2.6-4.7-1.9-7.4c9-32.6-2.9-54.7-12.1-65.9c-3.4,10.6-9.6,25.6-19.6,36.5c-8.1,8.8-13.1,19.4-14.6,30.5
		c-0.5,3.7-0.7,7.4-0.7,11v1.3l0,0c0,2.1-0.8,4-2.1,5.5C52.4,163.4,50.5,164.3,48.5,164.3L48.5,164.3L48.5,164.3z"/>
</g>
</svg>
