<?xml version="1.0" encoding="utf-8"?>
<!-- Generator: Adobe Illustrator 27.3.1, SVG Export Plug-In . SVG Version: 6.00 Build 0)  -->
<svg version="1.1" id="Calque_1" xmlns="http://www.w3.org/2000/svg" xmlns:xlink="http://www.w3.org/1999/xlink" x="0px" y="0px"
	 viewBox="0 0 399.2 400" style="enable-background:new 0 0 399.2 400;" xml:space="preserve">
<style type="text/css">
	.st0{fill:#A88D44;}
</style>
<g>
	<path class="st0" d="M199.8,0c-1.2,0-2.4,0.4-3.5,1.2l-32,21.7l-37.6-8c-2.4-0.4-4.9,0.5-6.3,2.7L99.2,50l-37.6,7l0,0
		c-2.5,0.4-4.4,2.4-4.9,5l-7,37.6l-32.3,21.2c-2.1,1.3-3.1,3.8-2.6,6.3l8,37.6L1,196.8c-1.3,2.1-1.3,4.6,0,6.6l21.7,32l-8,37.6l0,0
		c-0.4,2.4,0.5,4.9,2.6,6.3l32.3,21.2l7,37.6c0.4,2.5,2.4,4.4,4.9,5l37.6,7l21.2,32.3l0,0c1.3,2.1,3.8,3.1,6.3,2.6l37.6-8l32,21.7
		l0,0c1,0.8,2.2,1.1,3.5,1.2c1.2,0,2.4-0.4,3.4-1.2l32-21.7l37.4,8l0,0c2.4,0.4,4.9-0.5,6.3-2.6l21.2-32.3l37.6-7l0,0
		c2.5-0.4,4.4-2.4,4.9-5l7-37.6l32.3-21.2c2.1-1.3,3.1-3.8,2.6-6.3l-8-37.6l21.7-32l0,0c1.3-2.1,1.3-4.6,0-6.6l-21.7-32l8-37.6
		c0.4-2.4-0.5-4.9-2.6-6.3l-32.3-21.2l-7-37.6c-0.4-2.5-2.4-4.4-4.9-5l-37.6-7l-21.2-32.3l0,0c-1.3-2.1-3.8-3.1-6.3-2.7l-37.4,8
		l-32-21.7C202.2,0.4,201,0,199.8,0L199.8,0L199.8,0z M199.8,13.4l30.5,20.8l0,0c1.4,1,3.1,1.3,4.8,1l35.9-7.4l20.2,30.8
		c0.9,1.4,2.4,2.4,4,2.6l36.3,6.8l6.8,36.3l0,0c0.3,1.6,1.3,3,2.6,4l30.8,20.2l-7.4,36.1l0,0c-0.3,1.6,0,3.4,1,4.8l20.8,30.5
		l-20.8,30.3c-1,1.4-1.3,3.1-1,4.8l7.4,36.1l-30.8,20.2l0,0c-1.4,0.9-2.4,2.4-2.6,4l-6.8,36.3l-36.3,6.8l0,0c-1.6,0.3-3,1.3-4,2.7
		L271,372.1l-35.9-7.4c-1.6-0.3-3.4,0-4.8,1l-30.5,20.8l-30.5-20.8l0,0c-1.4-1-3.1-1.3-4.8-1l-36.1,7.4l-20.2-30.8
		c-0.9-1.4-2.4-2.4-4-2.7l-36.3-6.8L61,295.4l0,0c-0.3-1.6-1.3-3-2.6-4l-30.8-20.2l7.4-36.1l0,0c0.3-1.6,0-3.4-1-4.8L13.2,200
		L34,169.5c1-1.4,1.3-3.1,1-4.8l-7.4-36.1l30.8-20.2l0,0c1.4-0.9,2.4-2.4,2.6-4L67.8,68l36.3-6.8l0,0c1.6-0.3,3-1.3,4-2.6l20.2-30.8
		l36.1,7.4c1.6,0.3,3.4,0,4.8-1L199.8,13.4L199.8,13.4z M199.8,60.8c-76.9,0-139.3,62.4-139.3,139.3s62.4,139.3,139.3,139.3
		S339.1,277,339.1,200.1S276.7,60.8,199.8,60.8L199.8,60.8L199.8,60.8z M199.8,72.9c70.3,0,127.2,56.9,127.2,127.2
		s-56.9,127.2-127.2,127.2S72.6,270.4,72.6,200.1S129.5,72.9,199.8,72.9L199.8,72.9z M262.8,139.5l-78.7,84.1l-41.2-36.7l-24.2,27
		l54.5,48.5l13.2,11.8l12.1-12.9l90.9-96.9L262.8,139.5L262.8,139.5z"/>
</g>
</svg>
