<?xml version="1.0" encoding="utf-8"?>
<!-- Generator: Adobe Illustrator 27.3.1, SVG Export Plug-In . SVG Version: 6.00 Build 0)  -->
<svg version="1.1" id="Calque_1" xmlns="http://www.w3.org/2000/svg" xmlns:xlink="http://www.w3.org/1999/xlink" x="0px" y="0px"
	 viewBox="0 0 407 407" style="enable-background:new 0 0 407 407;" xml:space="preserve">
<style type="text/css">
	.st0{fill:#FDC300;}
</style>
<g>
	<g>
		<path class="st0" d="M398.5,393.5h-18.4V8.5c0-2.8-2.2-5-5-5H203.5c-2.8,0-5,2.2-5,5V129H31.9c-2.8,0-5,2.2-5,5v259.5H8.5
			c-2.8,0-5,2.2-5,5s2.2,5,5,5h390c2.8,0,5-2.2,5-5S401.3,393.5,398.5,393.5L398.5,393.5z M208.5,13.5h161.6v380H254.4V134
			c0-2.8-2.2-5-5-5h-40.9L208.5,13.5L208.5,13.5z M36.9,139h207.5v254.5H36.9L36.9,139L36.9,139z"/>
		<path class="st0" d="M398.5,407H8.5c-4.7,0-8.5-3.8-8.5-8.5s3.8-8.5,8.5-8.5h14.9V134c0-4.7,3.8-8.5,8.5-8.5H195V8.5
			c0-4.7,3.8-8.5,8.5-8.5h171.6c4.7,0,8.5,3.8,8.5,8.5V390h14.9c4.7,0,8.5,3.8,8.5,8.5S403.2,407,398.5,407z M8.5,397
			c-0.8,0-1.5,0.7-1.5,1.5s0.7,1.5,1.5,1.5h390c0.8,0,1.5-0.7,1.5-1.5s-0.7-1.5-1.5-1.5h-21.9V8.5c0-0.8-0.7-1.5-1.5-1.5H203.5
			c-0.8,0-1.5,0.7-1.5,1.5v124H31.9c-0.8,0-1.5,0.7-1.5,1.5v263H8.5z M373.6,397H250.9V134c0-0.8-0.7-1.5-1.5-1.5H205v-119h3.5V10
			h165.1V397z M257.9,390h108.7V17H212v108.5h37.4c4.7,0,8.5,3.8,8.5,8.5V390z M247.9,397H33.4V135.5h214.5V397z M40.4,390h200.5
			V142.5H40.4V390z"/>
	</g>
	<g>
		<path class="st0" d="M329.3,105.7c2.8,0,5-2.2,5-5V58.1c0-2.8-2.2-5-5-5s-5,2.2-5,5v42.6C324.3,103.5,326.5,105.7,329.3,105.7z"/>
		<path class="st0" d="M329.3,109.2c-4.7,0-8.5-3.8-8.5-8.5V58.1c0-4.7,3.8-8.5,8.5-8.5s8.5,3.8,8.5,8.5v42.6
			C337.8,105.4,334,109.2,329.3,109.2z M329.3,56.6c-0.8,0-1.5,0.7-1.5,1.5v42.6c0,0.8,0.7,1.5,1.5,1.5s1.5-0.7,1.5-1.5V58.1
			C330.8,57.3,330.1,56.6,329.3,56.6z"/>
	</g>
	<g>
		<path class="st0" d="M289.3,105.7c2.8,0,5-2.2,5-5V58.1c0-2.8-2.2-5-5-5s-5,2.2-5,5v42.6C284.3,103.5,286.5,105.7,289.3,105.7z"/>
		<path class="st0" d="M289.3,109.2c-4.7,0-8.5-3.8-8.5-8.5V58.1c0-4.7,3.8-8.5,8.5-8.5s8.5,3.8,8.5,8.5v42.6
			C297.8,105.4,294,109.2,289.3,109.2z M289.3,56.6c-0.8,0-1.5,0.7-1.5,1.5v42.6c0,0.8,0.7,1.5,1.5,1.5s1.5-0.7,1.5-1.5V58.1
			C290.8,57.3,290.1,56.6,289.3,56.6z"/>
	</g>
	<g>
		<path class="st0" d="M329.3,181.6c2.8,0,5-2.2,5-5V134c0-2.8-2.2-5-5-5s-5,2.2-5,5v42.6C324.3,179.4,326.5,181.6,329.3,181.6z"/>
		<path class="st0" d="M329.3,185.1c-4.7,0-8.5-3.8-8.5-8.5V134c0-4.7,3.8-8.5,8.5-8.5s8.5,3.8,8.5,8.5v42.6
			C337.8,181.3,334,185.1,329.3,185.1z M329.3,132.5c-0.8,0-1.5,0.7-1.5,1.5v42.6c0,0.8,0.7,1.5,1.5,1.5s1.5-0.7,1.5-1.5V134
			C330.8,133.2,330.1,132.5,329.3,132.5z"/>
	</g>
	<g>
		<path class="st0" d="M289.3,181.6c2.8,0,5-2.2,5-5V134c0-2.8-2.2-5-5-5s-5,2.2-5,5v42.6C284.3,179.4,286.5,181.6,289.3,181.6z"/>
		<path class="st0" d="M289.3,185.1c-4.7,0-8.5-3.8-8.5-8.5V134c0-4.7,3.8-8.5,8.5-8.5s8.5,3.8,8.5,8.5v42.6
			C297.8,181.3,294,185.1,289.3,185.1z M289.3,132.5c-0.8,0-1.5,0.7-1.5,1.5v42.6c0,0.8,0.7,1.5,1.5,1.5s1.5-0.7,1.5-1.5V134
			C290.8,133.2,290.1,132.5,289.3,132.5z"/>
	</g>
	<g>
		<path class="st0" d="M329.3,257.4c2.8,0,5-2.2,5-5v-42.6c0-2.8-2.2-5-5-5s-5,2.2-5,5v42.6C324.3,255.2,326.5,257.4,329.3,257.4
			L329.3,257.4z"/>
		<path class="st0" d="M329.3,260.9c-4.7,0-8.5-3.8-8.5-8.5v-42.6c0-4.7,3.8-8.5,8.5-8.5s8.5,3.8,8.5,8.5v42.6
			C337.8,257.1,334,260.9,329.3,260.9z M329.3,208.3c-0.8,0-1.5,0.7-1.5,1.5v42.6c0,0.8,0.7,1.5,1.5,1.5s1.5-0.7,1.5-1.5v-42.6
			C330.8,209,330.1,208.3,329.3,208.3z"/>
	</g>
	<g>
		<path class="st0" d="M289.3,257.4c2.8,0,5-2.2,5-5v-42.6c0-2.8-2.2-5-5-5s-5,2.2-5,5v42.6C284.3,255.2,286.5,257.4,289.3,257.4
			L289.3,257.4z"/>
		<path class="st0" d="M289.3,260.9c-4.7,0-8.5-3.8-8.5-8.5v-42.6c0-4.7,3.8-8.5,8.5-8.5s8.5,3.8,8.5,8.5v42.6
			C297.8,257.1,294,260.9,289.3,260.9z M289.3,208.3c-0.8,0-1.5,0.7-1.5,1.5v42.6c0,0.8,0.7,1.5,1.5,1.5s1.5-0.7,1.5-1.5v-42.6
			C290.8,209,290.1,208.3,289.3,208.3z"/>
	</g>
	<g>
		<path class="st0" d="M329.3,333.3c2.8,0,5-2.2,5-5v-42.6c0-2.8-2.2-5-5-5s-5,2.2-5,5v42.6C324.3,331.1,326.5,333.3,329.3,333.3
			L329.3,333.3z"/>
		<path class="st0" d="M329.3,336.8c-4.7,0-8.5-3.8-8.5-8.5v-42.6c0-4.7,3.8-8.5,8.5-8.5s8.5,3.8,8.5,8.5v42.6
			C337.8,333,334,336.8,329.3,336.8z M329.3,284.2c-0.8,0-1.5,0.7-1.5,1.5v42.6c0,0.8,0.7,1.5,1.5,1.5s1.5-0.7,1.5-1.5v-42.6
			C330.8,284.9,330.1,284.2,329.3,284.2z"/>
	</g>
	<g>
		<path class="st0" d="M289.3,333.3c2.8,0,5-2.2,5-5v-42.6c0-2.8-2.2-5-5-5s-5,2.2-5,5v42.6C284.3,331.1,286.5,333.3,289.3,333.3
			L289.3,333.3z"/>
		<path class="st0" d="M289.3,336.8c-4.7,0-8.5-3.8-8.5-8.5v-42.6c0-4.7,3.8-8.5,8.5-8.5s8.5,3.8,8.5,8.5v42.6
			C297.8,333,294,336.8,289.3,336.8z M289.3,284.2c-0.8,0-1.5,0.7-1.5,1.5v42.6c0,0.8,0.7,1.5,1.5,1.5s1.5-0.7,1.5-1.5v-42.6
			C290.8,284.9,290.1,284.2,289.3,284.2z"/>
	</g>
	<g>
		<path class="st0" d="M254.4,100.7V58.1c0-2.8-2.2-5-5-5s-5,2.2-5,5v42.6c0,2.8,2.2,5,5,5S254.4,103.5,254.4,100.7z"/>
		<path class="st0" d="M249.4,109.2c-4.7,0-8.5-3.8-8.5-8.5V58.1c0-4.7,3.8-8.5,8.5-8.5s8.5,3.8,8.5,8.5v42.6
			C257.9,105.4,254.1,109.2,249.4,109.2z M249.4,56.6c-0.8,0-1.5,0.7-1.5,1.5v42.6c0,0.8,0.7,1.5,1.5,1.5s1.5-0.7,1.5-1.5V58.1
			C250.9,57.3,250.2,56.6,249.4,56.6z"/>
	</g>
	<g>
		<path class="st0" d="M72.6,171.4c-2.8,0-5,2.2-5,5v38.5c0,2.8,2.2,5,5,5s5-2.2,5-5v-38.5C77.6,173.6,75.4,171.4,72.6,171.4
			L72.6,171.4z"/>
		<path class="st0" d="M72.6,223.3c-4.7,0-8.5-3.8-8.5-8.5v-38.5c0-4.7,3.8-8.5,8.5-8.5s8.5,3.8,8.5,8.5v38.5
			C81.1,219.5,77.3,223.3,72.6,223.3z M72.6,174.9c-0.8,0-1.5,0.7-1.5,1.5v38.5c0,0.8,0.7,1.5,1.5,1.5s1.5-0.7,1.5-1.5v-38.5
			C74.1,175.5,73.5,174.9,72.6,174.9z"/>
	</g>
	<g>
		<path class="st0" d="M118,171.4c-2.8,0-5,2.2-5,5v38.5c0,2.8,2.2,5,5,5s5-2.2,5-5v-38.5C123,173.6,120.7,171.4,118,171.4
			L118,171.4z"/>
		<path class="st0" d="M118,223.3c-4.7,0-8.5-3.8-8.5-8.5v-38.5c0-4.7,3.8-8.5,8.5-8.5s8.5,3.8,8.5,8.5v38.5
			C126.5,219.5,122.6,223.3,118,223.3z M118,174.9c-0.8,0-1.5,0.7-1.5,1.5v38.5c0,0.8,0.7,1.5,1.5,1.5s1.5-0.7,1.5-1.5v-38.5
			C119.5,175.5,118.8,174.9,118,174.9z"/>
	</g>
	<g>
		<path class="st0" d="M163.3,171.4c-2.8,0-5,2.2-5,5v38.5c0,2.8,2.2,5,5,5s5-2.2,5-5v-38.5C168.3,173.6,166.1,171.4,163.3,171.4
			L163.3,171.4z"/>
		<path class="st0" d="M163.3,223.3c-4.7,0-8.5-3.8-8.5-8.5v-38.5c0-4.7,3.8-8.5,8.5-8.5s8.5,3.8,8.5,8.5v38.5
			C171.8,219.5,168,223.3,163.3,223.3z M163.3,174.9c-0.8,0-1.5,0.7-1.5,1.5v38.5c0,0.8,0.7,1.5,1.5,1.5s1.5-0.7,1.5-1.5v-38.5
			C164.8,175.5,164.2,174.9,163.3,174.9z"/>
	</g>
	<g>
		<path class="st0" d="M208.7,171.4c-2.8,0-5,2.2-5,5v38.5c0,2.8,2.2,5,5,5s5-2.2,5-5v-38.5C213.6,173.6,211.4,171.4,208.7,171.4
			L208.7,171.4z"/>
		<path class="st0" d="M208.7,223.3c-4.7,0-8.5-3.8-8.5-8.5v-38.5c0-4.7,3.8-8.5,8.5-8.5c4.5,0,8.3,3.8,8.5,8.4l0,0.1v38.5
			C217.2,219.5,213.4,223.3,208.7,223.3z M208.7,174.9c-0.8,0-1.5,0.7-1.5,1.5v38.5c0,0.8,0.7,1.5,1.5,1.5s1.5-0.7,1.5-1.5v-38.4
			C210.1,175.6,209.5,174.9,208.7,174.9z"/>
	</g>
	<g>
		<path class="st0" d="M72.6,239.5c-2.8,0-5,2.2-5,5V283c0,2.8,2.2,5,5,5s5-2.2,5-5v-38.5C77.6,241.7,75.4,239.5,72.6,239.5z"/>
		<path class="st0" d="M72.6,291.5c-4.7,0-8.5-3.8-8.5-8.5v-38.5c0-4.7,3.8-8.5,8.5-8.5s8.5,3.8,8.5,8.5V283
			C81.1,287.6,77.3,291.5,72.6,291.5z M72.6,243c-0.8,0-1.5,0.7-1.5,1.5V283c0,0.8,0.7,1.5,1.5,1.5s1.5-0.7,1.5-1.5v-38.5
			C74.1,243.6,73.5,243,72.6,243z"/>
	</g>
	<g>
		<path class="st0" d="M118,239.5c-2.8,0-5,2.2-5,5V283c0,2.8,2.2,5,5,5s5-2.2,5-5v-38.5C123,241.7,120.7,239.5,118,239.5L118,239.5
			z"/>
		<path class="st0" d="M118,291.5c-4.7,0-8.5-3.8-8.5-8.5v-38.5c0-4.7,3.8-8.5,8.5-8.5s8.5,3.8,8.5,8.5V283
			C126.5,287.6,122.6,291.5,118,291.5z M118,243c-0.8,0-1.5,0.7-1.5,1.5V283c0,0.8,0.7,1.5,1.5,1.5s1.5-0.7,1.5-1.5v-38.5
			C119.5,243.6,118.8,243,118,243z"/>
	</g>
	<g>
		<path class="st0" d="M163.3,239.5c-2.8,0-5,2.2-5,5V283c0,2.8,2.2,5,5,5s5-2.2,5-5v-38.5C168.3,241.7,166.1,239.5,163.3,239.5z"/>
		<path class="st0" d="M163.3,291.5c-4.7,0-8.5-3.8-8.5-8.5v-38.5c0-4.7,3.8-8.5,8.5-8.5s8.5,3.8,8.5,8.5V283
			C171.8,287.6,168,291.5,163.3,291.5z M163.3,243c-0.8,0-1.5,0.7-1.5,1.5V283c0,0.8,0.7,1.5,1.5,1.5s1.5-0.7,1.5-1.5v-38.5
			C164.8,243.6,164.2,243,163.3,243z"/>
	</g>
	<g>
		<path class="st0" d="M208.7,239.5c-2.8,0-5,2.2-5,5V283c0,2.8,2.2,5,5,5s5-2.2,5-5v-38.5C213.6,241.7,211.4,239.5,208.7,239.5z"/>
		<path class="st0" d="M208.7,291.5c-4.7,0-8.5-3.8-8.5-8.5v-38.5c0-4.7,3.8-8.5,8.5-8.5c4.5,0,8.3,3.8,8.5,8.4l0,0.1V283
			C217.2,287.6,213.4,291.5,208.7,291.5z M208.7,243c-0.8,0-1.5,0.7-1.5,1.5V283c0,0.8,0.7,1.5,1.5,1.5s1.5-0.7,1.5-1.5v-38.4
			C210.1,243.7,209.5,243,208.7,243z"/>
	</g>
	<g>
		<path class="st0" d="M72.6,307.6c-2.8,0-5,2.2-5,5v38.5c0,2.8,2.2,5,5,5s5-2.2,5-5v-38.5C77.6,309.8,75.4,307.6,72.6,307.6
			L72.6,307.6z"/>
		<path class="st0" d="M72.6,359.6c-4.7,0-8.5-3.8-8.5-8.5v-38.5c0-4.7,3.8-8.5,8.5-8.5s8.5,3.8,8.5,8.5v38.5
			C81.1,355.8,77.3,359.6,72.6,359.6z M72.6,311.1c-0.8,0-1.5,0.7-1.5,1.5v38.5c0,0.8,0.7,1.5,1.5,1.5s1.5-0.7,1.5-1.5v-38.5
			C74.1,311.8,73.5,311.1,72.6,311.1z"/>
	</g>
	<g>
		<path class="st0" d="M118,307.6c-2.8,0-5,2.2-5,5v38.5c0,2.8,2.2,5,5,5s5-2.2,5-5v-38.5C123,309.8,120.7,307.6,118,307.6
			L118,307.6L118,307.6z"/>
		<path class="st0" d="M118,359.6c-4.7,0-8.5-3.8-8.5-8.5v-38.5c0-4.7,3.8-8.5,8.5-8.5s8.5,3.8,8.5,8.5v38.5
			C126.5,355.8,122.6,359.6,118,359.6z M118,311.1c-0.8,0-1.5,0.7-1.5,1.5v38.5c0,0.8,0.7,1.5,1.5,1.5s1.5-0.7,1.5-1.5v-38.5
			C119.5,311.8,118.8,311.1,118,311.1z"/>
	</g>
	<g>
		<path class="st0" d="M163.3,307.6c-2.8,0-5,2.2-5,5v38.5c0,2.8,2.2,5,5,5s5-2.2,5-5v-38.5C168.3,309.8,166.1,307.6,163.3,307.6
			L163.3,307.6z"/>
		<path class="st0" d="M163.3,359.6c-4.7,0-8.5-3.8-8.5-8.5v-38.5c0-4.7,3.8-8.5,8.5-8.5s8.5,3.8,8.5,8.5v38.5
			C171.8,355.8,168,359.6,163.3,359.6z M163.3,311.1c-0.8,0-1.5,0.7-1.5,1.5v38.5c0,0.8,0.7,1.5,1.5,1.5s1.5-0.7,1.5-1.5v-38.5
			C164.8,311.8,164.2,311.1,163.3,311.1z"/>
	</g>
	<g>
		<path class="st0" d="M208.7,307.6c-2.8,0-5,2.2-5,5v38.5c0,2.8,2.2,5,5,5s5-2.2,5-5v-38.5C213.6,309.8,211.4,307.6,208.7,307.6
			L208.7,307.6z"/>
		<path class="st0" d="M208.7,359.6c-4.7,0-8.5-3.8-8.5-8.5v-38.5c0-4.7,3.8-8.5,8.5-8.5c4.5,0,8.3,3.8,8.5,8.4l0,0.1v38.5
			C217.2,355.8,213.4,359.6,208.7,359.6z M208.7,311.1c-0.8,0-1.5,0.7-1.5,1.5v38.5c0,0.8,0.7,1.5,1.5,1.5s1.5-0.7,1.5-1.5v-38.4
			C210.1,311.8,209.5,311.1,208.7,311.1z"/>
	</g>
</g>
</svg>
