<svg height="323" viewBox="0 0 499.99999 323.00001" width="500" xmlns="http://www.w3.org/2000/svg">
  <g transform="translate(0 -799.51969)">
    <path d="m70.66234 799.51969-70.66234 70.64026v40.39445l70.66234-70.66252zm0 0" fill="#c7cacc"/>
    <path d="m70.66234 799.51969v40.37219l70.64007 70.66252v-40.39445zm0 0" fill="#737a7f"/>
    <path d="m211.96475 799.51969-70.66234 70.64026v40.39445l70.66234-70.66252zm0 0" fill="#c7cacc"/>
    <path d="m211.96475 799.51969v40.37219l70.66234 70.66252v-40.39445zm0 0" fill="#737a7f"/>
    <path d="m0 1011.485v40.3722l70.66234-70.64028v-40.39446zm0 0" fill="#c7cacc"/>
    <g fill="#737a7f">
      <path d="m0 1051.8572 70.66234 70.6625v-40.3722l-50.47627-50.4764zm0 0"/>
      <path d="m301.0772 1046.8719 8.4572 15.401 7.14415-7.1664zm28.22039 14.8447-5.92002-3.1159-10.41574 10.3935 3.13805 5.9201-7.54471 7.5448-17.76017-38.7476 7.36669-7.3667 38.6584 17.8493zm0 0"/>
      <path d="m364.28384 1026.7303s-15.60139-15.6237-20.96506-21.2989l15.24527 27.0186-6.12036 6.1204-26.97409-15.2898c4.07284 3.8503 21.27661 20.9873 21.27661 20.9873l-6.87708 6.8771-28.26492-28.265 10.32673-10.3267 25.1046 14.4441-14.5331-25.0157 10.32673-10.32675 28.26496 28.26505zm0 0"/>
      <path d="m351.30864 1084.7737c-4.13959-.089-7.87858.8457-10.92763 3.8948-2.871 2.871-2.51491 5.8755-1.20181 7.1886 1.53565 1.5357 3.44965 1.0461 6.20938-1.0015l3.56094-2.6707c8.41271-6.3207 13.7096-7.1219 18.53913-2.2924 5.96456 5.9646 5.09658 14.6222-3.00455 22.7011-6.60998 6.61-12.352 7.656-18.60589 7.1664l1.95852-8.7689c4.16184.4006 8.67978-1.5579 11.72883-4.6069 2.09205-2.0698 4.27312-6.1204 1.914-8.4795-2.00302-2.0031-4.96305-.1558-7.78955 2.0475l-3.69447 2.8043c-5.63073 4.2731-12.01816 6.009-16.98122 1.046-5.56396-5.5862-5.31915-13.5761 1.95852-20.8761 5.98683-5.9645 12.41877-6.9661 17.82694-7.0773zm0 0"/>
      <path d="m393.59477 1059.8693c7.07736 7.0996 7.27765 16.3358-.35595 23.9919-6.65449 6.6322-15.49007 8.435-23.3019.6231l-17.58211-17.5598 7.14415-7.122 18.36106 18.3612c3.76125 3.7612 6.61001 2.7597 9.77033-.4004 3.60544-3.6055 3.04904-6.6323-.20041-9.8816l-18.00498-18.0051 7.07736-7.0996zm0 0"/>
      <path d="m410.21992 1065.5891-28.26497-28.265 7.03288-7.0329 28.26492 28.265zm0 0"/>
      <path d="m420.76919 1015.313c-4.16185-.089-7.87857.8457-10.92766 3.8948-2.87098 2.871-2.5149 5.8755-1.20182 7.1886 1.53568 1.5357 3.44965 1.046 6.20941-1.0015l3.56092-2.6707c8.41271-6.3207 13.68733-7.1219 18.53912-2.2923 5.9646 5.9645 5.09664 14.6221-3.00452 22.701-6.61001 6.61-12.37424 7.656-18.60591 7.1664l1.95855-8.7689c4.16181.4005 8.67978-1.5579 11.72882-4.6069 2.09204-2.0698 4.27313-6.1204 1.91402-8.4795-2.00307-2.003-4.96306-.156-7.78956 2.0475l-3.6945 2.8042c-5.65296 4.2732-12.01816 6.0091-16.98122 1.0461-5.56395-5.5863-5.31915-13.5761 1.9808-20.8761 5.96456-5.9645 12.39651-6.9661 17.80466-7.0773zm0 0"/>
      <path d="m448.32191 987.76016c-4.16185-.0667-7.87853.84573-10.92762 3.89479-2.87103 2.89325-2.51495 5.87555-1.20182 7.21091 1.51342 1.51344 3.44965 1.02376 6.20941-1.0015l3.56092-2.69296c8.41271-6.3207 13.68733-7.12191 18.53912-2.27011 5.9646 5.96457 5.07433 14.59991-3.00452 22.67881-6.61001 6.61-12.37428 7.656-18.62817 7.1663l1.98076-8.7465c4.16186.4004 8.67979-1.5802 11.72887-4.607 2.06978-2.092 4.27313-6.1426 1.91394-8.5018-2.00299-2.00297-4.96302-.1559-7.81179 2.0476l-3.67219 2.8042c-5.653 4.2954-12.0182 6.0091-16.98122 1.0461-5.56395-5.564-5.31915-13.57616 1.9585-20.85382 5.96459-5.96456 12.41881-6.9661 17.82696-7.09963zm0 0"/>
      <path d="m449.61274 969.66611 20.89826-20.8983 5.47495 5.49721-13.84315 13.84318 5.11886 5.11886 12.93064-12.93068 5.36362 5.36367-12.93064 12.93068 6.72128 6.74354 15.08949-15.11176 5.56394 5.56398-22.1223 22.14463zm0 0"/>
    </g>
  </g>
</svg>
