<?xml version="1.0" encoding="UTF-8"?>
<svg xmlns="http://www.w3.org/2000/svg" baseProfile="tiny" version="1.2" viewBox="0 0 2972.6 1061">
	<style>path{fill:#d50f34;}</style>
	<path d="M44.6,592.2l7.4,5.8c26,20,57.3,36.4,90.8,36.4s37.2-5.8,37.2-23.7-19.2-19.5-32.4-22.2l-29.2-5.3c-56.8-9.9-104.5-43.2-104.5-105.4,0-94.4,86.5-147.2,173.5-147.2s87.6,11.1,126.9,34.8l-39.2,101.8c-25-16.9-53.1-30.1-84.4-30.1s-31.3,4.8-31.3,21.1,18.1,16.9,29.2,19.6l32.8,7.4c61.6,13.7,106.1,46.3,106.1,113.8s-87,141.9-173.5,141.9-108.8-13.7-153.9-36.4l44.6-112.3h0Z"/>
	<path d="M772.2,337l-155,397.7h-123.1l-155-397.7h151.8l53.1,180.9c5.7,19.5,10,39,10,59.1h3.1c0-20,4.3-39.6,10.1-59.1l53.1-180.9h151.8Z"/>
	<path d="M808,592.2l7.4,5.8c26,20,57.3,36.4,90.8,36.4s37.1-5.8,37.1-23.7-19.2-19.5-32.4-22.2l-29.2-5.3c-56.8-9.9-104.5-43.2-104.5-105.4,0-94.4,86.5-147.2,173.5-147.2s87.6,11.1,126.9,34.8l-39.3,101.8c-25-16.9-53.1-30.1-84.4-30.1s-31.3,4.8-31.3,21.1,18,16.9,29.2,19.6l32.8,7.4c61.5,13.7,106.1,46.3,106.1,113.8s-87,141.9-173.5,141.9-108.8-13.7-154-36.4l44.7-112.3h0Z"/>
	<path d="M1995,734.6h-153.9l139.1-397.7h160.8l142.7,397.7h-153.9l-13.4-49.6h-109.8l-11.8,49.6h0ZM2091.1,590.6l-17-70.1c-4.3-16.9-6.9-34.2-9.5-51.2h-5.3l-26.6,121.3h58.4Z"/>
	<path d="M2337.9,592.2l7.4,5.8c26,20,57.3,36.4,90.7,36.4s37.2-5.8,37.2-23.7-19.1-19.5-32.4-22.2l-29.2-5.3c-56.7-9.9-104.6-43.2-104.6-105.4,0-94.4,86.6-147.2,173.6-147.2s87.4,11.1,126.8,34.8l-39.4,101.8c-24.8-16.9-53-30.1-84.3-30.1s-31.3,4.8-31.3,21.1,18.1,16.9,29.2,19.6l32.9,7.4c61.6,13.7,106.1,46.3,106.1,113.8s-87,141.9-173.5,141.9-108.9-13.7-153.9-36.4l44.6-112.3h0Z"/>
	<path d="M2689.7,592.2l7.5,5.8c26,20,57.3,36.4,90.7,36.4s37.2-5.8,37.2-23.7-19.1-19.5-32.4-22.2l-29.2-5.3c-56.8-9.9-104.5-43.2-104.5-105.4,0-94.4,86.5-147.2,173.4-147.2s87.6,11.1,126.9,34.8l-39.2,101.8c-25-16.9-53.1-30.1-84.4-30.1s-31.2,4.8-31.2,21.1,18,16.9,29.1,19.6l32.9,7.4c61.6,13.7,106.1,46.3,106.1,113.8s-87,141.9-173.5,141.9-108.9-13.7-153.9-36.4l44.5-112.3h0Z"/>
	<path d="M1470.7,940.1c-129.8,0-245.8-60-321.3-153.4l-81.4,91.4c97.9,111.9,242,182.8,402.7,182.8s306.8-72,404.8-185.3l-81.6-91.6c-75.6,95-192.4,156-323.3,156h0ZM1470.7,120.9c131.6,0,248.8,61.7,324.3,157.3l81.6-91.6C1778.6,72.5,1633,0,1470.7,0s-306,71.5-403.9,184.1l81.4,91.5c75.6-94.2,192-154.8,322.5-154.8h0Z"/>
	<path d="M1757.3,744.6l-197.7-214.1,199.3-215.8c-30.5-40.6-69.4-74.6-114.4-99.4l-173.9,214-174.8-214.9c-45,24.6-84,58.5-114.8,99l200.6,217.3-199,215.5c30.9,40.3,70.2,73.8,115.3,98.1l172.6-212.3,171.8,211.4c44.9-24.5,84.1-58.2,114.9-98.6h0Z"/>
</svg>